<?xml version="1.0" encoding="utf-8"?>
<!-- Generator: Adobe Illustrator 16.0.0, SVG Export Plug-In . SVG Version: 6.00 Build 0)  -->
<!DOCTYPE svg PUBLIC "-//W3C//DTD SVG 1.1//EN" "http://www.w3.org/Graphics/SVG/1.1/DTD/svg11.dtd">
<svg version="1.1" id="Layer_1" xmlns="http://www.w3.org/2000/svg" xmlns:xlink="http://www.w3.org/1999/xlink" x="0px" y="0px"
	 width="60px" height="60px" viewBox="0 0 60 60" enable-background="new 0 0 60 60" xml:space="preserve">
<circle fill="none" stroke="#5DAB46" stroke-width="2" stroke-miterlimit="10" cx="30" cy="30" r="27"/>
<g>
	<path fill="#3961AD" d="M46.684,42.333l-8.219-8.492c-0.589-0.608-1.325-0.853-1.645-0.541c-0.321,0.309-1.057,0.065-1.647-0.543
		l-0.117-0.122c3.678-4.839,3.321-11.765-1.096-16.183c-4.821-4.821-12.638-4.821-17.458,0c-4.822,4.821-4.822,12.637,0,17.459
		c4.492,4.492,11.584,4.793,16.43,0.913l0.053,0.054c0.589,0.609,0.808,1.353,0.486,1.663c-0.32,0.31-0.102,1.055,0.487,1.663
		l8.215,8.494c0.589,0.607,1.561,0.625,2.17,0.035l2.306-2.229C47.256,43.914,47.272,42.944,46.684,42.333z M31.248,31.197
		c-3.318,3.317-8.719,3.317-12.035,0.002c-3.318-3.318-3.317-8.718,0-12.035c3.316-3.318,8.717-3.318,12.033,0
		C34.564,22.481,34.564,27.88,31.248,31.197z"/>
</g>
</svg>
