<?xml version="1.0" encoding="utf-8"?>
<!-- Generator: Adobe Illustrator 16.0.0, SVG Export Plug-In . SVG Version: 6.00 Build 0)  -->
<!DOCTYPE svg PUBLIC "-//W3C//DTD SVG 1.1//EN" "http://www.w3.org/Graphics/SVG/1.1/DTD/svg11.dtd">
<svg version="1.1" id="Layer_1" xmlns="http://www.w3.org/2000/svg" xmlns:xlink="http://www.w3.org/1999/xlink" x="0px" y="0px"
	 width="60px" height="60px" viewBox="0 0 60 60" enable-background="new 0 0 60 60" xml:space="preserve">
<path fill="#5DAB46" d="M35.01,44.777c-0.141,0.953-1.007,1.613-1.934,1.477l-4.271-0.633c-0.927-0.137-1.565-1.021-1.425-1.973
	l2.349-15.856c0.141-0.951,1.008-1.61,1.935-1.474l4.271,0.633c0.928,0.137,1.566,1.02,1.425,1.971L35.01,44.777z"/>
<path fill="#5DAB46" d="M52.59,43.602c0.15,0.953-0.479,1.84-1.404,1.986L46.92,46.26c-0.926,0.145-1.799-0.508-1.948-1.457
	l-2.492-15.835c-0.149-0.949,0.481-1.837,1.406-1.984l4.265-0.67c0.927-0.146,1.8,0.506,1.948,1.456L52.59,43.602z"/>
<path fill="#3961AD" d="M43.419,24.81c0,0,0.5-2.688-2.625-4.313c0,0,3.938-3.188,0-6.25c0,0,2.531-1.469,0.313-3.406
	c0,0-1.563-0.938-0.313-2.25c0,0,2.969-1.313,0.75-3.531c0,0-1.063-1-0.938-1.688c0,0-0.094-0.688,0.813-0.594l1.5,0.125
	c0,0,1.563-0.25,1.844,2.125l2.719,19L43.419,24.81z"/>
<path fill="#3961AD" d="M36.146,24.86c0,0,0.063-3,2.031-4.063c0,0,5.188-1.672,2.859-5.016c0,0-1.391-1.313-3.094-2.125
	c0,0-1.156-2.281,1.234-3.25c0,0,0.719-0.563-0.109-1.75c0,0-3.078-1.344-1.094-3.594c0,0,1.703-1.703,0.719-2.344h-2.047
	c0,0-1.641-0.063-1.891,2.797l-2.672,18.563L36.146,24.86z"/>
<circle fill="#FFFFFF" cx="39.479" cy="17.652" r="0.917"/>
<path fill="#3961AD" d="M28.2,47.748c0,0-0.522,3.688-0.84,4.531c0,0-1.191,3.125-3.91,2.875c0,0-3.75-0.094-4.219-4.219V30.529
	c0,0,0.906-7.407-7.844-8.313h-6v3.813h5.688c0,0,4.625-0.375,4.219,4.907l0.031,19.219c0,0-0.875,7.469,7.906,8.844
	c0,0,3.813,0.188,6.406-3.094c0,0,1.656-1.031,2.313-7.5L28.2,47.748z"/>
</svg>
