<?xml version="1.0" encoding="utf-8"?>
<!-- Generator: Adobe Illustrator 16.0.0, SVG Export Plug-In . SVG Version: 6.00 Build 0)  -->
<!DOCTYPE svg PUBLIC "-//W3C//DTD SVG 1.1//EN" "http://www.w3.org/Graphics/SVG/1.1/DTD/svg11.dtd">
<svg version="1.1" id="Layer_1" xmlns="http://www.w3.org/2000/svg" xmlns:xlink="http://www.w3.org/1999/xlink" x="0px" y="0px"
	 width="60px" height="60px" viewBox="0 0 60 60" enable-background="new 0 0 60 60" xml:space="preserve">
<g>
	<g>
		<path fill="#3961AD" d="M59.48,2.094c0.004-0.292-0.109-0.573-0.314-0.779C58.96,1.109,58.678,0.995,58.387,1
			c-0.567,0.009-14,0.322-22.647,8.97L24.773,20.936c-2.549-0.898-11.233-2.583-23.458,9.641c-0.372,0.372-0.42,0.958-0.114,1.387
			c0.035,0.049,0.073,0.094,0.115,0.136c0.32,0.319,0.816,0.409,1.235,0.204c0.083-0.041,7.878-3.807,12.016-1.162l-2.713,2.713
			c-0.066,0.065-0.124,0.14-0.17,0.22c-0.114,0.199-2.74,4.916,3.534,11.188c6.272,6.272,10.989,3.649,11.187,3.534
			c0.082-0.048,0.155-0.104,0.22-0.17l2.714-2.714c2.644,4.139-1.121,11.934-1.162,12.017c-0.206,0.418-0.118,0.915,0.204,1.235
			c0.006,0.007,0.013,0.012,0.02,0.019c0.421,0.404,1.09,0.398,1.505-0.017c0.021-0.02,0.039-0.041,0.059-0.063
			c12.159-12.193,10.477-20.852,9.58-23.397l10.967-10.965C59.157,16.094,59.471,2.662,59.48,2.094z M45.559,23.474
			c-2.362,2.361-6.189,2.361-8.551,0c-2.36-2.36-2.36-6.188,0.001-8.549c2.36-2.36,6.188-2.36,8.55,0
			C47.918,17.286,47.918,21.114,45.559,23.474z"/>
		<path fill="#5DAB46" d="M15.128,51.717c-2.123,0.369-4.313,0.517-6.464,0.481c-0.183-0.003-0.37-0.224-0.37-0.373
			c0-0.326,0.008-0.801,0.016-1.126c0.012-0.477,0.032-0.952,0.057-1.429c0.061-1.079,0.148-2.161,0.308-3.229
			c0.277-1.872,0.699-3.705,1.396-5.468c0.095-0.24,0.202-0.476,0.289-0.72c-1.957,0.838-3.486,2.506-4.562,4.303
			c-1.047,1.748-1.725,3.703-2.101,5.701c-0.223,1.18-0.338,2.377-0.355,3.577c-0.008,0.663-0.05,1.466,0.181,2.102
			c0.326,0.903,1.167,1.503,2.118,1.568c0.854,0.059,1.71,0.047,2.565-0.009c3.885-0.257,8.038-1.609,10.766-4.501
			c0.671-0.75,1.256-1.54,1.663-2.467c-0.97,0.357-1.912,0.754-2.915,1.023C16.863,51.382,16.002,51.563,15.128,51.717z"/>
	</g>
</g>
</svg>
