<?xml version="1.0" encoding="utf-8"?>
<!-- Generator: Adobe Illustrator 16.0.0, SVG Export Plug-In . SVG Version: 6.00 Build 0)  -->
<!DOCTYPE svg PUBLIC "-//W3C//DTD SVG 1.1//EN" "http://www.w3.org/Graphics/SVG/1.1/DTD/svg11.dtd">
<svg version="1.1" xmlns="http://www.w3.org/2000/svg" xmlns:xlink="http://www.w3.org/1999/xlink" x="0px" y="0px" width="60px"
	 height="60px" viewBox="0 0 60 60" enable-background="new 0 0 60 60" xml:space="preserve">
<g id="Layer_1">
	<g id="Layer_2">
		<g>
			<path fill="#3961AD" d="M22.221,1.648c-4.135,0-7.5,3.364-7.5,7.5s3.365,7.5,7.5,7.5s7.5-3.364,7.5-7.5
				S26.356,1.648,22.221,1.648z M22.221,15.053c-3.255,0-5.904-2.648-5.904-5.904s2.648-5.904,5.904-5.904s5.904,2.648,5.904,5.904
				S25.476,15.053,22.221,15.053z"/>
			<path fill="#5DAB46" d="M26.129,8.917h-3.37V4.864c0-0.341-0.277-0.618-0.618-0.618c-0.341,0-0.618,0.277-0.618,0.618v4.67
				c0,0.341,0.276,0.618,0.618,0.618h3.988c0.341,0,0.618-0.276,0.618-0.618C26.747,9.193,26.47,8.917,26.129,8.917z"/>
		</g>
	</g>
	<g>
		<path fill="#5DAB46" d="M22.607,27.769c0.135,0.463,0.323,0.911,0.561,1.33l-0.676,0.853c-0.221,0.28-0.196,0.677,0.053,0.928
			l1.165,1.164c0.251,0.252,0.648,0.273,0.928,0.054l0.848-0.671c0.436,0.252,0.899,0.447,1.383,0.586l0.127,1.09
			c0.042,0.352,0.339,0.618,0.692,0.618h1.649c0.352,0,0.651-0.267,0.692-0.618l0.122-1.052c0.518-0.136,1.016-0.337,1.481-0.601
			l0.819,0.65c0.28,0.221,0.677,0.195,0.928-0.053l1.166-1.166c0.251-0.251,0.272-0.648,0.052-0.927l-0.638-0.809
			c0.266-0.458,0.473-0.947,0.609-1.457l0.983-0.113c0.354-0.042,0.619-0.34,0.619-0.693v-1.648c0-0.354-0.266-0.651-0.619-0.693
			l-0.969-0.113c-0.133-0.505-0.332-0.989-0.585-1.441l0.596-0.753c0.221-0.278,0.196-0.676-0.053-0.928l-1.162-1.162
			c-0.251-0.251-0.647-0.273-0.928-0.053l-0.73,0.579c-0.476-0.278-0.983-0.491-1.516-0.634l-0.11-0.947
			c-0.041-0.354-0.34-0.619-0.693-0.619h-1.648c-0.354,0-0.651,0.265-0.693,0.619l-0.11,0.947c-0.547,0.146-1.069,0.367-1.554,0.657
			l-0.759-0.602c-0.279-0.22-0.677-0.196-0.928,0.053l-1.165,1.164c-0.251,0.251-0.274,0.65-0.053,0.928l0.635,0.803
			c-0.254,0.459-0.447,0.947-0.575,1.456l-1.016,0.116c-0.353,0.042-0.618,0.34-0.618,0.692v1.648c0,0.353,0.266,0.652,0.618,0.693
			L22.607,27.769z M28.578,23.311c1.502,0,2.725,1.222,2.725,2.725c0,1.501-1.223,2.725-2.725,2.725s-2.725-1.224-2.725-2.725
			C25.854,24.533,27.076,23.311,28.578,23.311z"/>
		<path fill="#5DAB46" d="M44.87,28.174L44,27.439c-0.267-0.226-0.662-0.215-0.916,0.025l-0.48,0.45
			c-0.404-0.196-0.837-0.333-1.28-0.414l-0.136-0.663c-0.068-0.343-0.386-0.58-0.733-0.553l-1.135,0.097
			c-0.348,0.03-0.621,0.314-0.633,0.665l-0.022,0.673c-0.435,0.158-0.846,0.373-1.222,0.644l-0.574-0.381
			c-0.293-0.193-0.684-0.138-0.909,0.13l-0.733,0.875c-0.227,0.268-0.215,0.663,0.025,0.916l0.501,0.536
			c-0.173,0.392-0.297,0.804-0.369,1.226l-0.719,0.146c-0.342,0.068-0.58,0.387-0.552,0.734l0.097,1.135
			c0.03,0.347,0.314,0.62,0.667,0.632l0.774,0.025c0.142,0.369,0.325,0.72,0.55,1.049l-0.434,0.653
			c-0.194,0.293-0.138,0.682,0.13,0.909l0.868,0.734c0.269,0.226,0.663,0.214,0.918-0.025l0.568-0.533
			c0.372,0.175,0.765,0.303,1.167,0.381l0.157,0.778c0.069,0.342,0.388,0.58,0.734,0.553l1.135-0.098
			c0.349-0.029,0.621-0.313,0.633-0.665l0.023-0.761c0.415-0.147,0.807-0.346,1.169-0.592l0.627,0.414
			c0.293,0.193,0.682,0.14,0.908-0.129l0.733-0.869c0.227-0.269,0.216-0.663-0.024-0.917l-0.505-0.536
			c0.185-0.391,0.32-0.805,0.396-1.232l0.69-0.139c0.342-0.069,0.58-0.387,0.553-0.734l-0.097-1.135
			c-0.031-0.348-0.315-0.622-0.665-0.633l-0.693-0.022c-0.144-0.402-0.336-0.783-0.577-1.137l0.378-0.568
			C45.193,28.792,45.138,28.4,44.87,28.174z M40.595,34.732c-1.227,0.105-2.308-0.808-2.41-2.033
			c-0.105-1.227,0.809-2.308,2.034-2.412c1.226-0.104,2.309,0.81,2.41,2.036C42.734,33.549,41.821,34.631,40.595,34.732z"/>
		<path fill="#5DAB46" d="M26.577,37.785c-0.348,0.037-0.616,0.329-0.619,0.681l-0.008,0.697c-0.006,0.351,0.254,0.648,0.602,0.692
			l0.513,0.067c0.085,0.312,0.207,0.61,0.365,0.891l-0.332,0.408c-0.221,0.273-0.204,0.666,0.042,0.917l0.489,0.5
			c0.246,0.252,0.637,0.279,0.917,0.063l0.412-0.317c0.29,0.172,0.596,0.308,0.916,0.401l0.055,0.53
			c0.036,0.347,0.329,0.615,0.679,0.618l0.698,0.009c0.352,0.005,0.649-0.254,0.693-0.604l0.064-0.501
			c0.347-0.086,0.678-0.216,0.993-0.387l0.387,0.312c0.272,0.222,0.664,0.204,0.916-0.041l0.5-0.488
			c0.25-0.246,0.279-0.638,0.063-0.918l-0.295-0.383c0.182-0.304,0.322-0.626,0.419-0.966l0.458-0.046
			c0.349-0.037,0.616-0.329,0.619-0.682l0.008-0.697c0.005-0.35-0.253-0.648-0.603-0.692l-0.446-0.058
			c-0.087-0.337-0.213-0.663-0.379-0.968l0.279-0.341c0.221-0.273,0.204-0.665-0.041-0.917l-0.489-0.499
			c-0.246-0.252-0.638-0.279-0.916-0.064l-0.335,0.257c-0.314-0.19-0.65-0.336-1.004-0.437l-0.044-0.434
			c-0.036-0.346-0.329-0.615-0.68-0.617l-0.699-0.009c-0.35-0.005-0.647,0.255-0.691,0.601l-0.056,0.433
			c-0.364,0.093-0.715,0.237-1.041,0.425l-0.345-0.282c-0.274-0.221-0.666-0.204-0.917,0.041l-0.502,0.492
			c-0.251,0.246-0.279,0.638-0.064,0.917l0.295,0.381c-0.171,0.304-0.307,0.626-0.395,0.966L26.577,37.785z M31.084,36.996
			c1.002,0.012,1.807,0.836,1.794,1.838c-0.01,1.003-0.836,1.807-1.838,1.795c-1.001-0.011-1.805-0.836-1.794-1.839
			C29.257,37.789,30.083,36.985,31.084,36.996z"/>
	</g>
</g>
<g id="Layer_3">
	<g>
		<path fill="#3961AD" d="M31.75,5.512l0.057,4.669c0.015,1.181,0.971,2.124,2.138,2.15c9.025,0.861,16.135,8.405,16.246,17.688
			c0.12,9.935-7.818,18.076-17.736,18.197c-9.829,0.117-17.915-7.887-18.171-17.69l2.918-0.034c1.329-0.017,1.912-0.97,1.303-2.12
			l-7.85-14.895c-0.609-1.15-1.571-1.139-2.151,0.026L1.029,28.584c-0.58,1.164,0.026,2.103,1.347,2.086l2.941-0.035
			c0.317,14.774,12.476,26.749,27.26,26.57c14.874-0.18,26.792-12.396,26.612-27.294C59.018,15.665,47.85,4.126,33.852,3.318
			C32.678,3.324,31.736,4.321,31.75,5.512z"/>
	</g>
</g>
</svg>
