<?xml version="1.0" encoding="utf-8"?>
<!-- Generator: Adobe Illustrator 16.0.0, SVG Export Plug-In . SVG Version: 6.00 Build 0)  -->
<!DOCTYPE svg PUBLIC "-//W3C//DTD SVG 1.1//EN" "http://www.w3.org/Graphics/SVG/1.1/DTD/svg11.dtd">
<svg version="1.1" id="Layer_1" xmlns="http://www.w3.org/2000/svg" xmlns:xlink="http://www.w3.org/1999/xlink" x="0px" y="0px"
	 width="60px" height="60px" viewBox="0 0 60 60" enable-background="new 0 0 60 60" xml:space="preserve">
<path fill="#3961AD" d="M54.232,26.254c-0.049-0.186-0.17-0.34-0.336-0.428c-0.169-0.087-0.368-0.104-0.56-0.043l-6.423,2.054
	c-0.394,0.125-0.634,0.54-0.535,0.927c1.511,5.89-0.36,12.357-4.882,16.88c-6.849,6.85-17.623,7.221-24.015,0.827
	c-6.393-6.391-6.021-17.165,0.828-24.015c2.57-2.57,5.863-4.343,9.346-5.049l-0.248,7.171c-0.01,0.278,0.139,0.528,0.382,0.644
	c0.245,0.116,0.544,0.08,0.772-0.094l15.897-12.083c0.19-0.147,0.308-0.369,0.316-0.602c0.008-0.231-0.095-0.446-0.275-0.579
	L29.401,0.85c-0.218-0.159-0.515-0.175-0.768-0.041c-0.253,0.133-0.418,0.393-0.428,0.671l-0.268,7.757
	c-5.648,0.835-11.006,3.551-15.15,7.695C2.675,27.047,2.125,42.952,11.564,52.391c9.438,9.439,25.344,8.891,35.456-1.223
	C53.697,44.493,56.46,34.945,54.232,26.254z"/>
<path fill="#5DAB46" d="M21.669,26.047l-3.739,3.739l12.019,12.019l26.708-26.708l-3.739-3.739L29.949,34.326L21.669,26.047z"/>
</svg>
