<?xml version="1.0" encoding="utf-8"?>
<!-- Generator: Adobe Illustrator 16.0.0, SVG Export Plug-In . SVG Version: 6.00 Build 0)  -->
<!DOCTYPE svg PUBLIC "-//W3C//DTD SVG 1.1//EN" "http://www.w3.org/Graphics/SVG/1.1/DTD/svg11.dtd">
<svg version="1.1" id="Layer_1" xmlns="http://www.w3.org/2000/svg" xmlns:xlink="http://www.w3.org/1999/xlink" x="0px" y="0px"
	 width="60px" height="60px" viewBox="0 0 60 60" enable-background="new 0 0 60 60" xml:space="preserve">
<g>
	<g>
		<g>
			<path fill="#3961AD" d="M46,58H14C7.384,58,2,52.616,2,46V14C2,7.384,7.384,2,14,2h19.999C36.213,2,38,3.792,38,6
				s-1.787,4-4.001,4H14c-2.208,0-4,1.796-4,4v32c0,2.204,1.792,4,4,4h32c2.208,0,4-1.796,4-4V33.999C50,31.792,51.787,30,54.001,30
				C56.212,30,58,31.792,58,33.999V46C58,52.616,52.616,58,46,58z"/>
		</g>
	</g>
	<g>
		<g>
			<path fill="#5DAB46" d="M34.664,41.332c-1.4,0-2.756-0.556-3.764-1.563L20.228,29.1c-2.08-2.083-2.08-5.46,0-7.54
				c2.084-2.084,5.46-2.084,7.548,0l5.664,5.668l13.9-21.82c1.428-2.576,4.68-3.507,7.257-2.076c2.571,1.432,3.5,4.68,2.07,7.252
				l-17.336,28c-0.811,1.464-2.264,2.46-3.919,2.692C35.156,41.316,34.916,41.332,34.664,41.332z"/>
		</g>
	</g>
</g>
</svg>
