<?xml version="1.0" encoding="utf-8"?>
<!-- Generator: Adobe Illustrator 16.0.0, SVG Export Plug-In . SVG Version: 6.00 Build 0)  -->
<!DOCTYPE svg PUBLIC "-//W3C//DTD SVG 1.1//EN" "http://www.w3.org/Graphics/SVG/1.1/DTD/svg11.dtd">
<svg version="1.1" id="Layer_1" xmlns="http://www.w3.org/2000/svg" xmlns:xlink="http://www.w3.org/1999/xlink" x="0px" y="0px"
	 width="60px" height="60px" viewBox="0 0 60 60" enable-background="new 0 0 60 60" xml:space="preserve">
<g>
	<path fill="#5DAB46" d="M43.579,18.316c-8.044,4.932-13.843,11.159-16.197,13.928l-6.043-4.736
		c-0.162-0.115-3.479,2.83-3.391,2.923l11.008,11.19c0.081,0.094,0.192,0.134,0.313,0.134c0.022,0,0.056,0,0.085-0.008
		c0.143-0.03,0.265-0.13,0.318-0.272c1.773-4.535,7.63-14.026,15.108-20.911c0.132-0.125,0.178-0.323,0.106-0.494
		C44.886,20.067,43.69,18.247,43.579,18.316z"/>
	<path fill="#3961AD" d="M50.8,8.41c-16.67,0-19.489-6.328-19.515-6.387c-0.122-0.31-0.424-0.515-0.766-0.523c0,0-0.008,0-0.016,0
		c-0.33,0-0.636,0.208-0.77,0.509c-0.018,0.066-2.9,6.401-19.505,6.401c-0.464,0-0.83,0.375-0.83,0.829V37.59
		c0,11.604,19.932,20.472,20.777,20.843c0.111,0.048,0.217,0.067,0.338,0.067c0.109,0,0.229-0.02,0.334-0.067
		C31.7,58.062,51.63,49.194,51.63,37.59V9.239C51.626,8.785,51.256,8.41,50.8,8.41z M47.043,35.939
		c0,9.08-15.607,16.027-16.27,16.316c-0.081,0.04-0.177,0.056-0.261,0.056c-0.092,0-0.177-0.016-0.262-0.056
		c-0.657-0.289-16.27-7.236-16.27-16.316V13.75c0-0.358,0.29-0.654,0.652-0.654c13,0,15.255-4.957,15.275-5.004
		c0.103-0.239,0.341-0.4,0.601-0.4c0.004,0,0.012,0,0.012,0c0.265,0.002,0.501,0.166,0.597,0.412
		c0.021,0.044,2.229,4.993,15.277,4.993c0.359,0,0.647,0.296,0.647,0.654L47.043,35.939L47.043,35.939z"/>
</g>
</svg>
