<?xml version="1.0" encoding="utf-8"?>
<!-- Generator: Adobe Illustrator 16.0.0, SVG Export Plug-In . SVG Version: 6.00 Build 0)  -->
<!DOCTYPE svg PUBLIC "-//W3C//DTD SVG 1.1//EN" "http://www.w3.org/Graphics/SVG/1.1/DTD/svg11.dtd">
<svg version="1.1" xmlns="http://www.w3.org/2000/svg" xmlns:xlink="http://www.w3.org/1999/xlink" x="0px" y="0px" width="60px"
	 height="60px" viewBox="0 0 60 60" enable-background="new 0 0 60 60" xml:space="preserve">
<g id="Layer_1">
	<g id="Layer_2">
		<g>
			<g>
				<path fill="#3961AD" d="M55.517,4H4.485C2.563,4,1,5.564,1,7.486v45.72c0,1.922,1.563,3.485,3.485,3.485h51.031
					c1.922,0,3.483-1.563,3.483-3.485V7.486C59.001,5.564,57.438,4,55.517,4z M45.006,9.854c0-0.711,0.577-1.287,1.287-1.287h1.288
					c0.71,0,1.286,0.576,1.286,1.287v1.458c0,0.711-0.576,1.287-1.286,1.287h-1.288c-0.71,0-1.287-0.576-1.287-1.287V9.854z
					 M39.022,9.854c0-0.711,0.577-1.287,1.286-1.287h1.286c0.712,0,1.289,0.576,1.289,1.287v1.458c0,0.711-0.577,1.287-1.289,1.287
					h-1.286c-0.709,0-1.286-0.576-1.286-1.287V9.854z M54.818,52.51H5.183V16.465h49.636V52.51L54.818,52.51z M54.852,11.312
					c0,0.711-0.576,1.287-1.286,1.287h-1.287c-0.712,0-1.287-0.576-1.287-1.287V9.854c0-0.711,0.575-1.287,1.287-1.287h1.287
					c0.711,0,1.286,0.576,1.286,1.287V11.312z"/>
				<path fill="#5DAB46" d="M13.45,35.846l9.33,4.338c0.24,0.111,0.497,0.168,0.764,0.168c0.346,0,0.683-0.098,0.975-0.284
					c0.525-0.335,0.838-0.906,0.838-1.528v-0.047c0-0.701-0.413-1.348-1.05-1.645l-5.835-2.711l5.835-2.711
					c0.637-0.297,1.05-0.941,1.05-1.645v-0.047c0-0.622-0.313-1.193-0.838-1.527c-0.29-0.187-0.627-0.284-0.977-0.284
					c-0.263,0-0.526,0.058-0.763,0.167l-9.329,4.338c-0.637,0.297-1.049,0.943-1.049,1.645v0.13
					C12.401,34.904,12.813,35.548,13.45,35.846z"/>
				<path fill="#5DAB46" d="M25.44,44.684c0.34,0.465,0.888,0.744,1.464,0.744h0.047c0.792,0,1.484-0.508,1.727-1.262l6.146-19.042
					c0.177-0.549,0.078-1.156-0.263-1.622c-0.34-0.466-0.888-0.744-1.465-0.744H33.05c-0.792,0-1.486,0.506-1.727,1.259
					l-6.146,19.045C25.001,43.611,25.101,44.217,25.44,44.684z"/>
				<path fill="#5DAB46" d="M34.644,29.781c0,0.703,0.412,1.347,1.05,1.645l5.835,2.711l-5.835,2.711
					c-0.637,0.297-1.05,0.943-1.05,1.645v0.047c0,0.621,0.313,1.193,0.838,1.528c0.292,0.187,0.63,0.284,0.976,0.284
					c0.265,0,0.522-0.057,0.765-0.168l9.33-4.338c0.637-0.298,1.047-0.941,1.047-1.645v-0.129c0-0.701-0.41-1.348-1.048-1.645
					l-9.329-4.338c-0.234-0.109-0.5-0.167-0.762-0.167c-0.349,0-0.688,0.098-0.978,0.283c-0.524,0.335-0.838,0.905-0.838,1.528
					L34.644,29.781L34.644,29.781L34.644,29.781z"/>
			</g>
		</g>
	</g>
</g>
<g id="Layer_3">
</g>
</svg>
