<?xml version="1.0" encoding="utf-8"?>
<!-- Generator: Adobe Illustrator 18.0.0, SVG Export Plug-In . SVG Version: 6.00 Build 0)  -->
<!DOCTYPE svg PUBLIC "-//W3C//DTD SVG 1.1//EN" "http://www.w3.org/Graphics/SVG/1.1/DTD/svg11.dtd">
<svg version="1.1" id="Layer_3" xmlns="http://www.w3.org/2000/svg" xmlns:xlink="http://www.w3.org/1999/xlink" x="0px" y="0px"
	 width="60px" height="60px" viewBox="0 0 60 60" enable-background="new 0 0 60 60" xml:space="preserve">
<g>
	<g>
		<g>
			<path fill="#3760AF" d="M40.1,49.5c-0.3-0.2-0.6-0.4-0.8-0.7c-0.1-0.1-0.2-0.3-0.2-0.4H4.9V14.6h46.4v22c1,0.1,1.8,0.7,2.2,1.6
				c0.3-0.2,0.7-0.3,1-0.3c0.2,0,0.5,0,0.7,0V6.3c0-1.8-1.5-3.3-3.3-3.3H4.3C2.5,3,1,4.5,1,6.3V49c0,1.8,1.5,3.3,3.3,3.3h35.5
				c-0.3-0.6-0.3-1.2-0.2-1.8C39.7,50.1,39.9,49.7,40.1,49.5z M47.7,8.5c0-0.7,0.5-1.2,1.2-1.2h1.2c0.7,0,1.2,0.5,1.2,1.2v1.4
				c0,0.7-0.5,1.2-1.2,1.2h-1.2c-0.7,0-1.2-0.5-1.2-1.2V8.5z M42.1,8.5c0-0.7,0.5-1.2,1.2-1.2h1.2c0.7,0,1.2,0.5,1.2,1.2v1.4
				c0,0.7-0.5,1.2-1.2,1.2h-1.2c-0.7,0-1.2-0.5-1.2-1.2V8.5z M36.5,8.5c0-0.7,0.5-1.2,1.2-1.2h1.2c0.7,0,1.2,0.5,1.2,1.2v1.4
				c0,0.7-0.5,1.2-1.2,1.2h-1.2c-0.7,0-1.2-0.5-1.2-1.2V8.5z"/>
			<path fill="#5DAB34" d="M59,47.2l-0.4-2c0-0.3-0.3-0.5-0.6-0.4L56.2,45c-0.2-0.5-0.5-1-0.8-1.4l1.2-1.4c0.1-0.1,0.1-0.2,0.1-0.4
				c0-0.1-0.1-0.3-0.2-0.3l-1.6-1.3C54.8,40,54.7,40,54.6,40c-0.1,0-0.3,0.1-0.3,0.2L53,41.6c-0.5-0.2-1-0.4-1.6-0.6v-1.8
				c0-0.3-0.2-0.5-0.5-0.5h-2.1c-0.3,0-0.5,0.2-0.5,0.5V41c-0.5,0.1-1.1,0.3-1.6,0.6l-1.2-1.4c-0.2-0.2-0.5-0.2-0.7-0.1l-1.6,1.3
				c-0.1,0.1-0.2,0.2-0.2,0.3c0,0.1,0,0.3,0.1,0.4l1.2,1.4c-0.3,0.4-0.6,0.9-0.8,1.4l-1.8-0.3c-0.3,0-0.5,0.1-0.6,0.4l-0.4,2
				c0,0.1,0,0.3,0.1,0.4c0.1,0.1,0.2,0.2,0.3,0.2l1.8,0.3c0,0.6,0.1,1.1,0.3,1.6l-1.6,0.9c-0.1,0.1-0.2,0.2-0.2,0.3
				c0,0.1,0,0.3,0.1,0.4l1,1.8c0.1,0.1,0.2,0.2,0.3,0.2c0,0,0.1,0,0.1,0c0.1,0,0.2,0,0.3-0.1l1.6-0.9c0.4,0.4,0.8,0.8,1.3,1.1
				l-0.6,1.7c0,0.1,0,0.3,0,0.4c0.1,0.1,0.2,0.2,0.3,0.3l2,0.7c0.1,0,0.1,0,0.2,0c0.1,0,0.1,0,0.2,0c0.1-0.1,0.2-0.2,0.3-0.3
				l0.6-1.7c0.3,0,0.5,0,0.8,0c0.3,0,0.6,0,0.8,0l0.6,1.7c0,0.1,0.1,0.2,0.3,0.3c0.1,0,0.1,0,0.2,0c0.1,0,0.1,0,0.2,0l2-0.7
				c0.1,0,0.2-0.1,0.3-0.3c0.1-0.1,0.1-0.3,0-0.4l-0.6-1.7c0.5-0.3,0.9-0.7,1.3-1.1l1.6,0.9c0.1,0,0.2,0.1,0.3,0.1c0,0,0.1,0,0.1,0
				c0.1,0,0.2-0.1,0.3-0.2l1-1.8c0.1-0.1,0.1-0.3,0.1-0.4c0-0.1-0.1-0.2-0.2-0.3l-1.6-0.9c0.2-0.5,0.3-1.1,0.3-1.6l1.8-0.3
				c0.1,0,0.3-0.1,0.3-0.2C59,47.4,59,47.3,59,47.2z M49.9,50.4c-1.5,0-2.8-1.2-2.8-2.8c0-1.5,1.2-2.8,2.8-2.8
				c1.5,0,2.8,1.2,2.8,2.8C52.7,49.2,51.5,50.4,49.9,50.4z"/>
			<g>
				<path fill="#404040" d="M23.7,33.3c0-0.7-0.4-1.3-1-1.5l-5.4-2.5l5.4-2.5c0.6-0.3,1-0.9,1-1.5v0c0-0.6-0.3-1.1-0.8-1.4
					c-0.3-0.2-0.6-0.3-0.9-0.3c-0.2,0-0.5,0.1-0.7,0.2l-8.7,4.1c-0.6,0.3-1,0.9-1,1.5v0.1c0,0.7,0.4,1.3,1,1.5l8.7,4.1
					c0.2,0.1,0.5,0.2,0.7,0.2c0.3,0,0.6-0.1,0.9-0.3C23.5,34.5,23.7,33.9,23.7,33.3L23.7,33.3L23.7,33.3z"/>
				<path fill="#404040" d="M32.3,19.3c-0.3-0.4-0.8-0.7-1.4-0.7h0c-0.7,0-1.4,0.5-1.6,1.2l-5.7,17.8c-0.2,0.5-0.1,1.1,0.2,1.5
					c0.3,0.4,0.8,0.7,1.4,0.7h0c0.7,0,1.4-0.5,1.6-1.2l5.7-17.8C32.8,20.3,32.7,19.7,32.3,19.3z"/>
				<path fill="#404040" d="M43.5,27.6l-8.7-4.1c-0.2-0.1-0.5-0.2-0.7-0.2c-0.3,0-0.6,0.1-0.9,0.3c-0.5,0.3-0.8,0.8-0.8,1.4v0
					c0,0.7,0.4,1.3,1,1.5l5.4,2.5l-5.4,2.5c-0.6,0.3-1,0.9-1,1.5v0c0,0.6,0.3,1.1,0.8,1.4c0.3,0.2,0.6,0.3,0.9,0.3
					c0.2,0,0.5-0.1,0.7-0.2l8.7-4.1c0.6-0.3,1-0.9,1-1.5v-0.1C44.5,28.5,44.1,27.9,43.5,27.6z"/>
			</g>
		</g>
	</g>
</g>
</svg>
