<?xml version="1.0" encoding="utf-8"?>
<!-- Generator: Adobe Illustrator 16.0.0, SVG Export Plug-In . SVG Version: 6.00 Build 0)  -->
<!DOCTYPE svg PUBLIC "-//W3C//DTD SVG 1.1//EN" "http://www.w3.org/Graphics/SVG/1.1/DTD/svg11.dtd">
<svg version="1.1" id="Layer_1" xmlns="http://www.w3.org/2000/svg" xmlns:xlink="http://www.w3.org/1999/xlink" x="0px" y="0px"
	 width="60px" height="60px" viewBox="0 0 60 60" enable-background="new 0 0 60 60" xml:space="preserve">
<g id="Layer_3">
	<circle fill="#3961AD" cx="30" cy="30" r="28.5"/>
</g>
<g id="Layer_2">
	<g>
		<g>
			<path fill="#5DAB46" d="M35.854,14.669l-1.424-0.391c-0.184-0.061-0.363-0.042-0.539,0.058s-0.295,0.249-0.355,0.447
				l-8.561,29.631c-0.061,0.199-0.042,0.387,0.058,0.563c0.099,0.176,0.248,0.295,0.447,0.355l1.423,0.391
				c0.184,0.061,0.363,0.041,0.54-0.059c0.176-0.1,0.294-0.248,0.355-0.445l8.561-29.632c0.061-0.199,0.043-0.387-0.057-0.563
				C36.201,14.848,36.053,14.729,35.854,14.669z"/>
			<path fill="#5DAB46" d="M23.024,20.453c0-0.199-0.077-0.375-0.23-0.528l-1.147-1.147c-0.153-0.153-0.329-0.23-0.527-0.23
				c-0.199,0-0.375,0.077-0.528,0.23L9.896,29.472c-0.153,0.153-0.23,0.329-0.23,0.528s0.077,0.375,0.23,0.528l10.695,10.694
				c0.153,0.154,0.329,0.23,0.528,0.23c0.2,0,0.375-0.076,0.528-0.23l1.147-1.146c0.153-0.152,0.23-0.328,0.23-0.527
				s-0.077-0.375-0.23-0.529L13.774,30l9.02-9.02C22.948,20.828,23.024,20.651,23.024,20.453z"/>
			<path fill="#5DAB46" d="M51.436,29.472L40.742,18.777c-0.154-0.153-0.33-0.229-0.529-0.229s-0.373,0.077-0.527,0.229
				l-1.146,1.147c-0.152,0.153-0.23,0.329-0.23,0.528c0,0.199,0.078,0.375,0.23,0.527l9.02,9.02l-9.02,9.02
				c-0.152,0.154-0.23,0.33-0.23,0.529s0.078,0.375,0.23,0.527l1.146,1.146c0.154,0.154,0.328,0.23,0.527,0.23
				s0.375-0.076,0.529-0.23l10.693-10.694c0.154-0.153,0.23-0.329,0.23-0.528S51.59,29.625,51.436,29.472z"/>
		</g>
	</g>
</g>
</svg>
