<?xml version="1.0" encoding="utf-8"?>
<!-- Generator: Adobe Illustrator 16.0.0, SVG Export Plug-In . SVG Version: 6.00 Build 0)  -->
<!DOCTYPE svg PUBLIC "-//W3C//DTD SVG 1.1//EN" "http://www.w3.org/Graphics/SVG/1.1/DTD/svg11.dtd">
<svg version="1.1" xmlns="http://www.w3.org/2000/svg" xmlns:xlink="http://www.w3.org/1999/xlink" x="0px" y="0px" width="60px"
	 height="60px" viewBox="0 0 60 60" enable-background="new 0 0 60 60" xml:space="preserve">
<g id="Layer_3">
	<g id="Layer_4">
		<polygon fill="#3961AD" points="38.291,18.646 38.521,18.563 48.333,18.563 48.333,27.208 49.771,27.208 48.188,30.542 
			46.229,27.354 47.604,27.354 47.604,19.354 38.291,19.354 		"/>
		<polygon fill="#3961AD" points="12.063,30.156 12.063,19.406 17.5,19.406 17.5,20.906 21.031,18.938 17.5,17.031 17.5,18.563 
			11.313,18.563 11.313,30.281 		"/>
		<polygon fill="#3961AD" points="30.25,25.438 30.25,37.656 24.063,37.656 24.063,39.156 20.75,37.281 24.031,35.313 
			24.063,36.719 29.375,36.719 29.375,25.438 		"/>
	</g>
	<path fill="#3961AD" stroke="#5DAB46" stroke-width="1.4" stroke-miterlimit="10" d="M23.623,12.417c0,0-2.25,0.594-2.25,6.313
		c0,0-0.438,4.906,2.25,6.438h12.719c0,0,2.313-0.531,2.313-6.656c0,0,0-5.219-2.5-6.094H23.623z"/>
	<path fill="#3961AD" stroke="#5DAB46" stroke-width="1.4" stroke-miterlimit="10" d="M5.498,30.667c0,0-2.25,0.594-2.25,6.313
		c0,0-0.438,4.906,2.25,6.438h12.719c0,0,2.313-0.531,2.313-6.656c0,0,0-5.219-2.5-6.094H5.498z"/>
	<path fill="#3961AD" stroke="#5DAB46" stroke-width="1.4" stroke-miterlimit="10" d="M41.686,30.667c0,0-2.25,0.594-2.25,6.313
		c0,0-0.438,4.906,2.25,6.438h12.719c0,0,2.313-0.531,2.313-6.656c0,0,0-5.219-2.5-6.094H41.686z"/>
</g>
<g id="Layer_2">
</g>
</svg>
