<?xml version="1.0" encoding="utf-8"?>
<!-- Generator: Adobe Illustrator 16.0.0, SVG Export Plug-In . SVG Version: 6.00 Build 0)  -->
<!DOCTYPE svg PUBLIC "-//W3C//DTD SVG 1.1//EN" "http://www.w3.org/Graphics/SVG/1.1/DTD/svg11.dtd">
<svg version="1.1" xmlns="http://www.w3.org/2000/svg" xmlns:xlink="http://www.w3.org/1999/xlink" x="0px" y="0px" width="60px"
	 height="60px" viewBox="0 0 60 60" enable-background="new 0 0 60 60" xml:space="preserve">
<g id="Layer_2">
	<g id="Layer_4">
		<circle fill="#3961AD" cx="29.703" cy="36.485" r="17.797"/>
	</g>
	<path fill="#3961AD" d="M25.667,27.667V13.208h-3.875c0,0-1.5-0.458-0.417-1.833l7.583-7.583c0,0,0.792-0.75,1.542,0l7.625,7.708
		c0,0,0.792,1.917-0.625,1.875l-3.792-0.083v14.167C33.708,27.458,29.292,25.5,25.667,27.667z"/>
	<path fill="#3961AD" d="M39.361,37.08l12.439,7.369l1.978-3.334c0,0,1.157-1.057,1.789,0.575l2.657,10.39
		c0,0,0.243,1.064-0.786,1.327l-10.518,2.63c0,0-2.053-0.296-1.294-1.492l2.006-3.221l-12.188-7.22
		C35.444,44.104,39.379,41.303,39.361,37.08z"/>
	<path fill="#3961AD" d="M24.05,44.323L11.617,51.7l1.977,3.333c0,0,0.371,1.524-1.364,1.296L1.838,53.676
		c0,0-1.048-0.298-0.787-1.326l2.738-10.49c0,0,1.243-1.658,1.931-0.419l1.864,3.304l12.183-7.229
		C19.768,37.515,20.337,42.312,24.05,44.323z"/>
</g>
<g id="Layer_5">
	<rect x="23.891" y="16.547" fill="#FFFFFF" width="1.813" height="12.188"/>
	
		<rect x="43.069" y="32.749" transform="matrix(0.4959 -0.8684 0.8684 0.4959 -11.5637 57.7674)" fill="#FFFFFF" width="1.812" height="12.189"/>
	
		<rect x="19.719" y="41.355" transform="matrix(0.5124 0.8588 -0.8588 0.5124 50.8058 5.4262)" fill="#FCFCFC" width="1.813" height="12.188"/>
</g>
<g id="Layer_7">
	<circle fill="none" stroke="#FFFFFF" stroke-width="2" stroke-miterlimit="10" cx="29.62" cy="36.406" r="8.854"/>
</g>
<g id="Layer_6">
</g>
<g id="Layer_3">
	<circle fill="#5DAB46" cx="29.78" cy="36.336" r="7.973"/>
</g>
</svg>
