<?xml version="1.0" encoding="utf-8"?>
<!-- Generator: Adobe Illustrator 16.0.0, SVG Export Plug-In . SVG Version: 6.00 Build 0)  -->
<!DOCTYPE svg PUBLIC "-//W3C//DTD SVG 1.1//EN" "http://www.w3.org/Graphics/SVG/1.1/DTD/svg11.dtd">
<svg version="1.1" xmlns="http://www.w3.org/2000/svg" xmlns:xlink="http://www.w3.org/1999/xlink" x="0px" y="0px" width="60px"
	 height="60px" viewBox="0 0 60 60" enable-background="new 0 0 60 60" xml:space="preserve">
<g id="Layer_2">
	<path fill="#3961AD" d="M25.04,45.912l-1.236-0.457c0.098-0.9,0.064-1.818-0.104-2.732l1.194-0.549
		c0.745-0.344,1.072-1.23,0.729-1.977l-0.697-1.512c-0.344-0.744-1.229-1.072-1.973-0.729l-1.195,0.551
		c-0.583-0.723-1.262-1.344-2.01-1.857l0.457-1.234c0.283-0.77-0.111-1.627-0.881-1.912l-1.563-0.576
		c-0.747-0.275-1.637,0.135-1.911,0.879l-0.457,1.234c-0.899-0.096-1.818-0.064-2.733,0.104l-0.549-1.193
		c-0.344-0.744-1.23-1.072-1.974-0.729l-1.513,0.695c-0.746,0.344-1.072,1.23-0.729,1.975l0.55,1.195
		c-0.722,0.584-1.345,1.26-1.856,2.01l-1.233-0.457c-0.745-0.277-1.637,0.135-1.913,0.881l-0.577,1.563
		c-0.138,0.373-0.122,0.779,0.044,1.139c0.167,0.361,0.464,0.637,0.836,0.771l1.236,0.457c-0.098,0.9-0.066,1.82,0.104,2.734
		L3.89,46.734c-0.746,0.344-1.072,1.23-0.729,1.975l0.697,1.514c0.344,0.744,1.229,1.072,1.973,0.729L7.027,50.4
		c0.584,0.725,1.261,1.346,2.01,1.857L8.58,53.492c-0.138,0.373-0.122,0.775,0.045,1.139c0.165,0.359,0.462,0.637,0.835,0.775
		l1.563,0.576c0.372,0.137,0.777,0.121,1.138-0.045c0.362-0.166,0.637-0.463,0.773-0.836l0.457-1.236
		c0.9,0.098,1.819,0.066,2.732-0.104l0.55,1.193c0.343,0.746,1.229,1.074,1.974,0.73l1.514-0.697
		c0.746-0.344,1.072-1.229,0.729-1.975l-0.55-1.193c0.724-0.584,1.345-1.262,1.855-2.01l1.235,0.457
		c0.375,0.139,0.777,0.119,1.141-0.045c0.359-0.168,0.633-0.465,0.771-0.838l0.576-1.563C26.204,47.055,25.81,46.197,25.04,45.912z
		 M16.854,49.801c-0.781,0.359-1.608,0.539-2.46,0.539c-2.292,0-4.391-1.344-5.348-3.422c-1.357-2.949-0.064-6.453,2.883-7.809
		c0.778-0.359,1.606-0.541,2.458-0.541c2.291,0,4.393,1.344,5.35,3.422C21.095,44.939,19.802,48.441,16.854,49.801z"/>
	<circle fill="#3961AD" cx="14.796" cy="44.504" r="7.317"/>
	<path fill="#5DAB46" d="M39.761,50.172l-0.689-0.252c0.056-0.502,0.037-1.014-0.057-1.523l0.664-0.307
		c0.416-0.189,0.598-0.684,0.406-1.1l-0.388-0.842c-0.193-0.416-0.686-0.6-1.1-0.406l-0.666,0.307
		c-0.324-0.402-0.703-0.75-1.118-1.033l0.253-0.688c0.158-0.43-0.062-0.906-0.49-1.066l-0.871-0.322
		c-0.414-0.152-0.91,0.076-1.064,0.49l-0.253,0.689c-0.501-0.055-1.013-0.035-1.521,0.057l-0.307-0.662
		c-0.191-0.416-0.684-0.6-1.1-0.408l-0.842,0.389c-0.416,0.193-0.598,0.686-0.406,1.1l0.306,0.666
		c-0.402,0.326-0.749,0.703-1.034,1.119l-0.688-0.254c-0.414-0.154-0.91,0.074-1.063,0.49l-0.321,0.871
		c-0.077,0.207-0.067,0.434,0.023,0.635c0.094,0.199,0.259,0.354,0.467,0.43l0.688,0.254c-0.055,0.502-0.037,1.014,0.058,1.521
		l-0.664,0.307c-0.415,0.191-0.597,0.684-0.405,1.1l0.387,0.844c0.191,0.414,0.684,0.596,1.1,0.404l0.666-0.305
		c0.324,0.402,0.701,0.748,1.119,1.031l-0.254,0.688c-0.077,0.209-0.068,0.434,0.023,0.635c0.094,0.201,0.259,0.354,0.467,0.432
		l0.87,0.32c0.207,0.078,0.433,0.068,0.634-0.023s0.354-0.258,0.43-0.465l0.255-0.689c0.501,0.055,1.013,0.037,1.521-0.057
		l0.306,0.664c0.191,0.414,0.685,0.598,1.1,0.406l0.842-0.389c0.416-0.191,0.598-0.686,0.406-1.1l-0.306-0.664
		c0.401-0.326,0.749-0.703,1.033-1.119l0.688,0.252c0.208,0.078,0.434,0.068,0.635-0.025c0.2-0.09,0.354-0.258,0.431-0.465
		l0.32-0.871C40.407,50.809,40.188,50.33,39.761,50.172z M35.202,52.338c-0.435,0.199-0.896,0.301-1.37,0.301
		c-1.275,0-2.444-0.75-2.978-1.906c-0.756-1.641-0.037-3.592,1.606-4.346c0.433-0.201,0.893-0.303,1.368-0.303
		c1.275,0,2.444,0.748,2.978,1.906C37.562,49.631,36.843,51.58,35.202,52.338z"/>
	<g id="Layer_7">
	</g>
	<path fill="#5DAB46" d="M55.363,23.979l-2.077-0.767c0.163-1.515,0.109-3.061-0.176-4.597l2.008-0.923
		c1.253-0.576,1.802-2.067,1.225-3.321l-1.171-2.543c-0.578-1.253-2.066-1.805-3.317-1.227l-2.011,0.927
		c-0.98-1.216-2.12-2.26-3.377-3.122l0.766-2.076c0.478-1.294-0.186-2.737-1.479-3.215l-2.628-0.972
		c-1.253-0.46-2.751,0.229-3.215,1.481l-0.767,2.078C37.63,5.54,36.084,5.594,34.55,5.876l-0.926-2.005
		c-0.576-1.254-2.065-1.804-3.318-1.227l-2.544,1.171c-1.253,0.578-1.804,2.068-1.228,3.32l0.926,2.007
		c-1.213,0.983-2.26,2.123-3.121,3.381l-2.074-0.768c-1.252-0.466-2.752,0.225-3.215,1.479l-0.97,2.629
		c-0.233,0.627-0.204,1.307,0.073,1.914c0.283,0.606,0.783,1.068,1.406,1.297l2.078,0.77c-0.164,1.513-0.11,3.06,0.175,4.596
		l-2.008,0.924c-1.253,0.578-1.802,2.066-1.225,3.318l1.171,2.545c0.578,1.252,2.066,1.805,3.319,1.225l2.007-0.924
		c0.982,1.215,2.123,2.26,3.381,3.121l-0.768,2.076c-0.232,0.625-0.205,1.307,0.074,1.914c0.279,0.605,0.779,1.068,1.404,1.303
		l2.629,0.969c0.626,0.23,1.307,0.203,1.913-0.074c0.607-0.279,1.069-0.779,1.3-1.406l0.769-2.078
		c1.514,0.164,3.059,0.111,4.596-0.174l0.924,2.008c0.576,1.252,2.067,1.803,3.32,1.225l2.543-1.172
		c1.255-0.578,1.803-2.066,1.226-3.318l-0.926-2.008c1.216-0.984,2.262-2.121,3.121-3.379l2.078,0.768
		c0.626,0.232,1.307,0.205,1.915-0.076c0.605-0.278,1.066-0.779,1.298-1.404l0.972-2.628C57.322,25.898,56.657,24.456,55.363,23.979
		z M41.602,30.515c-1.311,0.602-2.702,0.909-4.135,0.909c-3.854,0-7.381-2.259-8.992-5.756c-2.282-4.956-0.106-10.844,4.847-13.126
		c1.31-0.604,2.702-0.909,4.134-0.909c3.852,0,7.383,2.258,8.993,5.753C48.73,22.344,46.557,28.233,41.602,30.515z"/>
	<circle fill="#3961AD" cx="37.621" cy="21.747" r="12.003"/>
</g>
<g id="Layer_3">
	<g>
		<circle fill="#5DAB46" cx="40.544" cy="40.717" r="8.646"/>
		<path fill="#3961AD" d="M51.188,40.594C51.188,34.743,46.445,30,40.595,30S30,34.743,30,40.594c0,5.85,4.744,10.593,10.594,10.593
			S51.188,46.443,51.188,40.594z M40.595,48.538c-4.382,0-7.945-3.563-7.945-7.944c0-4.382,3.563-7.945,7.945-7.945
			c4.381,0,7.945,3.563,7.945,7.945C48.54,44.975,44.976,48.538,40.595,48.538z"/>
		<path fill="#3961AD" d="M57.475,53.729l-6.481-6.481c-0.966,1.502-2.243,2.779-3.745,3.745l6.481,6.481
			c1.034,1.034,2.712,1.034,3.745,0C58.509,56.44,58.509,54.764,57.475,53.729z"/>
	</g>
</g>
<g id="Layer_6">
</g>
<g id="Layer_5">
	<text transform="matrix(1 0 0 1 29.125 24.125)" fill="#FFFFFF" font-family="'MyriadPro-Bold'" font-size="8">Task</text>
	<text transform="matrix(1 0 0 1 7.9375 46.9375)" fill="#FFFFFF" font-family="'MyriadPro-Bold'" font-size="8">API</text>
	<text transform="matrix(1 0 0 1 36.625 43.625)" fill="#FFFFFF" font-family="'MyriadPro-Bold'" font-size="8">UI</text>
</g>
</svg>
