<?xml version="1.0" encoding="utf-8"?>
<!-- Generator: Adobe Illustrator 16.0.0, SVG Export Plug-In . SVG Version: 6.00 Build 0)  -->
<!DOCTYPE svg PUBLIC "-//W3C//DTD SVG 1.1//EN" "http://www.w3.org/Graphics/SVG/1.1/DTD/svg11.dtd">
<svg version="1.1" id="Layer_2" xmlns="http://www.w3.org/2000/svg" xmlns:xlink="http://www.w3.org/1999/xlink" x="0px" y="0px"
	 width="60px" height="60px" viewBox="0 0 60 60" enable-background="new 0 0 60 60" xml:space="preserve">
<g id="Layer_3">
</g>
<rect x="12" y="39.375" fill="#3961AD" width="37.875" height="15.875"/>
<g id="Layer_4">
	<polygon fill="#5DAB46" points="12,4.625 14.875,3.25 36.875,3.25 48.625,15 49.875,39.375 12,39.375 11,37.75 	"/>
</g>
<path fill="#3961AD" d="M37.953,1.106H15.105c-3.341,0-6.056,2.717-6.056,6.055v44.783c0,3.339,2.715,6.056,6.056,6.056h31.176
	c3.337,0,6.056-2.717,6.056-6.056V15.438L37.953,1.106z M46.281,54.291H15.105c-1.295,0-2.348-1.052-2.348-2.347V7.162
	c0-1.292,1.053-2.343,2.348-2.343l21.461-0.022v7.932c0,2.319,1.882,4.201,4.2,4.201l7.772-0.022l0.086,35.039
	C48.625,53.239,47.576,54.291,46.281,54.291z"/>
<g>
	<g>
		<path fill="#FFFFFF" d="M43.123,26.117l-6.556-6.558c-0.204-0.203-0.565-0.203-0.769,0l-1.422,1.422
			c-0.212,0.212-0.212,0.558,0,0.77l4.751,4.749l-4.751,4.752c-0.212,0.213-0.212,0.557,0,0.77l1.422,1.421
			c0.102,0.102,0.241,0.158,0.384,0.158c0.144,0,0.283-0.057,0.385-0.158l6.556-6.557C43.336,26.673,43.336,26.329,43.123,26.117z"
			/>
		<path fill="#FFFFFF" d="M26.499,31.252l-4.751-4.75l4.751-4.751c0.101-0.102,0.16-0.241,0.16-0.385s-0.057-0.282-0.16-0.383
			l-1.422-1.421c-0.101-0.103-0.241-0.16-0.383-0.16c-0.144,0-0.284,0.057-0.385,0.16l-6.557,6.556
			c-0.212,0.212-0.212,0.556,0,0.769l6.557,6.556c0.102,0.103,0.239,0.159,0.384,0.159c0.144,0,0.284-0.057,0.385-0.159l1.422-1.422
			C26.71,31.809,26.71,31.465,26.499,31.252z"/>
		<path fill="#FFFFFF" d="M34.165,17.354c-0.068-0.127-0.184-0.22-0.323-0.262l-1.152-0.339c-0.287-0.085-0.589,0.079-0.675,0.368
			l-5.35,18.116c-0.041,0.138-0.025,0.287,0.044,0.414c0.068,0.126,0.186,0.22,0.323,0.261l1.152,0.341
			c0.052,0.015,0.103,0.022,0.153,0.022c0.235,0,0.452-0.153,0.521-0.39l5.35-18.118C34.251,17.629,34.234,17.48,34.165,17.354z"/>
	</g>
</g>
<text transform="matrix(1 0 0 1 18.375 53.375)" fill="#FFFFFF" font-family="'MyriadPro-Bold'" font-size="14">GPL</text>
</svg>
