<?xml version="1.0" standalone="no"?>
<!DOCTYPE svg PUBLIC "-//W3C//DTD SVG 20010904//EN"
 "http://www.w3.org/TR/2001/REC-SVG-20010904/DTD/svg10.dtd">
<svg version="1.0" xmlns="http://www.w3.org/2000/svg"
 width="260.000000pt" height="260.000000pt" viewBox="0 0 260.000000 260.000000"
 preserveAspectRatio="xMidYMid meet">
<metadata>
Created by potrace 1.11, written by Peter Selinger 2001-2013
</metadata>
<g transform="translate(0.000000,260.000000) scale(0.100000,-0.100000)"
fill="#000000" stroke="none">
<path d="M795 2511 c-44 -24 -338 -195 -465 -270 -25 -14 -53 -29 -62 -33 -17
-7 -18 -33 -18 -352 l0 -344 282 -163 c156 -89 290 -167 299 -172 11 -7 63 18
210 103 107 62 210 122 229 132 19 11 65 38 103 60 l67 39 0 343 0 343 -127
74 c-71 40 -141 81 -158 90 -16 9 -92 53 -169 98 -76 44 -139 81 -140 80 0 0
-23 -13 -51 -28z"/>
<path d="M1715 1404 c-27 -15 -61 -34 -75 -44 -14 -9 -54 -33 -90 -52 -36 -20
-135 -76 -220 -126 l-155 -90 -1 -341 c0 -232 3 -344 10 -350 10 -8 348 -205
445 -259 25 -14 66 -37 92 -52 l46 -28 69 40 c38 22 92 53 119 68 71 40 398
230 403 235 3 3 5 329 3 606 l-1 85 -52 28 c-29 16 -157 89 -283 162 -127 73
-237 136 -245 139 -8 3 -37 -7 -65 -21z"/>
</g>
</svg>
