<?xml version="1.0" encoding="utf-8"?>
<!-- Generator: Adobe Illustrator 18.0.0, SVG Export Plug-In . SVG Version: 6.00 Build 0)  -->
<!DOCTYPE svg PUBLIC "-//W3C//DTD SVG 1.1//EN" "http://www.w3.org/Graphics/SVG/1.1/DTD/svg11.dtd">
<svg version="1.1" id="Layer_1" xmlns="http://www.w3.org/2000/svg" xmlns:xlink="http://www.w3.org/1999/xlink" x="0px" y="0px"
	 width="40px" height="40px" viewBox="0 0 40 40" enable-background="new 0 0 40 40" xml:space="preserve">
<g id="Layer_2">
	<g>
		<path fill="#FFFFFF" d="M15.2,27l4.9-6.9c0.5-0.7,0.9-1.3,1-1.8c0.2-0.5,0.3-1,0.3-1.4c0-1.7-0.9-2.5-2.8-2.5
			c-0.5,0-1,0.1-1.4,0.1c-0.4,0.1-0.7,0.2-1.1,0.4l-0.5-1.1c0.5-0.3,1-0.4,1.5-0.6c0.5-0.1,1.2-0.2,2-0.2c1.3,0,2.3,0.3,3,1
			s1.1,1.6,1.1,2.6c0,0.5-0.1,1.1-0.4,1.7c-0.3,0.6-0.7,1.4-1.3,2.2l-3.7,5h5.6V27H15.2z"/>
	</g>
	<path fill="none" stroke="#FFFFFF" stroke-width="3" stroke-miterlimit="10" d="M20,37.4L20,37.4c-9.6,0-17.4-7.8-17.4-17.4v0
		c0-9.6,7.8-17.4,17.4-17.4h0c9.6,0,17.4,7.8,17.4,17.4v0C37.4,29.6,29.6,37.4,20,37.4z"/>
</g>
</svg>
