<?xml version="1.0" encoding="utf-8"?>
<!-- Generator: Adobe Illustrator 18.0.0, SVG Export Plug-In . SVG Version: 6.00 Build 0)  -->
<!DOCTYPE svg PUBLIC "-//W3C//DTD SVG 1.1//EN" "http://www.w3.org/Graphics/SVG/1.1/DTD/svg11.dtd">
<svg version="1.1" id="Layer_1" xmlns="http://www.w3.org/2000/svg" xmlns:xlink="http://www.w3.org/1999/xlink" x="0px" y="0px"
	 width="40px" height="40px" viewBox="0 0 40 40" enable-background="new 0 0 40 40" xml:space="preserve">
<g id="Layer_2">
	<g>
		<path fill="#333333" d="M18.8,27.2c-0.8,0-1.5-0.1-2-0.2c-0.5-0.1-1-0.3-1.5-0.5l0.5-1.2c0.3,0.2,0.7,0.3,1.1,0.4s1,0.2,1.5,0.2
			c0.9,0,1.7-0.3,2.2-0.8s0.8-1.2,0.8-2.1c0-1.1-0.4-1.9-1.2-2.3c-0.8-0.4-1.7-0.6-2.8-0.6v-1c1,0,1.9-0.3,2.5-0.8s1-1.2,1-2
			c0-0.7-0.2-1.2-0.7-1.5s-1-0.5-1.7-0.5c-0.5,0-1,0.1-1.4,0.2c-0.5,0.1-0.9,0.2-1.1,0.4l-0.5-1.1c0.4-0.2,0.8-0.4,1.4-0.5
			c0.5-0.1,1.2-0.2,1.9-0.2c1.1,0,2,0.3,2.8,0.8s1.1,1.3,1.1,2.3c0,0.8-0.3,1.5-0.8,2c-0.5,0.5-1.1,0.9-1.7,1.1
			c0.9,0.3,1.6,0.7,2.2,1.3c0.6,0.6,0.9,1.4,0.9,2.5c0,1.2-0.4,2.2-1.3,3C21.2,26.8,20.1,27.2,18.8,27.2z"/>
	</g>
	<path fill="none" stroke="#3760AF" stroke-width="3" stroke-miterlimit="10" d="M20,37.4L20,37.4c-9.6,0-17.4-7.8-17.4-17.4v0
		c0-9.6,7.8-17.4,17.4-17.4h0c9.6,0,17.4,7.8,17.4,17.4v0C37.4,29.6,29.6,37.4,20,37.4z"/>
</g>
</svg>
