<?xml version="1.0" encoding="utf-8"?>
<!-- Generator: Adobe Illustrator 18.0.0, SVG Export Plug-In . SVG Version: 6.00 Build 0)  -->
<!DOCTYPE svg PUBLIC "-//W3C//DTD SVG 1.1//EN" "http://www.w3.org/Graphics/SVG/1.1/DTD/svg11.dtd">
<svg version="1.1" id="Layer_1" xmlns="http://www.w3.org/2000/svg" xmlns:xlink="http://www.w3.org/1999/xlink" x="0px" y="0px"
	 width="40px" height="40px" viewBox="0 0 40 40" enable-background="new 0 0 40 40" xml:space="preserve">
<g id="Layer_2">
	<g>
		<path fill="#333333" d="M22.7,23.9V27h-1.6v-3.1h-5.7v-1.1l5.6-9.5h1.7v9.6h1.1v1H22.7z M20.1,17l-3.4,5.9h4.4V17v-2
			c-0.1,0.1-0.2,0.3-0.3,0.6S20.4,16.4,20.1,17z"/>
	</g>
	<path fill="none" stroke="#3760AF" stroke-width="3" stroke-miterlimit="10" d="M20,37.4L20,37.4c-9.6,0-17.4-7.8-17.4-17.4v0
		c0-9.6,7.8-17.4,17.4-17.4h0c9.6,0,17.4,7.8,17.4,17.4v0C37.4,29.6,29.6,37.4,20,37.4z"/>
</g>
</svg>
