<?xml version="1.0" encoding="utf-8"?>
<!-- Generator: Adobe Illustrator 18.0.0, SVG Export Plug-In . SVG Version: 6.00 Build 0)  -->
<!DOCTYPE svg PUBLIC "-//W3C//DTD SVG 1.1//EN" "http://www.w3.org/Graphics/SVG/1.1/DTD/svg11.dtd">
<svg version="1.1" id="Layer_1" xmlns="http://www.w3.org/2000/svg" xmlns:xlink="http://www.w3.org/1999/xlink" x="0px" y="0px"
	 width="40px" height="40px" viewBox="0 0 40 40" enable-background="new 0 0 40 40" xml:space="preserve">
<g id="Layer_2">
	<g>
		<path fill="#333333" d="M19.7,27.2c-1.4,0-2.4-0.5-3.1-1.4c-0.7-0.9-1.1-2.2-1.1-3.8c0-1.9,0.4-3.5,1.2-4.7
			c0.8-1.3,1.7-2.2,2.7-2.9c1-0.7,1.9-1.1,2.8-1.3l0.5,1.2c-1.1,0.4-2.1,0.9-3,1.6c-0.9,0.7-1.6,1.8-2.1,3.2
			c0.3-0.1,0.6-0.2,0.9-0.3c0.3-0.1,0.6-0.1,1-0.1c1.3,0,2.3,0.4,3.1,1.1c0.8,0.7,1.2,1.8,1.2,3.1c0,1.2-0.4,2.2-1.1,3
			C22.1,26.8,21.1,27.2,19.7,27.2z M19.2,19.8c-0.4,0-0.7,0-1,0.1s-0.6,0.2-0.8,0.2c-0.1,0.3-0.1,0.6-0.1,0.9c0,0.3,0,0.6,0,1
			c0,1.2,0.2,2.2,0.6,2.9s1.1,1,2,1c0.8,0,1.4-0.3,1.8-0.9c0.4-0.6,0.6-1.3,0.6-2.2c0-1-0.2-1.8-0.7-2.3S20.2,19.8,19.2,19.8z"/>
	</g>
	<path fill="none" stroke="#3760AF" stroke-width="3" stroke-miterlimit="10" d="M20,37.4L20,37.4c-9.6,0-17.4-7.8-17.4-17.4v0
		c0-9.6,7.8-17.4,17.4-17.4h0c9.6,0,17.4,7.8,17.4,17.4v0C37.4,29.6,29.6,37.4,20,37.4z"/>
</g>
</svg>
