<?xml version="1.0" encoding="utf-8"?>
<!-- Generator: Adobe Illustrator 18.0.0, SVG Export Plug-In . SVG Version: 6.00 Build 0)  -->
<!DOCTYPE svg PUBLIC "-//W3C//DTD SVG 1.1//EN" "http://www.w3.org/Graphics/SVG/1.1/DTD/svg11.dtd">
<svg version="1.1" xmlns="http://www.w3.org/2000/svg" xmlns:xlink="http://www.w3.org/1999/xlink" x="0px" y="0px" width="368px"
	 height="120px" viewBox="0 0 368 120" enable-background="new 0 0 368 120" xml:space="preserve">
<g id="Layer_1">
	<g>
		<g enable-background="new    ">
			<path fill="#3961AD" d="M101.9,62.5c0,2.5-0.5,4.8-1.4,6.7s-2.2,3.5-3.9,4.8c-1.9,1.5-4,2.6-6.3,3.2c-2.3,0.6-5.2,1-8.7,1H61.2
				V27.2h18c3.7,0,6.6,0.1,8.5,0.4c1.9,0.3,3.7,0.9,5.4,1.8c1.8,1,3.2,2.3,4.1,3.9c0.9,1.6,1.4,3.5,1.4,5.7c0,2.5-0.6,4.7-1.9,6.6
				c-1.2,1.9-3,3.4-5.1,4.3v0.3c3.1,0.7,5.7,2,7.6,4.1C100.9,56.3,101.9,59.1,101.9,62.5z M85.5,41.6c0-0.8-0.2-1.7-0.6-2.5
				c-0.4-0.9-1.1-1.5-2-1.9c-0.8-0.4-1.8-0.6-3-0.6c-1.2,0-2.9-0.1-5.1-0.1h-0.9v10.8h1.6c2.2,0,3.7,0,4.6-0.1
				c0.9,0,1.8-0.3,2.7-0.7c1-0.5,1.7-1.1,2.1-2C85.3,43.7,85.5,42.7,85.5,41.6z M88.7,62.3c0-1.6-0.3-2.8-1-3.7
				c-0.6-0.9-1.6-1.6-2.9-2c-0.8-0.3-1.8-0.5-3.2-0.5c-1.4,0-3.2-0.1-5.5-0.1h-2.4v12.7h0.7c3.3,0,5.6,0,6.9-0.1
				c1.3,0,2.6-0.4,3.9-0.9c1.2-0.5,2-1.2,2.5-2.2C88.4,64.6,88.7,63.5,88.7,62.3z"/>
			<path fill="#3961AD" d="M128.1,79.1c-7.2,0-12.8-1.7-16.7-5.2c-3.9-3.5-5.8-8.4-5.8-14.8c0-6.3,1.8-11.3,5.4-15
				c3.6-3.7,8.6-5.6,15.1-5.6c5.9,0,10.3,1.6,13.3,4.8c3,3.2,4.4,7.7,4.4,13.6v4.3h-26.2c0.1,1.8,0.5,3.3,1.1,4.5
				c0.6,1.2,1.5,2.1,2.5,2.9c1,0.7,2.2,1.2,3.6,1.5c1.4,0.3,2.9,0.5,4.5,0.5c1.4,0,2.8-0.2,4.1-0.5c1.3-0.3,2.6-0.7,3.7-1.2
				c1-0.4,1.9-0.9,2.7-1.4c0.8-0.5,1.5-0.9,2-1.3h1.3v9.9c-1,0.4-1.9,0.7-2.7,1.1c-0.8,0.3-1.9,0.7-3.3,1c-1.3,0.3-2.6,0.6-4,0.8
				C131.8,79,130.1,79.1,128.1,79.1z M132.1,54c-0.1-2.5-0.7-4.5-1.8-5.8c-1.1-1.3-2.8-2-5.1-2c-2.3,0-4.1,0.7-5.5,2.1
				c-1.3,1.4-2,3.3-2.2,5.7H132.1z"/>
			<path fill="#3961AD" d="M169.7,79.1c-7.2,0-12.8-1.7-16.7-5.2c-3.9-3.5-5.8-8.4-5.8-14.8c0-6.3,1.8-11.3,5.4-15
				c3.6-3.7,8.6-5.6,15.1-5.6c5.9,0,10.3,1.6,13.3,4.8c3,3.2,4.4,7.7,4.4,13.6v4.3h-26.2c0.1,1.8,0.5,3.3,1.1,4.5
				c0.6,1.2,1.5,2.1,2.5,2.9c1,0.7,2.2,1.2,3.6,1.5c1.4,0.3,2.9,0.5,4.5,0.5c1.4,0,2.8-0.2,4.1-0.5c1.3-0.3,2.6-0.7,3.7-1.2
				c1-0.4,1.9-0.9,2.7-1.4c0.8-0.5,1.5-0.9,2-1.3h1.3v9.9c-1,0.4-1.9,0.7-2.7,1.1c-0.8,0.3-1.9,0.7-3.3,1c-1.3,0.3-2.6,0.6-4,0.8
				C173.4,79,171.7,79.1,169.7,79.1z M173.7,54c-0.1-2.5-0.7-4.5-1.8-5.8c-1.1-1.3-2.8-2-5.1-2c-2.3,0-4.1,0.7-5.5,2.1
				c-1.3,1.4-2,3.3-2.2,5.7H173.7z"/>
		</g>
		<g enable-background="new    ">
			<path fill="#5DAB46" d="M233.1,80.1h-12.8V57.5h-17.4v22.6h-12.8V29.2h12.8v18.6h17.4V29.2h12.8V80.1z"/>
			<path fill="#5DAB46" d="M278.8,41.7l-19.4,52.5h-12.9l5.8-15l-14.1-37.5h12.6l8.1,24.1l7.6-24.1H278.8z"/>
			<path fill="#5DAB46" d="M319.2,41.7l-13.8,38.4h-13.1l-13.7-38.4h12.6l7.9,25.4l7.8-25.4H319.2z"/>
		</g>
	</g>
	<g id="Layer_2">
		<polygon fill="#5DAB46" points="5.5,70 17.7,63 29.8,70 29.8,84.1 17.6,91 5.5,84 		"/>
		<polygon fill="#5DAB46" points="2.7,39.7 12.7,34.4 22.2,40.5 21.7,51.7 11.7,56.9 2.2,50.9 		"/>
		<polygon fill="#5DAB46" points="18.5,18.3 26,14.4 33.2,18.9 32.8,27.4 25.3,31.3 18.1,26.8 		"/>
		<polygon fill="#5DAB46" points="43.2,6.5 48.4,3.2 53.8,6.1 54.1,12.3 48.8,15.5 43.4,12.6 		"/>
		<polygon fill="#5DAB46" points="67.2,4.2 71.3,1.7 75.6,4.1 75.7,8.9 71.5,11.4 67.2,9 		"/>
	</g>
	<g id="Layer_3">
		<polygon fill="#3961AD" points="355.4,37.4 344.2,45.9 331.3,40.5 329.5,26.6 340.7,18.1 353.6,23.5 		"/>
		<polygon fill="#3961AD" points="365.8,64.7 356.8,71.5 346.4,67.2 345,56 354,49.2 364.3,53.6 		"/>
		<polygon fill="#3961AD" points="356.4,89.2 349.7,94.3 341.8,91 340.7,82.6 347.5,77.4 355.3,80.7 		"/>
		<polygon fill="#3961AD" points="335.2,106.7 330.3,110.5 324.6,108.1 323.8,102 328.8,98.2 334.4,100.6 		"/>
		<polygon fill="#3961AD" points="312.7,115 308.8,117.9 304.4,116 303.8,111.2 307.6,108.3 312.1,110.1 		"/>
	</g>
</g>
<g id="Layer_4">
</g>
</svg>
