<?xml version="1.0" encoding="utf-8"?>
<!-- Generator: Adobe Illustrator 18.0.0, SVG Export Plug-In . SVG Version: 6.00 Build 0)  -->
<!DOCTYPE svg PUBLIC "-//W3C//DTD SVG 1.1//EN" "http://www.w3.org/Graphics/SVG/1.1/DTD/svg11.dtd">
<svg version="1.1" xmlns="http://www.w3.org/2000/svg" xmlns:xlink="http://www.w3.org/1999/xlink" x="0px" y="0px" width="60px"
	 height="60px" viewBox="0 0 60 60" enable-background="new 0 0 60 60" xml:space="preserve">
<g id="Layer_2" display="none">
	<g id="Layer_1" display="inline">
	</g>
	
		<image display="inline" overflow="visible" width="50" height="50" xlink:href="../images/Factsheet-Certified.png"  transform="matrix(1 0 0 1 5 5)">
	</image>
</g>
<g id="Layer_3">
	<g>
		<path fill="#5DAB34" d="M1.3,34.5v3.3c0,1.4,1.2,2.6,2.6,2.6h2c0.5,0,1.2,0.5,1.4,1.1C7.6,42,7.8,42.6,8,43.1
			c0.3,0.6,0.2,1.4-0.2,1.7l-1.4,1.4c-1,1-1,2.7,0,3.7l2.3,2.3c0.5,0.5,1.1,0.8,1.8,0.8c0.7,0,1.3-0.3,1.8-0.8l1.4-1.4
			c0.2-0.2,0.6-0.4,1-0.4c0.3,0,0.5,0.1,0.7,0.2c0.5,0.3,1.1,0.5,1.6,0.7c0.6,0.2,1.1,0.8,1.1,1.4v2c0,1.4,1.2,2.6,2.6,2.6h3.3
			c1.4,0,2.6-1.2,2.6-2.6v-2c0-0.5,0.5-1.2,1.1-1.4c0.5-0.2,1.1-0.4,1.6-0.7c0.2-0.1,0.5-0.2,0.7-0.2c0.4,0,0.8,0.1,1,0.4l1.4,1.4
			c0.5,0.5,1.1,0.8,1.8,0.8c0.7,0,1.3-0.3,1.8-0.8l2.3-2.4c1-1,1-2.7,0-3.7l-1.4-1.4c-0.4-0.4-0.5-1.2-0.2-1.7
			c0.3-0.5,0.5-1.1,0.7-1.6c0.2-0.6,0.8-1.1,1.4-1.1h2c1.4,0,2.6-1.2,2.6-2.6v-3.3c0-1.4-1.2-2.6-2.6-2.6h-2c-0.5,0-1.2-0.5-1.4-1.1
			c-0.2-0.5-0.4-1.1-0.7-1.6c-0.3-0.6-0.2-1.4,0.2-1.7l1.4-1.4c0.5-0.5,0.8-1.1,0.8-1.8c0-0.7-0.3-1.3-0.8-1.8l-2.3-2.3
			c-0.5-0.5-1.1-0.8-1.8-0.8c-0.7,0-1.3,0.3-1.8,0.8l-1.4,1.4c-0.2,0.2-0.6,0.4-1,0.4c-0.3,0-0.5-0.1-0.7-0.2
			c-0.5-0.3-1.1-0.5-1.6-0.7c-0.6-0.2-1.1-0.8-1.1-1.4v-2c0-1.4-1.2-2.6-2.6-2.6h-3.3c-1.4,0-2.6,1.2-2.6,2.6v2
			c0,0.5-0.5,1.2-1.1,1.4c-0.5,0.2-1.1,0.4-1.6,0.7c-0.2,0.1-0.5,0.2-0.7,0.2c-0.4,0-0.8-0.1-1-0.4l-1.4-1.4
			c-0.5-0.5-1.1-0.8-1.8-0.8c-0.7,0-1.3,0.3-1.8,0.8l-2.3,2.3c-1,1-1,2.7,0,3.7l1.4,1.4c0.4,0.4,0.5,1.2,0.2,1.7
			c-0.3,0.5-0.5,1.1-0.7,1.6c-0.2,0.6-0.8,1.1-1.4,1.1h-2C2.5,31.9,1.3,33,1.3,34.5z M22.6,28.5c4.2,0,7.6,3.4,7.6,7.6
			c0,4.2-3.4,7.6-7.6,7.6c-4.2,0-7.6-3.4-7.6-7.6C14.9,31.9,18.4,28.5,22.6,28.5z"/>
		<path fill="#3760AF" d="M38.7,16.1c0.1,0.1,0,0.3,0,0.4l-0.7,0.7c-0.7,0.7-0.7,1.8,0,2.4l1.2,1.2c0.3,0.3,0.8,0.5,1.2,0.5
			s0.9-0.2,1.2-0.5l0.7-0.7c0,0,0.1-0.1,0.2-0.1c0.1,0,0.1,0,0.2,0c0.3,0.1,0.6,0.3,0.9,0.4c0.1,0,0.3,0.2,0.3,0.3v1
			c0,1,0.8,1.7,1.7,1.7h1.7c1,0,1.7-0.8,1.7-1.7v-1c0-0.1,0.1-0.2,0.3-0.3c0.3-0.1,0.6-0.2,0.9-0.4c0,0,0.1,0,0.2,0
			c0.1,0,0.2,0,0.2,0.1l0.7,0.7c0.3,0.3,0.8,0.5,1.2,0.5s0.9-0.2,1.2-0.5l1.2-1.2c0.3-0.3,0.5-0.8,0.5-1.2c0-0.5-0.2-0.9-0.5-1.2
			L54,16.4c-0.1-0.1-0.1-0.2,0-0.4c0.1-0.3,0.3-0.6,0.4-0.9c0-0.1,0.2-0.3,0.3-0.3h1c1,0,1.7-0.8,1.7-1.7v-1.7c0-1-0.8-1.7-1.7-1.7
			h-1c-0.1,0-0.2-0.1-0.3-0.3c-0.1-0.3-0.2-0.6-0.4-0.9c-0.1-0.1,0-0.3,0-0.4l0.7-0.7c0.7-0.7,0.7-1.8,0-2.4L53.5,4
			c-0.3-0.3-0.8-0.5-1.2-0.5S51.4,3.7,51.1,4l-0.7,0.7c0,0-0.1,0.1-0.2,0.1c-0.1,0-0.1,0-0.2,0c-0.3-0.1-0.6-0.3-0.9-0.4
			c-0.1,0-0.3-0.2-0.3-0.3v-1c0-1-0.8-1.7-1.7-1.7h-1.7c-1,0-1.7,0.8-1.7,1.7v1c0,0.1-0.1,0.2-0.3,0.3c-0.3,0.1-0.6,0.2-0.9,0.4
			c0,0-0.1,0-0.2,0c-0.1,0-0.2,0-0.2-0.1L41.5,4c-0.3-0.3-0.8-0.5-1.2-0.5c-0.5,0-0.9,0.2-1.2,0.5l-1.2,1.2c-0.7,0.7-0.7,1.8,0,2.4
			l0.7,0.7c0.1,0.1,0.1,0.2,0,0.4c-0.1,0.3-0.3,0.6-0.4,0.9c0,0.1-0.2,0.3-0.3,0.3h-1c-1,0-1.7,0.8-1.7,1.7v1.7c0,1,0.8,1.7,1.7,1.7
			h1c0.1,0,0.2,0.1,0.3,0.3C38.4,15.5,38.5,15.8,38.7,16.1z M46.3,9c1.9,0,3.4,1.5,3.4,3.4s-1.5,3.4-3.4,3.4c-1.9,0-3.4-1.5-3.4-3.4
			C42.9,10.5,44.4,9,46.3,9z"/>
	</g>
</g>
</svg>
