<?xml version="1.0" encoding="utf-8"?>
<!-- Generator: Adobe Illustrator 18.0.0, SVG Export Plug-In . SVG Version: 6.00 Build 0)  -->
<!DOCTYPE svg PUBLIC "-//W3C//DTD SVG 1.1//EN" "http://www.w3.org/Graphics/SVG/1.1/DTD/svg11.dtd">
<svg version="1.1" id="Layer_1" xmlns="http://www.w3.org/2000/svg" xmlns:xlink="http://www.w3.org/1999/xlink" x="0px" y="0px"
	 width="60px" height="60px" viewBox="0 0 60 60" enable-background="new 0 0 60 60" xml:space="preserve">
<g>
	<g>
		<g>
			<g>
				<path fill="#3760AF" d="M6.1,33.7c0,0.7,0.4,1.3,1,1.5l2.8,1c0.2-0.5,0.5-1,0.9-1.4c0.8-0.8,1.9-1.3,3.1-1.3
					c1.2,0,2.3,0.5,3.1,1.3l8.7,8.7c1.2,1.2,1.6,3,1,4.5c1.3,0.9,3,1.1,4.4,0.4l12-6c2-1,2.8-3.2,2.1-5.1c0,0,0,0,0,0
					c-1.6,0-3.1-0.7-4.1-1.9L33,25.5l-1.2,1.2c-0.8,0.8-1.9,1.3-3,1.3c-1.2,0-2.2-0.4-3-1.3l-0.4-0.4c-0.8-0.8-1.3-1.9-1.3-3
					c0-1.2,0.4-2.2,1.3-3l3.3-3.3l-0.7-0.8c-1.3-1.5-3.4-2-5.2-1.1l-9,4.5l-5.5-2.2c-1-0.4-2.2,0.3-2.2,1.5L6.1,33.7L6.1,33.7z"/>
				<path fill="#5DAB34" d="M53.9,33.1V20.9c0-0.9-0.7-1.6-1.6-1.6h-7l-7.2-5.2c-0.7-0.5-1.6-0.8-2.5-0.8c-1.1,0-2.2,0.4-3,1.2
					l-3.3,3.3L26.1,21c-1.2,1.2-1.2,3.2,0,4.5l0.4,0.4c0.6,0.6,1.4,0.9,2.2,0.9c0.8,0,1.6-0.3,2.2-0.9l2-2l9,10.8
					c0.7,0.8,1.6,1.3,2.6,1.5c0.2,0,0.4,0,0.6,0c0.3,0,0.6,0,0.9-0.1l6.4-1.4C53.4,34.5,53.9,33.8,53.9,33.1z"/>
				<path fill="#3760AF" d="M20.4,48.9c0.6,0.6,1.5,0.9,2.3,0.9c0.8,0,1.7-0.3,2.3-0.9c0.5-0.5,0.8-1.1,0.9-1.7
					c0.2-1-0.1-2.1-0.9-2.8l-8.7-8.7c-0.6-0.6-1.5-0.9-2.3-0.9c-0.8,0-1.7,0.3-2.3,0.9l0,0c-0.3,0.3-0.5,0.6-0.7,1
					c-0.5,1.2-0.3,2.6,0.7,3.6L20.4,48.9z"/>
			</g>
		</g>
	</g>
	<rect x="55.8" y="13.3" fill="#4D4D4D" width="2.2" height="36.6"/>
	<rect x="1.7" y="13.3" fill="#4D4D4D" width="2.2" height="36.6"/>
</g>
</svg>
