<?xml version="1.0" encoding="utf-8"?>
<!-- Generator: Adobe Illustrator 18.0.0, SVG Export Plug-In . SVG Version: 6.00 Build 0)  -->
<!DOCTYPE svg PUBLIC "-//W3C//DTD SVG 1.1//EN" "http://www.w3.org/Graphics/SVG/1.1/DTD/svg11.dtd">
<svg version="1.1" id="Layer_2" xmlns="http://www.w3.org/2000/svg" xmlns:xlink="http://www.w3.org/1999/xlink" x="0px" y="0px"
	 width="60px" height="60px" viewBox="0 0 60 60" enable-background="new 0 0 60 60" xml:space="preserve">
<g id="Layer_1">
</g>
<g>
	<path fill="#3760AF" d="M46.4,29.2l-2.6-0.5c-0.1-0.2-0.3-0.3-0.5-0.4c0.2-0.2,0.4-0.5,0.5-0.7c0.3-0.5,0.6-1,0.8-1.4
		c0.1-0.2,0.2-0.4,0.2-0.6c0.2-0.2,0.4-0.5,0.4-0.8V24c0-0.2-0.1-0.5-0.2-0.6v-1.1c0-2-1.6-3.6-3.6-3.6h-1.2c-2,0-3.6,1.6-3.6,3.6
		v1.1c-0.1,0.2-0.2,0.4-0.2,0.6v0.8c0,0.3,0.1,0.6,0.4,0.8c0.1,0.2,0.1,0.4,0.2,0.6c0.2,0.5,0.4,1,0.8,1.4c0.1,0.2,0.3,0.4,0.5,0.7
		c-0.2,0.1-0.3,0.2-0.5,0.4l-2.5,0.5c0,0,0,0,0,0.1c0,0.1-0.1,0.2-0.1,0.4c-0.1,0.2-0.1,0.4-0.2,0.5l0.8,0.2
		c1.5,0.3,2.5,1.6,2.5,3.1v9.4c0,0.3,0,0.6-0.1,0.9v0.7c0,1.2-0.8,2.3-1.8,2.7v5.3c0,1.3,1,2.3,2.3,2.3c1.3,0,2.3-1,2.3-2.3
		c0,1.3,1,2.3,2.3,2.3c1.3,0,2.3-1,2.3-2.3v-9.7c0.2,0.1,0.4,0.2,0.7,0.2c0.7,0,1.3-0.6,1.3-1.3v-1c0.1-0.2,0.1-0.4,0.1-0.6v-9.4
		C47.6,30,47.1,29.4,46.4,29.2z M40.2,31.6c0,0.1-0.1,0.2-0.2,0.2c0,0,0,0-0.1,0c-0.1,0-0.1,0-0.2-0.1l-0.6-0.9c0,0,0-0.1,0-0.1
		l0-1.4c0-0.1,0-0.2,0.1-0.2c0.1,0,0.2,0,0.2,0c0.2,0.1,0.4,0.2,0.6,0.2c0.1,0,0.2,0.1,0.2,0.2v0.6c0,0,0.1,0,0.1,0.1
		c0,0,0.1,0.1,0.1,0.2L40.2,31.6z M42.6,30.9L42,31.7c0,0.1-0.1,0.1-0.2,0.1c0,0,0,0-0.1,0c-0.1,0-0.2-0.1-0.2-0.2l-0.1-1.2
		c0-0.1,0-0.1,0.1-0.2c0,0,0.1,0,0.1-0.1v-0.6c0-0.1,0.1-0.2,0.2-0.2c0.2,0,0.4-0.1,0.6-0.2c0.1,0,0.2,0,0.2,0
		c0.1,0,0.1,0.1,0.1,0.2l0,1.4C42.7,30.8,42.6,30.8,42.6,30.9z M42.8,27c-0.6,0.8-1.1,1.2-1.4,1.2h-1.2c-0.3,0-0.8-0.4-1.4-1.2
		c-0.4-0.6-0.7-1.3-0.8-1.9l0-0.1l-0.2-0.1c-0.1,0-0.1-0.1-0.1-0.2v-0.4c0-0.1,0.1-0.2,0.2-0.2h0.1v-0.4c0-0.1,0-0.2,0.1-0.2
		c0.3-0.2,0.9-0.4,1.6-0.4c0.5,0,0.9,0.2,1.3,0.5c0.4,0.4,0.9,0.6,1.4,0.6c0.3,0,0.6-0.1,0.9-0.2c0.1,0,0.2,0,0.2,0
		c0,0,0.1,0,0.1,0.1h0.1c0.1,0,0.2,0.1,0.2,0.2v0.4c0,0.1,0,0.1-0.1,0.2L43.7,25l0,0.1C43.6,25.7,43.3,26.4,42.8,27z"/>
	<path fill="#3760AF" d="M21.8,44.5v-0.7c-0.1-0.3-0.1-0.6-0.1-0.9v-9.4c0-1.5,1.1-2.8,2.5-3.1l0.8-0.2c-0.1-0.2-0.2-0.4-0.2-0.5
		c-0.1-0.1-0.1-0.2-0.1-0.4c0,0,0,0-0.1-0.1L22,28.7c-0.1-0.2-0.3-0.3-0.5-0.4c0.2-0.2,0.4-0.5,0.5-0.7c0.3-0.5,0.6-1,0.8-1.4
		c0.1-0.2,0.2-0.4,0.2-0.6c0.2-0.2,0.4-0.5,0.4-0.8V24c0-0.2-0.1-0.5-0.2-0.6v-1.1c0-2-1.6-3.6-3.6-3.6h-1.2c-2,0-3.6,1.6-3.6,3.6
		v1.1c-0.1,0.2-0.2,0.4-0.2,0.6v0.8c0,0.3,0.1,0.6,0.4,0.8c0.1,0.2,0.1,0.4,0.2,0.6c0.2,0.5,0.4,1,0.8,1.4c0.1,0.2,0.3,0.4,0.5,0.7
		c-0.2,0.1-0.3,0.2-0.5,0.4l-2.6,0.5c-0.7,0.1-1.2,0.7-1.2,1.4v9.4c0,0.2,0,0.4,0.1,0.6v1c0,0.7,0.6,1.3,1.3,1.3
		c0.3,0,0.5-0.1,0.7-0.2v9.7c0,1.3,1,2.3,2.3,2.3c1.3,0,2.3-1,2.3-2.3c0,1.3,1,2.3,2.3,2.3c1.3,0,2.3-1,2.3-2.3v-5.3
		C22.6,46.7,21.8,45.7,21.8,44.5z M18.4,31.6c0,0.1-0.1,0.2-0.2,0.2c0,0,0,0-0.1,0c-0.1,0-0.1,0-0.2-0.1l-0.6-0.9c0,0,0-0.1,0-0.1
		l0-1.4c0-0.1,0-0.2,0.1-0.2c0.1,0,0.2,0,0.2,0c0.2,0.1,0.4,0.2,0.6,0.2c0.1,0,0.2,0.1,0.2,0.2v0.6c0,0,0.1,0,0.1,0.1
		c0,0,0.1,0.1,0.1,0.2L18.4,31.6z M20.8,30.9l-0.6,0.8c0,0.1-0.1,0.1-0.2,0.1c0,0,0,0-0.1,0c-0.1,0-0.2-0.1-0.2-0.2l-0.1-1.2
		c0-0.1,0-0.1,0.1-0.2c0,0,0.1,0,0.1-0.1v-0.6c0-0.1,0.1-0.2,0.2-0.2c0.2,0,0.4-0.1,0.6-0.2c0.1,0,0.2,0,0.2,0
		c0.1,0,0.1,0.1,0.1,0.2l0,1.4C20.8,30.8,20.8,30.8,20.8,30.9z M21,27c-0.6,0.8-1.1,1.2-1.4,1.2h-1.2c-0.3,0-0.8-0.4-1.4-1.2
		c-0.4-0.6-0.7-1.3-0.8-1.9l0-0.1l-0.2-0.1c-0.1,0-0.1-0.1-0.1-0.2v-0.4c0-0.1,0.1-0.2,0.2-0.2h0.1v-0.4c0-0.1,0-0.2,0.1-0.2
		c0.3-0.2,0.9-0.4,1.6-0.4c0.5,0,0.9,0.2,1.3,0.5c0.4,0.4,0.9,0.6,1.4,0.6c0.3,0,0.6-0.1,0.9-0.2c0.1,0,0.2,0,0.2,0
		c0,0,0.1,0,0.1,0.1H22c0.1,0,0.2,0.1,0.2,0.2v0.4c0,0.1,0,0.1-0.1,0.2L21.9,25l0,0.1C21.8,25.7,21.5,26.4,21,27z"/>
	<path fill="#5DAB34" d="M36.5,43.4c0.1-0.2,0.1-0.4,0.1-0.6v-9.4c0-0.7-0.5-1.3-1.2-1.4l-2.6-0.5c-0.1-0.2-0.3-0.3-0.5-0.4
		c0.2-0.2,0.4-0.5,0.5-0.7c0.3-0.5,0.6-1,0.8-1.4c0.1-0.2,0.2-0.4,0.2-0.6c0.2-0.2,0.4-0.5,0.4-0.8v-0.8c0-0.2-0.1-0.5-0.2-0.6V25
		c0-2-1.6-3.6-3.6-3.6h-1.2c-2,0-3.6,1.6-3.6,3.6v1.1c-0.1,0.2-0.2,0.4-0.2,0.6v0.8c0,0.3,0.1,0.6,0.4,0.8c0.1,0.2,0.1,0.4,0.2,0.6
		c0.2,0.5,0.4,1,0.8,1.4c0.1,0.2,0.3,0.4,0.5,0.7c-0.2,0.1-0.3,0.2-0.5,0.4L24.5,32c-0.7,0.1-1.2,0.7-1.2,1.4v9.4
		c0,0.2,0,0.4,0.1,0.6v1c0,0.7,0.6,1.3,1.3,1.3c0.3,0,0.5-0.1,0.7-0.2v9.7c0,1.3,1,2.3,2.3,2.3c1.3,0,2.3-1,2.3-2.3
		c0,1.3,1,2.3,2.3,2.3c1.3,0,2.3-1,2.3-2.3v-9.7c0.2,0.1,0.4,0.2,0.7,0.2c0.7,0,1.3-0.6,1.3-1.3L36.5,43.4L36.5,43.4z M29.3,34.4
		c0,0.1-0.1,0.2-0.2,0.2c0,0,0,0-0.1,0c-0.1,0-0.1,0-0.2-0.1l-0.6-0.9c0,0,0-0.1,0-0.1l0-1.4c0-0.1,0-0.2,0.1-0.2c0.1,0,0.2,0,0.2,0
		c0.2,0.1,0.4,0.2,0.6,0.2c0.1,0,0.2,0.1,0.2,0.2v0.6c0,0,0.1,0,0.1,0.1c0,0,0.1,0.1,0.1,0.2L29.3,34.4z M31.7,33.6l-0.6,0.8
		c0,0.1-0.1,0.1-0.2,0.1c0,0,0,0-0.1,0c-0.1,0-0.2-0.1-0.2-0.2l-0.1-1.2c0-0.1,0-0.1,0.1-0.2c0,0,0.1,0,0.1-0.1v-0.6
		c0-0.1,0.1-0.2,0.2-0.2c0.2,0,0.4-0.1,0.6-0.2c0.1,0,0.2,0,0.2,0c0.1,0,0.1,0.1,0.1,0.2l0,1.4C31.8,33.5,31.7,33.6,31.7,33.6z
		 M31.9,29.7c-0.6,0.8-1.1,1.2-1.4,1.2h-1.2c-0.3,0-0.8-0.4-1.4-1.2c-0.4-0.6-0.7-1.3-0.8-1.9l0-0.1L27,27.6c-0.1,0-0.1-0.1-0.1-0.2
		v-0.4c0-0.1,0.1-0.2,0.2-0.2h0.1v-0.4c0-0.1,0-0.2,0.1-0.2c0.3-0.2,0.9-0.4,1.6-0.4c0.5,0,0.9,0.2,1.3,0.5c0.4,0.4,0.9,0.6,1.4,0.6
		c0.3,0,0.6-0.1,0.9-0.2c0.1,0,0.2,0,0.2,0c0,0,0.1,0,0.1,0.1h0.1c0.1,0,0.2,0.1,0.2,0.2v0.4c0,0.1,0,0.1-0.1,0.2l-0.2,0.1l0,0.1
		C32.7,28.4,32.4,29.1,31.9,29.7z"/>
	<path fill="#3760AF" d="M56.9,25.8l-2.6-0.5c-0.1-0.2-0.3-0.3-0.5-0.4c0.2-0.2,0.4-0.5,0.5-0.7c0.3-0.5,0.6-1,0.8-1.4
		c0.1-0.2,0.2-0.4,0.2-0.6c0.2-0.2,0.4-0.5,0.4-0.8v-0.8c0-0.2-0.1-0.5-0.2-0.6v-1.1c0-2-1.6-3.6-3.6-3.6h-1.2c-2,0-3.6,1.6-3.6,3.6
		V20c-0.1,0.2-0.2,0.4-0.2,0.6v0.8c0,0.3,0.1,0.6,0.4,0.8c0.1,0.2,0.1,0.4,0.2,0.6c0.2,0.5,0.4,1,0.8,1.4c0.1,0.2,0.3,0.4,0.5,0.7
		c-0.2,0.1-0.3,0.2-0.5,0.4l-2.5,0.5c0,0,0,0,0,0.1c0,0.1-0.1,0.2-0.1,0.4c-0.1,0.2-0.1,0.4-0.2,0.5l0.8,0.2
		c1.5,0.3,2.5,1.6,2.5,3.1v9.4c0,0.3,0,0.6-0.1,0.9V41c0,1.2-0.8,2.3-1.8,2.7v5.3c0,1.3,1,2.3,2.3,2.3c1.3,0,2.3-1,2.3-2.3
		c0,1.3,1,2.3,2.3,2.3c1.3,0,2.3-1,2.3-2.3v-9.7c0.2,0.1,0.4,0.2,0.7,0.2c0.7,0,1.3-0.6,1.3-1.3v-1c0.1-0.2,0.1-0.4,0.1-0.6v-9.4
		C58,26.5,57.5,25.9,56.9,25.8z M50.7,28.2c0,0.1-0.1,0.2-0.2,0.2c0,0,0,0-0.1,0c-0.1,0-0.1,0-0.2-0.1l-0.6-0.9c0,0,0-0.1,0-0.1
		l0-1.4c0-0.1,0-0.2,0.1-0.2c0.1,0,0.2,0,0.2,0c0.2,0.1,0.4,0.2,0.6,0.2c0.1,0,0.2,0.1,0.2,0.2v0.6c0,0,0.1,0,0.1,0.1
		c0,0,0.1,0.1,0.1,0.2L50.7,28.2z M53.1,27.5l-0.6,0.8c0,0.1-0.1,0.1-0.2,0.1c0,0,0,0-0.1,0c-0.1,0-0.2-0.1-0.2-0.2L51.9,27
		c0-0.1,0-0.1,0.1-0.2c0,0,0.1,0,0.1-0.1v-0.6c0-0.1,0.1-0.2,0.2-0.2c0.2,0,0.4-0.1,0.6-0.2c0.1,0,0.2,0,0.2,0
		c0.1,0,0.1,0.1,0.1,0.2l0,1.4C53.1,27.4,53.1,27.4,53.1,27.5z M53.3,23.6c-0.6,0.8-1.1,1.2-1.4,1.2h-1.2c-0.3,0-0.8-0.4-1.4-1.2
		c-0.4-0.6-0.7-1.3-0.8-1.9l0-0.1l-0.2-0.1c-0.1,0-0.1-0.1-0.1-0.2v-0.4c0-0.1,0.1-0.2,0.2-0.2h0.1v-0.4c0-0.1,0-0.2,0.1-0.2
		c0.3-0.2,0.9-0.4,1.6-0.4c0.5,0,0.9,0.2,1.3,0.5c0.4,0.4,0.9,0.6,1.4,0.6c0.3,0,0.6-0.1,0.9-0.2c0.1,0,0.2,0,0.2,0
		c0,0,0.1,0,0.1,0.1h0.1c0.1,0,0.2,0.1,0.2,0.2v0.4c0,0.1,0,0.1-0.1,0.2l-0.2,0.1l0,0.1C54.1,22.2,53.8,22.9,53.3,23.6z"/>
	<path fill="#3760AF" d="M11.3,41v-0.7c-0.1-0.3-0.1-0.6-0.1-0.9V30c0-1.5,1.1-2.8,2.5-3.1l0.8-0.2c-0.1-0.2-0.2-0.4-0.2-0.5
		c-0.1-0.1-0.1-0.2-0.1-0.4c0,0,0,0-0.1-0.1l-2.5-0.5c-0.1-0.2-0.3-0.3-0.5-0.4c0.2-0.2,0.4-0.5,0.5-0.7c0.3-0.5,0.6-1,0.8-1.4
		c0.1-0.2,0.2-0.4,0.2-0.6c0.2-0.2,0.4-0.5,0.4-0.8v-0.8c0-0.2-0.1-0.5-0.2-0.6v-1.1c0-2-1.6-3.6-3.6-3.6H8c-2,0-3.6,1.6-3.6,3.6V20
		c-0.1,0.2-0.2,0.4-0.2,0.6v0.8c0,0.3,0.1,0.6,0.4,0.8c0.1,0.2,0.1,0.4,0.2,0.6c0.2,0.5,0.4,1,0.8,1.4c0.1,0.2,0.3,0.4,0.5,0.7
		C6,25,5.8,25.1,5.7,25.3l-2.6,0.5C2.4,25.9,2,26.5,2,27.2v9.4c0,0.2,0,0.4,0.1,0.6v1c0,0.7,0.6,1.3,1.3,1.3c0.3,0,0.5-0.1,0.7-0.2
		v9.7c0,1.3,1,2.3,2.3,2.3c1.3,0,2.3-1,2.3-2.3c0,1.3,1,2.3,2.3,2.3c1.3,0,2.3-1,2.3-2.3v-5.3C12.1,43.3,11.3,42.3,11.3,41z
		 M7.9,28.2c0,0.1-0.1,0.2-0.2,0.2c0,0,0,0-0.1,0c-0.1,0-0.1,0-0.2-0.1l-0.6-0.9c0,0,0-0.1,0-0.1l0-1.4c0-0.1,0-0.2,0.1-0.2
		c0.1,0,0.2,0,0.2,0c0.2,0.1,0.4,0.2,0.6,0.2c0.1,0,0.2,0.1,0.2,0.2v0.6c0,0,0.1,0,0.1,0.1C8,26.9,8,26.9,8,27L7.9,28.2z M10.3,27.5
		l-0.6,0.8c0,0.1-0.1,0.1-0.2,0.1c0,0,0,0-0.1,0c-0.1,0-0.2-0.1-0.2-0.2L9.2,27c0-0.1,0-0.1,0.1-0.2c0,0,0.1,0,0.1-0.1v-0.6
		c0-0.1,0.1-0.2,0.2-0.2c0.2,0,0.4-0.1,0.6-0.2c0.1,0,0.2,0,0.2,0c0.1,0,0.1,0.1,0.1,0.2l0,1.4C10.4,27.4,10.4,27.4,10.3,27.5z
		 M10.6,23.6c-0.6,0.8-1.1,1.2-1.4,1.2H8c-0.3,0-0.8-0.4-1.4-1.2c-0.4-0.6-0.7-1.3-0.8-1.9l0-0.1l-0.2-0.1c-0.1,0-0.1-0.1-0.1-0.2
		v-0.4c0-0.1,0.1-0.2,0.2-0.2h0.1v-0.4c0-0.1,0-0.2,0.1-0.2c0.3-0.2,0.9-0.4,1.6-0.4c0.5,0,0.9,0.2,1.3,0.5c0.4,0.4,0.9,0.6,1.4,0.6
		c0.3,0,0.6-0.1,0.9-0.2c0.1,0,0.2,0,0.2,0c0,0,0.1,0,0.1,0.1h0.1c0.1,0,0.2,0.1,0.2,0.2v0.4c0,0.1,0,0.1-0.1,0.2l-0.2,0.1l0,0.1
		C11.3,22.2,11,22.9,10.6,23.6z"/>
	<path fill="#3760AF" d="M30,17.9c0.5,0,1.9-0.7,1.9-2.1v-1c0-1.4-1-2.1-1.9-2.1c-0.9,0-1.9,0.7-1.9,2.1v1
		C28.1,17.2,29.5,17.9,30,17.9z"/>
	<path fill="#5DAB34" d="M30,9.9c0.5,0,1.9-0.7,1.9-2.1v-1c0-1.4-1-2.1-1.9-2.1c-0.9,0-1.9,0.7-1.9,2.1v1C28.1,9.2,29.5,9.9,30,9.9z
		"/>
	<path fill="#5DAB34" d="M41.3,13.7c0.5,0,1.9-0.7,1.9-2.1v-1c0-1.4-1-2.1-1.9-2.1c-0.9,0-1.9,0.7-1.9,2.1v1
		C39.3,13,40.8,13.7,41.3,13.7z"/>
	<path fill="#5DAB34" d="M19.3,13.7c0.5,0,1.9-0.7,1.9-2.1v-1c0-1.4-1-2.1-1.9-2.1c-0.9,0-1.9,0.7-1.9,2.1v1
		C17.3,13,18.8,13.7,19.3,13.7z"/>
</g>
</svg>
