<?xml version="1.0" encoding="utf-8"?>
<!-- Generator: Adobe Illustrator 18.0.0, SVG Export Plug-In . SVG Version: 6.00 Build 0)  -->
<!DOCTYPE svg PUBLIC "-//W3C//DTD SVG 1.1//EN" "http://www.w3.org/Graphics/SVG/1.1/DTD/svg11.dtd">
<svg version="1.1" xmlns="http://www.w3.org/2000/svg" xmlns:xlink="http://www.w3.org/1999/xlink" x="0px" y="0px" width="60px"
	 height="60px" viewBox="0 0 60 60" enable-background="new 0 0 60 60" xml:space="preserve">
<g id="Layer_2" display="none">
	<g id="Layer_1" display="inline">
	</g>
	
		<image display="inline" overflow="visible" width="50" height="50" xlink:href="../images/Factsheet-Certified.png"  transform="matrix(1 0 0 1 5 5)">
	</image>
</g>
<g id="Layer_3">
	<g>
		<g>
			<path fill="#5DAB34" d="M33.7,48.1v8.8l2.7-2.7l2.7,2.7v-8.8c-0.9,0.4-1.8,0.5-2.7,0.5C35.5,48.6,34.6,48.4,33.7,48.1z"/>
			<circle fill="#5DAB34" cx="36.4" cy="42.3" r="4.5"/>
			<path fill="#3760AF" d="M39,14.5h9L37.2,2v10.8C37.2,13.8,38.1,14.5,39,14.5z"/>
			<path fill="#3760AF" d="M35.5,12.8V2H17.5c-2,0-3.6,1.6-3.6,3.6v41.2c0,2,1.6,3.6,3.6,3.6h14.3v-3.8c-1.1-1.1-1.8-2.7-1.8-4.3
				c0-3.4,2.9-6.3,6.3-6.3c3.4,0,6.3,2.9,6.3,6.3c0,1.8-0.7,3.2-1.8,4.3v3.8h3.6c2,0,3.6-1.6,3.6-3.6V16.3h-9
				C37.1,16.3,35.5,14.7,35.5,12.8z M19.3,9.2h12.5V11H19.3V9.2z M19.3,14.5h12.5v1.8H19.3V14.5z M42.6,32.5H19.3v-1.8h23.3V32.5z
				 M42.6,27.1H19.3v-1.8h23.3V27.1z M42.6,21.7H19.3v-1.8h23.3V21.7z"/>
		</g>
	</g>
</g>
</svg>
