<?xml version="1.0" encoding="utf-8"?>
<!-- Generator: Adobe Illustrator 18.0.0, SVG Export Plug-In . SVG Version: 6.00 Build 0)  -->
<!DOCTYPE svg PUBLIC "-//W3C//DTD SVG 1.1//EN" "http://www.w3.org/Graphics/SVG/1.1/DTD/svg11.dtd">
<svg version="1.1" xmlns="http://www.w3.org/2000/svg" xmlns:xlink="http://www.w3.org/1999/xlink" x="0px" y="0px" width="60px"
	 height="60px" viewBox="0 0 60 60" enable-background="new 0 0 60 60" xml:space="preserve">
<g id="Layer_2" display="none">
	<g id="Layer_1" display="inline">
	</g>
	
		<image display="inline" overflow="visible" width="50" height="50" xlink:href="../images/Factsheet-Certified.png"  transform="matrix(1 0 0 1 5 5)">
	</image>
</g>
<g id="Layer_3">
	<g>
		<path fill="#3760AF" d="M29.2,34.3V36h3.1v-1.7c-0.5,0.1-1,0.2-1.5,0.2C30.2,34.4,29.7,34.4,29.2,34.3z"/>
		<path fill="#5DAB34" d="M45.1,31.8L38.8,30c-0.4,0.5-0.8,1-1.3,1.4l1.6,0.5c-1.1,4.4-4.1,16.3-4.9,20.5c-0.7,0.2-1.4,0.3-2.1,0.4
			l1.8-4.2l-1.7-11.4h-3.1l-1.7,11.4l1.8,4.2c-0.7-0.1-1.4-0.2-2.1-0.4c-0.8-4.3-3.8-16.1-4.9-20.5l1.6-0.5
			c-0.4-0.4-0.9-0.9-1.3-1.4l-6.3,1.9C15,32.3,14,33.6,14,35v2.8c0,9.2,7.5,16.7,16.7,16.7c9.2,0,16.7-7.5,16.7-16.7V35
			C47.5,33.6,46.5,32.3,45.1,31.8z"/>
		<path fill="#404040" d="M41.5,16.4c0.3-1.9,0.2-4-0.1-5.7c-0.6-3.5-2-6-2-6l-0.6,2.7l-0.1,0.3c0-0.1,0-0.2,0-0.3
			c-0.2-1.5-0.8-3.5-0.8-3.5C36.4,4.6,34,4.6,34,4.6c0.7-0.5,2.4-1,2.4-1c-4.4-1.4-7.2,0.1-8.6,1.2c-0.3,0.2-0.5,0.5-0.7,0.6
			l0.5-0.6l1-1.2c-2.1,0.2-3.6,1.6-4.6,2.8c-0.7,0.8-1,1.5-1,1.5L23.3,7l0.4-2c-1.4,1.2-2.3,2.8-2.9,4.6c-0.8,2.6-0.9,5.7-0.9,6.9
			c-0.8,0.3-1.5,1.1-1.7,2.2c-0.3,1-0.2,2.1,0.2,3.3c0.6,1.7,1.9,3,3.3,3.3c1.8,3.8,5,7.6,9,7.6c4.1,0,7.3-3.8,9-7.6
			c1.4-0.3,2.7-1.6,3.3-3.3C43.9,19.4,43.2,17.1,41.5,16.4z M41.5,21.3c-0.5,1.5-1.5,2.2-2.3,2.2c-0.4,0-0.7,0.2-0.8,0.5
			c-1.5,3.4-4.3,7-7.7,7c-3.4,0-6.2-3.6-7.7-7c-0.1-0.3-0.5-0.5-0.8-0.5c-0.7,0-1.7-0.8-2.2-2.2c-0.3-0.8-0.3-1.6-0.2-2.3
			c0.1-0.3,0.3-0.9,0.8-1c0.1,0,0.2,0,0.2,0c0.4,0,0.7-0.4,0.8-0.8c0-0.4,0.1-0.8,0.2-1.1c1.3-5,5.6-5.4,5.6-5.4
			c-0.8,1.8-2.1,2.6-2.1,2.6c4.2-1.7,5.5-3.5,5.5-3.5c2.8,3.9,6.6,5.5,8.8,6.2c0.1,0.4,0.1,0.8,0.2,1.2c0,0.4,0.3,0.8,0.8,0.8
			c0.1,0,0.2,0,0.2,0C41.6,18.2,42,19.6,41.5,21.3z"/>
	</g>
</g>
</svg>
