<?xml version="1.0" encoding="utf-8"?>
<!-- Generator: Adobe Illustrator 18.0.0, SVG Export Plug-In . SVG Version: 6.00 Build 0)  -->
<!DOCTYPE svg PUBLIC "-//W3C//DTD SVG 1.1//EN" "http://www.w3.org/Graphics/SVG/1.1/DTD/svg11.dtd">
<svg version="1.1" xmlns="http://www.w3.org/2000/svg" xmlns:xlink="http://www.w3.org/1999/xlink" x="0px" y="0px" width="80px"
	 height="80px" viewBox="0 0 80 80" enable-background="new 0 0 80 80" xml:space="preserve">
<g id="Layer_1" display="none">
	
		<image display="inline" overflow="visible" width="64" height="64" xlink:href="../../beehyv-website-11-03-2015/beehyv_website/media/images/firm-blue.png"  transform="matrix(1.125 0 0 1.125 4 4)">
	</image>
</g>
<g id="Layer_2">
	<ellipse fill="none" stroke="#3760AF" stroke-width="2" stroke-miterlimit="10" cx="39.6" cy="41.2" rx="32.4" ry="32.1"/>
	<g>
		<g>
			<path fill="#3760AF" d="M50,43.8c0-0.1-0.1-0.2-0.3-0.2h-2.4c-0.1,0-0.3,0.1-0.3,0.2l0.2,0.9h2.6L50,43.8z"/>
			<path fill="#3760AF" d="M47.5,47.9h2c0.1,0,0.1-0.1,0.1-0.1v-1.6h-2.3v1.6C47.4,47.8,47.4,47.9,47.5,47.9z"/>
			<path fill="#3760AF" d="M27.2,44.7c0,0,0.1,0,0.1,0c0.1,0,0.1,0,0.2,0h0.7l-0.2-0.9c0-1,0.8-1.7,1.7-1.7h2.4c1,0,1.7,0.8,1.7,1.7
				l0,0.1l-0.1,0.8h11.9l-0.2-0.9c0-1,0.8-1.7,1.7-1.7h2.4c1,0,1.7,0.8,1.7,1.7l0,0.1l-0.1,0.8h1.4c0,0,0.1,0,0.1,0
				c0.1,0,0.1,0,0.2,0c1.3,0,2.3-0.4,3-1v-9.3c0-1.7-1.4-2.5-3-3c0,0-2.9-0.4-6.3-0.7l-0.2-1.8c0-1.4-1.2-2.6-2.6-2.6h-7.8
				c-1.4,0-2.6,1.2-2.6,2.6l-0.2,1.8c-3.4,0.3-6.3,0.7-6.3,0.7c-1.7,0.5-3,1.4-3,3v9.1C24.7,44.3,25.8,44.7,27.2,44.7z M35.4,29
				L35.4,29c0-0.5,0.3-0.8,0.7-0.8h7.8c0.4,0,0.7,0.3,0.7,0.7l0.1,1.6c-1.7-0.1-3.3-0.2-4.8-0.2c-1.4,0-3.1,0.1-4.8,0.2L35.4,29z"/>
			<path fill="#3760AF" d="M53,46.1c-0.1,0-0.1,0-0.2,0c-0.1,0-0.2,0-0.2,0h-1.6v1.6c0,0.9-0.7,1.6-1.6,1.6h-2
				c-0.9,0-1.6-0.7-1.6-1.6v-1.6H33.6v1.6c0,0.9-0.7,1.6-1.6,1.6h-2c-0.9,0-1.6-0.7-1.6-1.6v-1.6h-0.9c-0.1,0-0.1,0-0.1,0
				c-0.1,0-0.1,0-0.2,0c0,0,0,0,0,0c-1.3,0-2.3-0.3-3.2-0.8V52c0,1.7,1.3,2.5,3,3c0,0,8.3,1.1,13,1c5.2,0,13-1,13-1
				c1.8-0.6,3-1.4,3-3v-6.6C55.2,45.9,54.2,46.1,53,46.1z"/>
			<path fill="#3760AF" d="M30.1,47.9h2c0.1,0,0.1-0.1,0.1-0.1v-1.6h-2.3v1.6C29.9,47.8,30,47.9,30.1,47.9z"/>
			<path fill="#3760AF" d="M32.5,43.8c0-0.1-0.1-0.2-0.3-0.2h-2.4c-0.1,0-0.3,0.1-0.3,0.2l0.2,0.9h2.6L32.5,43.8z"/>
		</g>
	</g>
</g>
<g id="Layer_3">
</g>
</svg>
