<?xml version="1.0" encoding="utf-8"?>
<!-- Generator: Adobe Illustrator 16.0.0, SVG Export Plug-In . SVG Version: 6.00 Build 0)  -->
<!DOCTYPE svg PUBLIC "-//W3C//DTD SVG 1.1//EN" "http://www.w3.org/Graphics/SVG/1.1/DTD/svg11.dtd">
<svg version="1.1" id="Layer_1" xmlns="http://www.w3.org/2000/svg" xmlns:xlink="http://www.w3.org/1999/xlink" x="0px" y="0px"
	 width="78.333px" height="77.5px" viewBox="0 0 78.333 77.5" enable-background="new 0 0 78.333 77.5" xml:space="preserve">
<ellipse fill="none" stroke="#FFFFFF" stroke-width="2" stroke-miterlimit="10" cx="39.066" cy="39.6" rx="32.399" ry="32.1"/>
<g>
	<g>
		<path fill="#FFFFFF" d="M29.476,40.814c-0.341,0.61-0.187,1.375,0.364,1.804l1.631,1.271c0.582,0.455,1.413,0.383,1.91-0.16
			l0.958-1.051l1.379,1.163c0.286,0.242,0.656,0.364,1.029,0.33c0.374-0.032,0.718-0.213,0.96-0.499l2.629-3.105
			c-0.825-0.609-1.489-1.42-1.907-2.368c-0.327-0.732-0.509-1.542-0.509-2.396c0-3.256,2.647-5.904,5.905-5.904
			c0.663,0,1.303,0.111,1.901,0.315c0.837,0.286,1.587,0.755,2.213,1.358l3.313-3.921c0.504-0.596,0.43-1.486-0.168-1.989
			l-0.678-0.571l0.35-0.379c0.262-0.283,0.392-0.66,0.367-1.044c-0.025-0.383-0.205-0.74-0.498-0.988l-2.929-2.473
			c-0.293-0.25-0.675-0.366-1.056-0.326c-0.383,0.039-0.729,0.232-0.964,0.533l-0.32,0.41l-0.673-0.567
			c-0.596-0.503-1.487-0.428-1.987,0.167L29.05,36.568c-0.463,0.547-0.442,1.352,0.048,1.875l1.067,1.143L29.476,40.814z"/>
		<path fill="#FFFFFF" d="M49.559,37.204c-0.339,1.387-1.167,2.585-2.29,3.394c1.592,2.021,3.106,4.961,3.106,8.873v3.938h-19.75
			v-0.247l6.497-2.377v-1.21c0-0.781-0.632-1.412-1.412-1.412H22.211c-0.779,0-1.411,0.631-1.411,1.412v1.21l5.873,2.152v1.66
			c0,1.526,1.238,2.766,2.766,2.766H51.56c1.528,0,2.765-1.238,2.765-2.764v-5.127C54.325,43.82,51.864,39.766,49.559,37.204z"/>
		<path fill="#FFFFFF" d="M43.821,31.222c-1.638,0-3.078,0.862-3.889,2.157c-0.442,0.705-0.698,1.539-0.698,2.431
			c0,2.53,2.058,4.588,4.587,4.588c2.531,0,4.59-2.059,4.59-4.588C48.411,33.277,46.352,31.222,43.821,31.222z"/>
	</g>
</g>
</svg>
