<?xml version="1.0" encoding="utf-8"?>
<!-- Generator: Adobe Illustrator 16.0.0, SVG Export Plug-In . SVG Version: 6.00 Build 0)  -->
<!DOCTYPE svg PUBLIC "-//W3C//DTD SVG 1.1//EN" "http://www.w3.org/Graphics/SVG/1.1/DTD/svg11.dtd">
<svg version="1.1" id="Layer_1" xmlns="http://www.w3.org/2000/svg" xmlns:xlink="http://www.w3.org/1999/xlink" x="0px" y="0px"
	 width="78.333px" height="77.5px" viewBox="0 0 78.333 77.5" enable-background="new 0 0 78.333 77.5" xml:space="preserve">
<ellipse fill="none" stroke="#3760AF" stroke-width="2" stroke-miterlimit="10" cx="39.066" cy="39.6" rx="32.4" ry="32.1"/>
<g>
	<g>
		<path fill="#3760AF" d="M29.476,40.815c-0.341,0.61-0.187,1.375,0.364,1.803l1.631,1.271c0.582,0.454,1.413,0.382,1.91-0.161
			l0.958-1.051l1.379,1.164c0.286,0.242,0.656,0.364,1.029,0.33c0.374-0.032,0.718-0.213,0.96-0.499l2.629-3.106
			c-0.825-0.609-1.489-1.42-1.907-2.367c-0.327-0.732-0.509-1.542-0.509-2.396c0-3.256,2.647-5.904,5.905-5.904
			c0.663,0,1.303,0.111,1.901,0.315c0.837,0.286,1.587,0.755,2.213,1.358l3.314-3.921c0.503-0.596,0.429-1.486-0.169-1.989
			l-0.677-0.571l0.35-0.379c0.261-0.283,0.391-0.66,0.366-1.044c-0.025-0.383-0.204-0.74-0.497-0.988l-2.929-2.473
			c-0.293-0.25-0.675-0.366-1.056-0.326c-0.382,0.039-0.729,0.232-0.964,0.533l-0.32,0.41l-0.673-0.567
			c-0.595-0.503-1.487-0.428-1.987,0.167L29.05,36.568c-0.463,0.547-0.442,1.352,0.048,1.875l1.067,1.143L29.476,40.815z"/>
		<path fill="#3760AF" d="M49.559,37.204c-0.339,1.387-1.167,2.585-2.29,3.394c1.592,2.021,3.106,4.96,3.106,8.873v3.938H30.625
			v-0.247l6.497-2.377v-1.21c0-0.781-0.632-1.412-1.412-1.412H22.211c-0.779,0-1.411,0.631-1.411,1.412v1.21l5.873,2.152v1.66
			c0,1.527,1.238,2.766,2.766,2.766h22.121c1.529,0,2.764-1.238,2.764-2.764v-5.126C54.325,43.821,51.864,39.765,49.559,37.204z"/>
		<path fill="#3760AF" d="M43.821,31.222c-2.53,0-4.587,2.057-4.587,4.588c0,2.53,2.057,4.588,4.587,4.588
			c2.531,0,4.589-2.058,4.589-4.588C48.41,33.277,46.352,31.222,43.821,31.222z"/>
	</g>
</g>
</svg>
