<?xml version="1.0" encoding="utf-8"?>
<!-- Generator: Adobe Illustrator 18.0.0, SVG Export Plug-In . SVG Version: 6.00 Build 0)  -->
<!DOCTYPE svg PUBLIC "-//W3C//DTD SVG 1.1//EN" "http://www.w3.org/Graphics/SVG/1.1/DTD/svg11.dtd">
<svg version="1.1" id="Layer_2" xmlns="http://www.w3.org/2000/svg" xmlns:xlink="http://www.w3.org/1999/xlink" x="0px" y="0px"
	 width="80px" height="80px" viewBox="0 0 80 80" enable-background="new 0 0 80 80" xml:space="preserve">
<ellipse fill="none" stroke="#FFFFFF" stroke-width="2" stroke-miterlimit="10" cx="39.6" cy="41.2" rx="32.4" ry="32.1"/>
<path fill="#FFFFFF" d="M47.8,26.9H29.8c-1.2,0-2.2,0.9-2.4,2h-1.3c-0.4,0-0.8,0.4-0.8,0.8c0,0.4,0.4,0.8,0.8,0.8h1.2v0.9h-1.2
	c-0.4,0-0.8,0.4-0.8,0.8c0,0.4,0.4,0.8,0.8,0.8h1.2v0.9h-1.2c-0.4,0-0.8,0.4-0.8,0.8s0.4,0.8,0.8,0.8h1.2v0.9h-1.2
	c-0.4,0-0.8,0.4-0.8,0.8c0,0.4,0.4,0.8,0.8,0.8h1.2V39h-1.2c-0.4,0-0.8,0.4-0.8,0.8c0,0.4,0.4,0.8,0.8,0.8h1.2v0.9h-1.2
	c-0.4,0-0.8,0.4-0.8,0.8c0,0.4,0.4,0.8,0.8,0.8h1.2V44h-1.2c-0.4,0-0.8,0.4-0.8,0.8s0.4,0.8,0.8,0.8h1.2v0.9h-1.2
	c-0.4,0-0.8,0.4-0.8,0.8s0.4,0.8,0.8,0.8h1.2V49h-1.2c-0.4,0-0.8,0.4-0.8,0.8s0.4,0.8,0.8,0.8h1.2v0.9h-1.2c-0.4,0-0.8,0.4-0.8,0.8
	s0.4,0.8,0.8,0.8h1.3c0.2,1.1,1.2,2,2.4,2h17.9c1.4,0,2.4-1.1,2.4-2.4V29.3C50.2,28,49.1,26.9,47.8,26.9z M30,31.1
	c0.3-0.3,0.8-0.3,1.1,0l0.2,0.2l0.2-0.1l1.1-1.3c0.3-0.3,0.8-0.4,1.1-0.1c0.3,0.3,0.4,0.8,0.1,1.1L32.1,33c-0.1,0.2-0.3,0.3-0.6,0.3
	c0,0,0,0,0,0c-0.2,0-0.4-0.1-0.6-0.2L30,32.2C29.7,31.9,29.7,31.4,30,31.1z M33.9,46.1l-1.8,2.2c-0.1,0.2-0.3,0.3-0.6,0.3
	c0,0,0,0,0,0c-0.2,0-0.4-0.1-0.6-0.2L30,47.4c-0.3-0.3-0.3-0.8,0-1.1c0.3-0.3,0.8-0.3,1.1,0l0.2,0.2l0.2-0.1l1.1-1.3
	c0.3-0.3,0.8-0.4,1.1-0.1C34.1,45.2,34.2,45.7,33.9,46.1z M33.9,41l-1.8,2.2c-0.1,0.2-0.3,0.3-0.6,0.3c0,0,0,0,0,0
	c-0.2,0-0.4-0.1-0.6-0.2L30,42.3c-0.3-0.3-0.3-0.8,0-1.1c0.3-0.3,0.8-0.3,1.1,0l0.2,0.2l0.2-0.1l1.1-1.3c0.3-0.3,0.8-0.4,1.1-0.1
	C34.1,40.1,34.2,40.6,33.9,41z M33.9,35.9l-1.8,2.2c-0.1,0.2-0.3,0.3-0.6,0.3c0,0,0,0,0,0c-0.2,0-0.4-0.1-0.6-0.2L30,37.3
	c-0.3-0.3-0.3-0.8,0-1.1c0.3-0.3,0.8-0.3,1.1,0l0.2,0.2l0.2-0.1l1.1-1.3c0.3-0.3,0.8-0.4,1.1-0.1C34.1,35.1,34.2,35.6,33.9,35.9z
	 M46.7,47.4H36.4c-0.4,0-0.8-0.4-0.8-0.8s0.4-0.8,0.8-0.8h10.3c0.4,0,0.8,0.4,0.8,0.8C47.5,47.1,47.2,47.4,46.7,47.4z M46.7,42.4
	H36.4c-0.4,0-0.8-0.4-0.8-0.8c0-0.4,0.4-0.8,0.8-0.8h10.3c0.4,0,0.8,0.4,0.8,0.8C47.5,42,47.2,42.4,46.7,42.4z M46.7,37.3H36.4
	c-0.4,0-0.8-0.4-0.8-0.8s0.4-0.8,0.8-0.8h10.3c0.4,0,0.8,0.4,0.8,0.8S47.2,37.3,46.7,37.3z M46.7,32.2H36.4c-0.4,0-0.8-0.4-0.8-0.8
	s0.4-0.8,0.8-0.8h10.3c0.4,0,0.8,0.4,0.8,0.8S47.2,32.2,46.7,32.2z M55.4,32.6v21.7c0,0.4-0.4,0.8-0.8,0.8h-1.9
	c-0.4,0-0.8-0.4-0.8-0.8V32.6c0,0,0,0,0,0c0,0,0-0.1,0-0.1l0,0c0,0,0,0,0,0l0.9-4.7c0.1-0.4,0.4-0.6,0.8-0.6s0.7,0.3,0.8,0.6
	l0.9,4.7c0,0,0,0,0,0l0,0C55.4,32.5,55.4,32.6,55.4,32.6C55.4,32.6,55.4,32.6,55.4,32.6z"/>
</svg>
