<?xml version="1.0" encoding="utf-8"?>
<!-- Generator: Adobe Illustrator 18.0.0, SVG Export Plug-In . SVG Version: 6.00 Build 0)  -->
<!DOCTYPE svg PUBLIC "-//W3C//DTD SVG 1.1//EN" "http://www.w3.org/Graphics/SVG/1.1/DTD/svg11.dtd">
<svg version="1.1" xmlns="http://www.w3.org/2000/svg" xmlns:xlink="http://www.w3.org/1999/xlink" x="0px" y="0px" width="60px"
	 height="60px" viewBox="0 0 60 60" enable-background="new 0 0 60 60" xml:space="preserve">
<g id="Layer_3" display="none">
	<g display="inline">
		<path fill="#3760AF" d="M18.2,24.1c-0.9,0.2-1.8-0.3-2-1.2s0.3-1.8,1.2-2.1c0.9-0.2,1.8,0.3,2,1.2C19.6,23,19.1,23.9,18.2,24.1z
			 M32.8,13.7c-2,0-3.6,1.6-3.6,3.5c0,1.9,1.6,3.5,3.6,3.5c2,0,3.6-1.6,3.6-3.5C36.3,15.3,34.7,13.7,32.8,13.7z M55,33.5l-0.3-1.2
			l-0.4-1.1l-0.4-1.1L53.4,29L53,28l-0.4-1l-0.3-1.1l-0.3-1.1l0.1-0.5l0.2-0.5l0.2-0.5l0.1-0.5L52.4,22l-0.2-0.9l-0.2-0.9l-0.3-0.9
			l-0.3-0.9L51,17.4l-0.3-0.9l-0.4-0.9l-0.4-0.8l-0.4-0.9L49,13l1.3-0.8l-0.5-0.8l-0.5-0.7l-0.5-0.8l-0.5-0.7l-0.5-0.6L47.3,8
			l-0.5-0.5l-0.5-0.5l-0.5-0.5L46.9,6l-0.6-0.4l-0.6-0.4l-0.6-0.4l-0.6-0.4L43.8,4l-0.7-0.3l-0.7-0.3l-0.7-0.3L41,2.8l-0.7-0.3
			l-0.9-0.3l-0.9-0.2l-0.9-0.2l-0.9-0.2l-0.9-0.2l-0.9-0.1l-0.9-0.1l-0.9-0.1l-0.9-0.1l-0.9,0l-0.9,0l-0.9,0l-0.9,0l-0.9,0.1L27,1.2
			l-0.9,0.1l-0.9,0.1l-0.9,0.2l-0.9,0.2L22.4,2l-0.9,0.3l-0.9,0.3l-0.9,0.3l-0.9,0.3l-0.9,0.3l-0.9,0.4l-0.9,0.4l-0.8,0.4l-0.8,0.5
			l-0.8,0.5L13,6.2l-0.7,0.6l-0.7,0.6L11,8l-0.6,0.6L9.9,9.3L9.3,10l-0.5,0.7l-0.5,0.7l-0.5,0.8L7.4,13L7,13.8l-0.3,0.8l-0.3,0.8
			L6,16.2l-0.3,0.8l-0.2,0.9l-0.2,0.8l-0.3,1.8L5,22.3L5,24l0.2,1.7l0.3,1.7l0.5,1.7l0.6,1.6l4.3,7c7.3,7.5,7,15.1,7,15.1l0,1.5
			l0.1,4.6h25l0.1-0.5v-1.5l0.1-1.5l0.1-3.3l0.2-1.7l0.1-0.4l0.2-0.3l0.2-0.3l0.2-0.2l0.3-0.2l0.3-0.1L45,49l0.4-0.1l0.5-0.1l0.5,0
			h0.1l0.5,0.1l0.5,0L48,49l0.4,0l0.5,0.1l0.5,0.1l-1.2,0l0.5,0.1l0.5,0l0.6,0l0.4,0l0.4-0.1l0.4-0.1l0.4-0.2l0.3-0.2l0.3-0.3
			l0.2-0.3l0.2-0.3l0.1-0.6l-0.1-0.7l-0.1-0.7v-0.7l0.1-0.3l0.1-0.2l0.1-0.3l0.2-0.2l0.2-0.2l0.1-0.3l0.1-0.3l0-0.3l0-0.3l0-0.3
			l-0.1-0.3l-0.1-0.3l-0.2-0.3l-0.2-0.3l-0.3-0.2L52.1,41l0.3-0.2l0.3-0.2l0.3-0.2l0.2-0.2l0.2-0.3l0.1-0.3l0.1-0.3l-0.1-0.3l-0.3-1
			l-0.2-0.9l-0.1-0.9v-0.8l0.5-0.2l0.4-0.2l0.4-0.2l0.3-0.2l0.2-0.3l0.1-0.3l0.1-0.3L55,33.5z M22.5,24.8l-0.6,1
			c0,0.1-1.5-0.2-1.5-0.2l-0.6,0.4c0,0-0.2,1.6-0.3,1.6l-1.1,0.3c-0.1,0-0.9-1.3-0.9-1.3l-0.7-0.1c0,0-1.2,0.9-1.3,0.9l-1-0.6
			c-0.1,0,0.2-1.6,0.2-1.6l-0.4-0.6c0,0-1.5-0.2-1.5-0.3l-0.3-1.1c0-0.1,1.2-0.9,1.2-0.9l0.1-0.7c0,0-0.9-1.3-0.9-1.3l0.6-1
			c0-0.1,1.5,0.2,1.5,0.2l0.6-0.4c0,0,0.2-1.5,0.3-1.6l1.1-0.3c0.1,0,0.9,1.3,0.9,1.3l0.7,0.1c0,0,1.2-0.9,1.3-0.9l1,0.6
			c0.1,0-0.2,1.6-0.2,1.6l0.4,0.6c0,0,1.5,0.2,1.5,0.3l0.3,1.1c0,0.1-1.2,0.9-1.2,0.9l-0.1,0.7C21.6,23.5,22.6,24.7,22.5,24.8z
			 M43.9,18.4L43.9,18.4c0,0.2-3.1,1.3-3.1,1.3L40.2,21c0,0,1.3,2.9,1.2,3.1l-1.7,1.7c-0.1,0.1-3.1-1.2-3.1-1.2l-1.4,0.6
			c0,0-1.2,3-1.4,3h-2.4c-0.2,0-1.3-3-1.3-3l-1.4-0.6c0,0-3,1.3-3.1,1.2L24,24c-0.1-0.1,1.3-3,1.3-3l-0.6-1.3c0,0-3-1.2-3-1.3v-2.4
			c0-0.2,3.1-1.3,3.1-1.3l0.6-1.3c0,0-1.3-2.9-1.2-3.1l1.7-1.7c0.1-0.1,3.1,1.2,3.1,1.2l1.4-0.5c0,0,1.2-3,1.4-3H34
			c0.2,0,1.3,3,1.3,3l1.4,0.5c0,0,3-1.3,3.1-1.2l1.7,1.7c0.1,0.1-1.3,3-1.3,3l0.6,1.3c0,0,3,1.2,3,1.3L43.9,18.4L43.9,18.4z"/>
	</g>
</g>
<g id="Layer_2">
	<g>
		<path fill="#5DAB34" d="M10,16.1c0,2.8,2.2,5,4.9,5s4.9-2.2,4.9-5c0-2.1-1.3-3.9-3-4.6l0.3-0.4c0,0,1.2-1.7,1.3-1.8
			c0.2-0.3,0.5-1.6-1.5,0.2c-2,1.8-5.3-1.5-5.5-1.1c-0.1,0.4,1.9,2.7,1.9,2.7l0.2,0.2C11.5,11.9,10,13.9,10,16.1z M14.7,16.2
			c-0.9-0.2-1.5-0.6-1.5-1.3c0-0.6,0.5-1.1,1.4-1.2v-0.7h0.8v0.6c0.5,0,0.9,0.1,1.2,0.2l-0.2,0.8c-0.2-0.1-0.6-0.2-1.2-0.2
			c-0.5,0-0.7,0.2-0.7,0.4c0,0.2,0.3,0.4,1,0.6c1,0.3,1.4,0.7,1.4,1.3c0,0.6-0.5,1.1-1.5,1.3v0.7h-0.8v-0.7c-0.6,0-1.1-0.1-1.4-0.3
			l0.2-0.8c0.3,0.2,0.8,0.3,1.4,0.3c0.5,0,0.8-0.2,0.8-0.4C15.6,16.6,15.3,16.4,14.7,16.2z"/>
		<path fill="#5DAB34" d="M43.6,10.4c-3,0-5.4,2.4-5.4,5.4c0,3,2.4,5.4,5.4,5.4c3,0,5.4-2.4,5.4-5.4S46.5,10.4,43.6,10.4z M43.6,20
			c-2.3,0-4.2-1.9-4.2-4.2c0-2.3,1.9-4.2,4.2-4.2c2.3,0,4.2,1.9,4.2,4.2C47.8,18.1,45.9,20,43.6,20z"/>
		<path fill="#5DAB34" d="M47,14.3c-0.2-0.3-0.5-0.4-0.8-0.2l-2.5,1.4l-2.8-1.4c-0.3-0.1-0.7,0-0.8,0.3c-0.1,0.3,0,0.7,0.3,0.8
			l3.1,1.5c0.1,0,0.2,0.1,0.3,0.1c0.1,0,0.2,0,0.3-0.1l2.8-1.5C47.1,15,47.2,14.6,47,14.3z"/>
		<path fill="#404040" d="M29,12.6c3.3-0.1,5.9-2.7,5.9-6s-2.6-5.9-5.9-6c-3.3,0.1-5.9,2.7-5.9,6S25.8,12.6,29,12.6z"/>
		<path fill="#3760AF" d="M44.3,22.5c-1.7,0-3.9-0.1-4.8-0.2c-0.3-0.4-0.7-1.1-1.1-1.6c-1.2-1.8-2.7-4-4.3-5.5
			c-1.2-1.1-2.2-1.9-3.6-2.3c0,0,0,0,0,0l-1.4,1.5L29,14.4l1.5,10l-1.4,2h0l0-0.1l0,0.1h0l-1.4-2l1.5-10L29,14.5L27.5,13
			c0,0,0,0,0,0c-1.4,0.4-2.4,1.1-3.6,2.3c-1.6,1.5-3,3.7-4.3,5.5c-0.3,0.5-0.8,1.2-1.1,1.6c-1,0.1-3.1,0.2-4.8,0.2
			c-1.3,0-2.3,1-2.3,2.3c0,1.3,1,2.3,2.3,2.3c0,0,0,0,0,0c5.7,0,6.6-0.5,7-0.6c0.7-0.3,1.3-1,2.1-2.2v6.9c0,1,0.4,2.2,0.5,2.3
			c0,0.1,0,22.3,0,22.3c0,1.5,1.1,2.8,2.6,2.8c1.5,0,2.8-1.2,2.8-2.8l0-19.2l0.3,0l0.3,0l0,19.2c0,1.5,1.2,2.8,2.8,2.8
			c1.5,0,2.6-1.2,2.6-2.8c0,0,0-22.2,0-22.3c0.1-0.1,0.5-1.3,0.5-2.3v-6.9c0.8,1.2,1.4,1.9,2.1,2.2c0.4,0.2,1.3,0.6,7,0.6
			c0,0,0,0,0,0c1.3,0,2.3-1,2.3-2.3C46.6,23.6,45.6,22.5,44.3,22.5z"/>
	</g>
</g>
</svg>
