<?xml version="1.0" encoding="utf-8"?>
<!-- Generator: Adobe Illustrator 18.0.0, SVG Export Plug-In . SVG Version: 6.00 Build 0)  -->
<!DOCTYPE svg PUBLIC "-//W3C//DTD SVG 1.1//EN" "http://www.w3.org/Graphics/SVG/1.1/DTD/svg11.dtd">
<svg version="1.1" id="Layer_3" xmlns="http://www.w3.org/2000/svg" xmlns:xlink="http://www.w3.org/1999/xlink" x="0px" y="0px"
	 width="60px" height="60px" viewBox="0 0 60 60" enable-background="new 0 0 60 60" xml:space="preserve">
<g>
	<g id="Rectangle_30_copy_2">
		<g>
			<path fill="#3760AF" d="M6.8,22.6h2.1V8.9h13.7V6.8H6.8C6.8,6.8,6.8,22.6,6.8,22.6z M8.9,37.4H6.8v15.8h15.8v-2.1H8.9V37.4z
				 M51.1,22.6h2.1V6.8H37.4v2.1h13.7V22.6z M14.2,28.9H1.5v2.1h12.7V28.9z M28.9,58.5h2.1V45.8h-2.1V58.5z M51.1,51.1H37.4v2.1
				h15.8V37.4h-2.1V51.1z M28.9,14.2h2.1V1.5h-2.1V14.2z M45.8,28.9v2.1h12.7v-2.1H45.8z"/>
		</g>
	</g>
</g>
<g>
	<g>
		<path fill="#5DAB34" d="M38.2,25.3c-0.9-0.8-1.9-1.4-3-1.9c-0.1,0.2-0.3,0.4-0.5,0.6c-0.2,0.2-0.5,0.5-0.8,0.6
			c0.3,0.1,0.6,0.2,0.9,0.4c0.3,0.1,0.4,0.5,0.2,0.8l0,0c-0.1,0.3-0.5,0.4-0.7,0.2c-2-0.9-4.2-0.8-5.2-0.6c-0.3,0-0.6-0.1-0.6-0.4v0
			c-0.1-0.3,0.1-0.6,0.5-0.7c0.2,0,0.4-0.1,0.6-0.1c-0.1-0.1-0.1-0.1-0.2-0.2c-0.3-0.3-0.6-0.7-0.8-1.2c0,0,0-0.1-0.1-0.1
			c-0.3,0-0.6,0.1-0.9,0.2c-1.7-1-3.7-1-4.9-0.9c-0.5,0-0.8,0.6-0.6,1.1l1,2.1c-1.1,1-2,2.2-2.4,3.5l-1.2,0c-0.4,0-0.7,0.3-0.7,0.7
			v2.8c0,0.3,0.2,0.5,0.4,0.7l1.6,0.8c0.7,1.8,2,3.4,3.9,4.5v2.4c0,0.5,0.4,0.9,0.9,0.9h2.2c0.3,0,0.7-0.2,0.8-0.5l0.6-1.3
			c0.5,0.1,1,0.1,1.5,0.1c0.8,0,1.6-0.1,2.3-0.2v1.1c0,0.5,0.4,0.9,0.9,0.9H36c0.3,0,0.6-0.2,0.8-0.5c1.2-2.2,2.5-4.5,3.4-6.8
			c0.5-1.2,0.7-2.4,0.5-3.7C40.6,28.6,39.7,26.7,38.2,25.3z M24.8,29.9c-0.6,0-1.1-0.5-1.1-1.1c0-0.6,0.5-1.1,1.1-1.1
			s1.1,0.5,1.1,1.1C26,29.4,25.5,29.9,24.8,29.9z"/>
		<path fill="#404040" d="M31,24.2c0.3,0.1,0.7,0.2,1.1,0.2c0.2,0,0.4,0,0.6-0.1c0.8-0.1,1.4-0.6,1.9-1.2c0.4-0.5,0.6-1.1,0.6-1.8
			c0-1.7-1.3-3-3-3c-1.7,0-3,1.3-3,3c0,0.4,0.1,0.8,0.3,1.2C29.7,23.3,30.2,23.9,31,24.2z"/>
	</g>
</g>
</svg>
