<?xml version="1.0" encoding="utf-8"?>
<!-- Generator: Adobe Illustrator 18.0.0, SVG Export Plug-In . SVG Version: 6.00 Build 0)  -->
<!DOCTYPE svg PUBLIC "-//W3C//DTD SVG 1.1//EN" "http://www.w3.org/Graphics/SVG/1.1/DTD/svg11.dtd">
<svg version="1.1" id="Layer_3" xmlns="http://www.w3.org/2000/svg" xmlns:xlink="http://www.w3.org/1999/xlink" x="0px" y="0px"
	 width="60px" height="60px" viewBox="0 0 60 60" enable-background="new 0 0 60 60" xml:space="preserve">
<g>
	<g id="Layer_1_95_">
		<g>
			<path fill="#333333" d="M34.7,34.7H7.5v-26h27.2v9.9l2.4,0.5V8.4c0.7-0.4,1.2-1.2,1.2-2c0-1.3-1.1-2.4-2.4-2.4H6.4
				C5.1,4,4,5.1,4,6.4c0,0.9,0.5,1.6,1.2,2v27.5c0,0.7,0.5,1.2,1.2,1.2h7.3L9.4,53c-0.3,1.3,0.4,2.6,1.7,2.9
				c0.2,0.1,0.4,0.1,0.6,0.1c1,0,2-0.7,2.3-1.8l4.6-17.1h5.2l4.6,17.1c0.3,1.1,1.2,1.8,2.3,1.8c0.2,0,0.4,0,0.6-0.1
				c1.3-0.3,2-1.6,1.7-2.9l-4.2-15.9h7.3c0.7,0,1.2-0.5,1.2-1.2v-7.1l-2.4-0.5L34.7,34.7L34.7,34.7z"/>
			<path fill="#404040" d="M44.8,21.2c2.3,0,4.2-1.9,4.2-4.2c0-2.3-1.9-4.2-4.2-4.2c-2.3,0-4.2,1.9-4.2,4.2
				C40.6,19.3,42.5,21.2,44.8,21.2z"/>
			<path fill="#3760AF" d="M55.8,35.1l-4.3-11.2c-0.3-0.9-1.2-1.5-2.2-1.5H47c-0.6,0-1.2,0.3-1.6,0.7l1.1,8.1l-1.7,1.4l-1.7-1.4
				l1.1-8.1c-0.4-0.4-1-0.7-1.6-0.7h-2.1l-13.5-2.9c-1.3-0.3-2.5,0.5-2.8,1.8c-0.3,1.3,0.5,2.5,1.8,2.8L39.7,27c0.1,0,0.3,0,0.4,0.1
				V38l-0.9,15.5c-0.1,1.3,0.9,2.4,2.2,2.5c0,0,0.1,0,0.1,0c1.2,0,2.3-1,2.4-2.2l0.8-13.3l0.8,13.3c0.1,1.3,1.1,2.2,2.4,2.2
				c0,0,0.1,0,0.1,0c1.3-0.1,2.3-1.2,2.2-2.5L49.4,38v-6.6l2.1,5.4c0.5,1.2,1.8,1.8,3.1,1.4C55.7,37.7,56.3,36.3,55.8,35.1z"/>
			<path fill="#5DAB34" d="M9.3,20.9v10c0,0.7,0.5,1.2,1.2,1.2c0.7,0,1.2-0.5,1.2-1.2v-10c0-0.7-0.5-1.2-1.2-1.2S9.3,20.2,9.3,20.9z
				"/>
			<path fill="#5DAB34" d="M14.6,12.6v18.3c0,0.7,0.5,1.2,1.2,1.2c0.7,0,1.2-0.5,1.2-1.2V12.6c0-0.7-0.5-1.2-1.2-1.2
				C15.2,11.4,14.6,11.9,14.6,12.6z"/>
			<path fill="#5DAB34" d="M19.9,17.3v13.6c0,0.7,0.5,1.2,1.2,1.2c0.7,0,1.2-0.5,1.2-1.2V17.3c0-0.7-0.5-1.2-1.2-1.2
				C20.5,16.1,19.9,16.7,19.9,17.3z"/>
		</g>
	</g>
</g>
</svg>
