<?xml version="1.0" encoding="utf-8"?>
<!-- Generator: Adobe Illustrator 18.0.0, SVG Export Plug-In . SVG Version: 6.00 Build 0)  -->
<!DOCTYPE svg PUBLIC "-//W3C//DTD SVG 1.1//EN" "http://www.w3.org/Graphics/SVG/1.1/DTD/svg11.dtd">
<svg version="1.1" xmlns="http://www.w3.org/2000/svg" xmlns:xlink="http://www.w3.org/1999/xlink" x="0px" y="0px" width="60px"
	 height="60px" viewBox="0 0 60 60" enable-background="new 0 0 60 60" xml:space="preserve">
<g id="Layer_4" display="none">
	<g display="inline">
		<path fill="#5DAB34" d="M19.7,26.5L16,34.8c-0.1,0.2-0.3,0.3-0.6,0.3h-1.9c-0.2,0-0.5-0.1-0.6-0.3l-1.7-4
			c-0.2-0.4-0.3-0.8-0.5-1.1c-0.2,0.4-0.3,0.8-0.5,1.2l-1.8,4c-0.1,0.2-0.3,0.3-0.6,0.3H6c-0.3,0-0.5-0.1-0.6-0.3L2,26.5
			C2,26.3,2,26.1,2.1,26c0.1-0.1,0.3-0.2,0.5-0.2h2.1c0.3,0,0.5,0.2,0.6,0.4l1.5,4.2c0.1,0.4,0.2,0.7,0.4,1c0.1-0.3,0.3-0.7,0.4-1
			l1.9-4.3c0.1-0.2,0.3-0.3,0.6-0.3h1.7c0.3,0,0.5,0.1,0.6,0.3l1.8,4.2c0.2,0.4,0.3,0.7,0.4,1.1c0.1-0.3,0.2-0.7,0.4-1l1.6-4.2
			c0.1-0.2,0.3-0.4,0.6-0.4h2c0.2,0,0.4,0.1,0.5,0.2C19.7,26.1,19.7,26.3,19.7,26.5z M39.3,26.5l-3.7,8.3c-0.1,0.2-0.3,0.3-0.6,0.3
			h-1.9c-0.2,0-0.5-0.1-0.6-0.3l-1.7-4c-0.2-0.4-0.3-0.8-0.5-1.1c-0.2,0.4-0.3,0.8-0.5,1.2l-1.8,4c-0.1,0.2-0.3,0.3-0.6,0.3h-1.9
			c-0.3,0-0.5-0.1-0.6-0.3l-3.4-8.3c-0.1-0.2,0-0.3,0.1-0.5c0.1-0.1,0.3-0.2,0.5-0.2h2.1c0.3,0,0.5,0.2,0.6,0.4l1.5,4.2
			c0.1,0.4,0.2,0.7,0.4,1c0.1-0.3,0.3-0.7,0.4-1l1.9-4.3c0.1-0.2,0.3-0.3,0.6-0.3h1.7c0.3,0,0.5,0.1,0.6,0.3l1.8,4.2
			c0.2,0.4,0.3,0.7,0.4,1.1c0.1-0.3,0.2-0.7,0.4-1l1.6-4.2c0.1-0.2,0.3-0.4,0.6-0.4h2c0.2,0,0.4,0.1,0.5,0.2
			C39.4,26.1,39.4,26.3,39.3,26.5z M59,26.5l-3.7,8.3c-0.1,0.2-0.3,0.3-0.6,0.3h-1.9c-0.2,0-0.5-0.1-0.6-0.3l-1.7-4
			c-0.2-0.4-0.3-0.8-0.5-1.1c-0.2,0.4-0.3,0.8-0.5,1.2l-1.8,4c-0.1,0.2-0.3,0.3-0.6,0.3h-1.9c-0.3,0-0.5-0.1-0.6-0.3l-3.4-8.3
			c-0.1-0.2,0-0.3,0.1-0.5c0.1-0.1,0.3-0.2,0.5-0.2H44c0.3,0,0.5,0.2,0.6,0.4l1.5,4.2c0.1,0.4,0.2,0.7,0.4,1c0.1-0.3,0.3-0.7,0.4-1
			l1.9-4.3c0.1-0.2,0.3-0.3,0.6-0.3H51c0.3,0,0.5,0.1,0.6,0.3l1.8,4.2c0.2,0.4,0.3,0.7,0.4,1.1c0.1-0.3,0.2-0.7,0.4-1l1.6-4.2
			c0.1-0.2,0.3-0.4,0.6-0.4h2c0.2,0,0.4,0.1,0.5,0.2C59,26.1,59,26.3,59,26.5z"/>
		<g>
			<path fill="#3760AF" d="M7.8,21.6c0.6-1.6,1.4-3.1,2.3-4.5c0.1,0,0.3,0.1,0.4,0.1h4.1c-0.4,1.4-0.8,2.9-1.1,4.4h4.5
				c0.3-1.5,0.7-3,1.2-4.4h22c0.5,1.4,0.9,2.9,1.2,4.4h4.5c-0.3-1.5-0.6-3-1.1-4.4h4.1c0.1,0,0.3-0.1,0.4-0.1
				c0.9,1.4,1.7,2.9,2.3,4.5h4.7C53.9,10.1,43.1,1.8,30.4,1.8S6.9,10.1,3.2,21.6H7.8z M47,12.8h-2.6c-0.6-1.2-1.2-2.3-1.9-3.3
				C44.1,10.4,45.6,11.5,47,12.8z M30.4,6.2c3.4,0,6.6,2.5,8.9,6.6H21.5C23.8,8.7,27,6.2,30.4,6.2z M18.3,9.4
				c-0.7,1-1.3,2.1-1.9,3.3h-2.6C15.2,11.5,16.7,10.4,18.3,9.4z"/>
			<path fill="#3760AF" d="M52.9,39.2c-0.6,1.6-1.4,3.1-2.3,4.5c-0.1,0-0.3-0.1-0.4-0.1h-4.1c0.4-1.4,0.8-2.9,1.1-4.4h-4.5
				c-0.3,1.5-0.7,3-1.2,4.4h-22c-0.5-1.4-0.9-2.9-1.2-4.4h-4.5c0.3,1.5,0.6,3,1.1,4.4h-4.1c-0.1,0-0.3,0.1-0.4,0.1
				c-0.9-1.4-1.7-2.9-2.3-4.5H3.2C6.9,50.7,17.7,59,30.4,59s23.5-8.3,27.2-19.8H52.9z M13.8,48h2.6c0.6,1.2,1.2,2.3,1.9,3.3
				C16.7,50.4,15.2,49.3,13.8,48z M30.4,54.6c-3.4,0-6.6-2.5-8.9-6.6h17.9C37,52.1,33.8,54.6,30.4,54.6z M42.5,51.3
				c0.7-1,1.3-2.1,1.9-3.3H47C45.6,49.3,44.1,50.4,42.5,51.3z"/>
		</g>
	</g>
</g>
<g id="Layer_2" display="none">
	<path display="inline" fill="#010002" d="M33.7,6.5l3.7,1l-0.2,0.6l-3.7-1L33.7,6.5z M45.1,2.1l0.5,0.3l-2.1,3.3L43,5.3L45.1,2.1z
		 M41,1l0.2,3.9l-0.6,0L40.4,1L41,1z M29.2,9.9c2.3,0,4.2,1.9,4.2,4.2s-1.9,4.2-4.2,4.2s-4.2-1.9-4.2-4.2
		C24.9,11.8,26.8,9.9,29.2,9.9z M36.5,2.6l2.4,3L38.4,6L36,3L36.5,2.6z M41.2,6.6c-1.5,0-2.7,1.3-2.7,2.9c0,1.2,0.7,2.7,1.6,3.4
		c-0.1,0.1-0.1,0.2-0.1,0.3v1.7c0,0.3,0.3,0.6,0.7,0.6h0.8c0.4,0,0.7-0.3,0.7-0.6v-1.7c0-0.1,0-0.2-0.1-0.3c1-0.7,1.6-2.3,1.6-3.4
		C43.9,7.9,42.7,6.6,41.2,6.6z M42,12.7c-0.1,0-0.2-0.1-0.3-0.1h-0.8c-0.1,0-0.2,0-0.3,0.1c-0.9-0.6-1.6-2.1-1.6-3.2
		c0-1.4,1-2.5,2.3-2.5c1.3,0,2.3,1.1,2.3,2.5C43.6,10.6,42.9,12.1,42,12.7z M44.7,7.1l3.6-1.4l0.2,0.6l-3.6,1.4L44.7,7.1z
		 M28.3,19.7l0.4,0.1l0.1,3.4l0.6-3.3l0.4,0l0.4-0.6L28.1,19L28.3,19.7z M34.7,20.1c-0.1-0.1-0.2-0.2-0.3-0.3
		c-0.4-0.3-1-0.5-1.8-0.4l-3.7,4.1l-2.7-4.7c-1.3-0.2-2.2-0.4-2.2-0.4l-3-0.6l2.9-7.7c0.4-1.1-0.2-2.3-1.2-2.7
		c-1.1-0.4-2.3,0.2-2.7,1.3l-3.7,9.8c-0.2,0.5-0.2,1.2,0.1,1.7c0.3,0.5,0.7,0.9,1.3,1l5.3,1.4l0,33.8c0,1.4,1.2,2.5,2.6,2.5
		c1.4,0,2.4-1.1,2.4-2.5l0-17.6c0,0,0.1-0.9,1-0.9c0.9,0,0.9,0.9,0.9,0.9l0,17.6c0,1.4,1.1,2.5,2.6,2.5c1.4,0,2.6-1.1,2.6-2.5
		c0-25.2,0.1-25.2,0-29.9l5.3,5.3c0.4,0.4,0.9,0.6,1.5,0.6c0.5,0,1.1-0.2,1.5-0.6c0.8-0.8,0.8-2.3,0-3.1L34.7,20.1z M28.9,31
		c-0.4,0-0.7-0.3-0.7-0.7c0-0.4,0.3-0.7,0.7-0.7s0.7,0.3,0.7,0.7C29.6,30.7,29.3,31,28.9,31z M28.9,28.5c-0.4,0-0.7-0.3-0.7-0.7
		c0-0.4,0.3-0.7,0.7-0.7s0.7,0.3,0.7,0.7C29.6,28.2,29.3,28.5,28.9,28.5z M28.9,26.4c-0.4,0-0.7-0.3-0.7-0.7c0-0.4,0.3-0.7,0.7-0.7
		s0.7,0.3,0.7,0.7C29.6,26.1,29.3,26.4,28.9,26.4z"/>
</g>
<g id="Layer_3">
	<g>
		<path fill="#404040" d="M30.3,20.5c-2.4,0-4.4,2-4.4,4.4c0,2.4,2,4.4,4.4,4.4c2.4,0,4.4-2,4.4-4.4C34.7,22.5,32.7,20.5,30.3,20.5z
			"/>
		<path fill="#3760AF" d="M38.8,16.1c-1,0-1.8,0.8-1.8,1.8v8.6c0,0,0,0.1-0.1,0.2l-3.4,3.6h-6.3l-3.4-3.6c0,0-0.1-0.1-0.1-0.2V18
			c0-1-0.8-1.8-1.8-1.8c-1,0-1.8,0.8-1.8,1.8v8.6c0,0.9,0.4,2,1.1,2.6l4,4.2v22.4c0,1.2,1,2.2,2.2,2.2s2.2-1,2.2-2.2v-11h1.7v11
			c0,1.2,1,2.2,2.2,2.2c1.2,0,2.2-1,2.2-2.2l0-22.4l4-4.2c0.6-0.6,1.1-1.7,1.1-2.6V18C40.6,17,39.8,16.1,38.8,16.1z"/>
		<path fill="#5DAB34" d="M30.3,5c0.3,0,0.6-0.3,0.6-0.6V2.6c0-0.3-0.3-0.6-0.6-0.6c-0.3,0-0.6,0.3-0.6,0.6v1.9
			C29.7,4.8,30,5,30.3,5z"/>
		<path fill="#5DAB34" d="M27.3,13.4L27.3,13.4c0.4,0.4,0.7,0.7,0.8,1.2c-0.3,0.1-0.5,0.4-0.5,0.8c0,0.5,0.4,0.9,0.9,0.9h0.1
			c0.3,0.6,1,1.1,1.7,1.1c0.8,0,1.4-0.4,1.7-1.1h0.1c0.5,0,0.9-0.4,0.9-0.9c0-0.3-0.2-0.6-0.5-0.8c0.1-0.5,0.3-0.8,0.7-1.1l0.1-0.1
			c0.6-0.6,1.3-1.3,1.3-3.1c0-1.2-0.5-2.5-1.3-3.2c-0.8-0.7-1.9-1.1-3-1.1s-2.2,0.4-3,1.1c-0.8,0.7-1.3,2-1.3,3.2
			C26,12.1,26.7,12.9,27.3,13.4z"/>
		<path fill="#5DAB34" d="M22.6,10.3h1.5c0.3,0,0.6-0.3,0.6-0.6c0-0.3-0.3-0.6-0.6-0.6h-1.5c-0.3,0-0.6,0.3-0.6,0.6
			C22,10,22.2,10.3,22.6,10.3z"/>
		<path fill="#5DAB34" d="M25.4,6.2c0.1,0.1,0.3,0.2,0.4,0.2s0.3-0.1,0.4-0.2c0.2-0.2,0.2-0.6,0-0.8l-1.2-1.2
			c-0.2-0.2-0.6-0.2-0.8,0c-0.2,0.2-0.2,0.6,0,0.8L25.4,6.2z"/>
		<path fill="#5DAB34" d="M34.8,6.4c0.2,0,0.3-0.1,0.4-0.2l1.2-1.2c0.2-0.2,0.2-0.6,0-0.8c-0.2-0.2-0.6-0.2-0.8,0l-1.2,1.2
			c-0.2,0.2-0.2,0.6,0,0.8C34.5,6.4,34.6,6.4,34.8,6.4z"/>
		<path fill="#5DAB34" d="M35.9,9.7c0,0.3,0.3,0.6,0.6,0.6h1.5c0.3,0,0.6-0.3,0.6-0.6c0-0.3-0.3-0.6-0.6-0.6h-1.5
			C36.2,9.1,35.9,9.4,35.9,9.7z"/>
	</g>
</g>
</svg>
