<?xml version="1.0" encoding="utf-8"?>
<!-- Generator: Adobe Illustrator 18.0.0, SVG Export Plug-In . SVG Version: 6.00 Build 0)  -->
<!DOCTYPE svg PUBLIC "-//W3C//DTD SVG 1.1//EN" "http://www.w3.org/Graphics/SVG/1.1/DTD/svg11.dtd">
<svg version="1.1" id="Layer_4" xmlns="http://www.w3.org/2000/svg" xmlns:xlink="http://www.w3.org/1999/xlink" x="0px" y="0px"
	 width="60px" height="60px" viewBox="0 0 60 60" enable-background="new 0 0 60 60" xml:space="preserve">
<g>
	<path fill="#5DAB34" d="M19.7,26.5L16,34.8c-0.1,0.2-0.3,0.3-0.6,0.3h-1.9c-0.2,0-0.5-0.1-0.6-0.3l-1.7-4c-0.2-0.4-0.3-0.8-0.5-1.1
		c-0.2,0.4-0.3,0.8-0.5,1.2l-1.8,4c-0.1,0.2-0.3,0.3-0.6,0.3H6c-0.3,0-0.5-0.1-0.6-0.3L2,26.5C2,26.3,2,26.1,2.1,26
		c0.1-0.1,0.3-0.2,0.5-0.2h2.1c0.3,0,0.5,0.2,0.6,0.4l1.5,4.2c0.1,0.4,0.2,0.7,0.4,1c0.1-0.3,0.3-0.7,0.4-1l1.9-4.3
		c0.1-0.2,0.3-0.3,0.6-0.3h1.7c0.3,0,0.5,0.1,0.6,0.3l1.8,4.2c0.2,0.4,0.3,0.7,0.4,1.1c0.1-0.3,0.2-0.7,0.4-1l1.6-4.2
		c0.1-0.2,0.3-0.4,0.6-0.4h2c0.2,0,0.4,0.1,0.5,0.2C19.7,26.1,19.7,26.3,19.7,26.5z M39.3,26.5l-3.7,8.3c-0.1,0.2-0.3,0.3-0.6,0.3
		h-1.9c-0.2,0-0.5-0.1-0.6-0.3l-1.7-4c-0.2-0.4-0.3-0.8-0.5-1.1c-0.2,0.4-0.3,0.8-0.5,1.2l-1.8,4c-0.1,0.2-0.3,0.3-0.6,0.3h-1.9
		c-0.3,0-0.5-0.1-0.6-0.3l-3.4-8.3c-0.1-0.2,0-0.3,0.1-0.5c0.1-0.1,0.3-0.2,0.5-0.2h2.1c0.3,0,0.5,0.2,0.6,0.4l1.5,4.2
		c0.1,0.4,0.2,0.7,0.4,1c0.1-0.3,0.3-0.7,0.4-1l1.9-4.3c0.1-0.2,0.3-0.3,0.6-0.3h1.7c0.3,0,0.5,0.1,0.6,0.3l1.8,4.2
		c0.2,0.4,0.3,0.7,0.4,1.1c0.1-0.3,0.2-0.7,0.4-1l1.6-4.2c0.1-0.2,0.3-0.4,0.6-0.4h2c0.2,0,0.4,0.1,0.5,0.2
		C39.4,26.1,39.4,26.3,39.3,26.5z M59,26.5l-3.7,8.3c-0.1,0.2-0.3,0.3-0.6,0.3h-1.9c-0.2,0-0.5-0.1-0.6-0.3l-1.7-4
		c-0.2-0.4-0.3-0.8-0.5-1.1c-0.2,0.4-0.3,0.8-0.5,1.2l-1.8,4c-0.1,0.2-0.3,0.3-0.6,0.3h-1.9c-0.3,0-0.5-0.1-0.6-0.3l-3.4-8.3
		c-0.1-0.2,0-0.3,0.1-0.5c0.1-0.1,0.3-0.2,0.5-0.2H44c0.3,0,0.5,0.2,0.6,0.4l1.5,4.2c0.1,0.4,0.2,0.7,0.4,1c0.1-0.3,0.3-0.7,0.4-1
		l1.9-4.3c0.1-0.2,0.3-0.3,0.6-0.3H51c0.3,0,0.5,0.1,0.6,0.3l1.8,4.2c0.2,0.4,0.3,0.7,0.4,1.1c0.1-0.3,0.2-0.7,0.4-1l1.6-4.2
		c0.1-0.2,0.3-0.4,0.6-0.4h2c0.2,0,0.4,0.1,0.5,0.2C59,26.1,59,26.3,59,26.5z"/>
	<g>
		<path fill="#3760AF" d="M7.8,21.6c0.6-1.6,1.4-3.1,2.3-4.5c0.1,0,0.3,0.1,0.4,0.1h4.1c-0.4,1.4-0.8,2.9-1.1,4.4h4.5
			c0.3-1.5,0.7-3,1.2-4.4h22c0.5,1.4,0.9,2.9,1.2,4.4h4.5c-0.3-1.5-0.6-3-1.1-4.4h4.1c0.1,0,0.3-0.1,0.4-0.1
			c0.9,1.4,1.7,2.9,2.3,4.5h4.7C53.9,10.1,43.1,1.8,30.4,1.8S6.9,10.1,3.2,21.6H7.8z M47,12.8h-2.6c-0.6-1.2-1.2-2.3-1.9-3.3
			C44.1,10.4,45.6,11.5,47,12.8z M30.4,6.2c3.4,0,6.6,2.5,8.9,6.6H21.5C23.8,8.7,27,6.2,30.4,6.2z M18.3,9.4c-0.7,1-1.3,2.1-1.9,3.3
			h-2.6C15.2,11.5,16.7,10.4,18.3,9.4z"/>
		<path fill="#3760AF" d="M52.9,39.2c-0.6,1.6-1.4,3.1-2.3,4.5c-0.1,0-0.3-0.1-0.4-0.1h-4.1c0.4-1.4,0.8-2.9,1.1-4.4h-4.5
			c-0.3,1.5-0.7,3-1.2,4.4h-22c-0.5-1.4-0.9-2.9-1.2-4.4h-4.5c0.3,1.5,0.6,3,1.1,4.4h-4.1c-0.1,0-0.3,0.1-0.4,0.1
			c-0.9-1.4-1.7-2.9-2.3-4.5H3.2C6.9,50.7,17.7,59,30.4,59s23.5-8.3,27.2-19.8H52.9z M13.8,48h2.6c0.6,1.2,1.2,2.3,1.9,3.3
			C16.7,50.4,15.2,49.3,13.8,48z M30.4,54.6c-3.4,0-6.6-2.5-8.9-6.6h17.9C37,52.1,33.8,54.6,30.4,54.6z M42.5,51.3
			c0.7-1,1.3-2.1,1.9-3.3H47C45.6,49.3,44.1,50.4,42.5,51.3z"/>
	</g>
</g>
</svg>
