<?xml version="1.0" encoding="utf-8"?>
<!-- Generator: Adobe Illustrator 18.0.0, SVG Export Plug-In . SVG Version: 6.00 Build 0)  -->
<!DOCTYPE svg PUBLIC "-//W3C//DTD SVG 1.1//EN" "http://www.w3.org/Graphics/SVG/1.1/DTD/svg11.dtd">
<svg version="1.1" id="Layer_2" xmlns="http://www.w3.org/2000/svg" xmlns:xlink="http://www.w3.org/1999/xlink" x="0px" y="0px"
	 width="60px" height="60px" viewBox="0 0 60 60" enable-background="new 0 0 60 60" xml:space="preserve">
<g>
	<path fill="#5DAB34" d="M46.6,2c-6.3,0-11.4,5.1-11.4,11.4c0,6.3,5.1,11.4,11.4,11.4c6.3,0,11.4-5.1,11.4-11.4
		C58,7.1,52.9,2,46.6,2z M46.6,20.9c-4.1,0-7.5-3.4-7.5-7.5c0-4.1,3.4-7.5,7.5-7.5c4.1,0,7.5,3.4,7.5,7.5
		C54.1,17.5,50.7,20.9,46.6,20.9z"/>
	<path fill="#5DAB34" d="M50.9,14.1L48.2,13c-0.1-0.3-0.3-0.6-0.6-0.9V7.8c0-0.5-0.4-1-1-1c-0.5,0-1,0.4-1,1v4.3
		c-0.4,0.3-0.7,0.7-0.7,1.3c0,0.9,0.7,1.6,1.6,1.6c0.3,0,0.6-0.1,0.8-0.2l2.7,1.1c0.1,0.1,0.3,0.1,0.4,0.1c0.4,0,0.7-0.2,0.9-0.6
		C51.6,14.9,51.4,14.3,50.9,14.1z"/>
	<path fill="#404040" d="M22.4,37.8c6.8,0,12.2-7.6,12.2-14.2c0-6.7-5.5-12.2-12.2-12.2c-6.7,0-12.2,5.5-12.2,12.2
		C10.3,30.2,15.6,37.8,22.4,37.8z M22.4,15.8c4.3,0,7.8,3.5,7.8,7.8c0,4.4-3.6,9.9-7.8,9.9c-4.2,0-7.8-5.4-7.8-9.9
		C14.6,19.3,18.1,15.8,22.4,15.8z"/>
	<path fill="#3760AF" d="M34.3,32.1c0,0.2,0,0.4,0,0.6c0,3.7-5.4,11.9-8.9,16.9L24,42.6l1.7-1.7c0.1-0.1,0.1-0.2,0-0.3l-0.8-0.8
		c-0.3-0.3-0.8-0.5-1.2-0.5h-2.4c-0.5,0-0.9,0.2-1.2,0.5l-0.7,0.7c-0.1,0.1-0.1,0.2-0.1,0.3s0,0.2,0.1,0.3l1.6,1.6l-1.4,7.1
		c-3.5-5-8.9-13.3-8.9-16.9c0-0.2,0-0.4,0-0.6c-4.2,2.4-7,6.9-7,12.1v9.3C3.5,56.5,6,59,9.1,59h26.7c3.1,0,5.5-2.5,5.5-5.5v-9.3
		C41.3,39,38.5,34.5,34.3,32.1z"/>
</g>
</svg>
