<?xml version="1.0" encoding="utf-8"?>
<!-- Generator: Adobe Illustrator 18.0.0, SVG Export Plug-In . SVG Version: 6.00 Build 0)  -->
<!DOCTYPE svg PUBLIC "-//W3C//DTD SVG 1.1//EN" "http://www.w3.org/Graphics/SVG/1.1/DTD/svg11.dtd">
<svg version="1.1" id="Layer_2" xmlns="http://www.w3.org/2000/svg" xmlns:xlink="http://www.w3.org/1999/xlink" x="0px" y="0px"
	 width="60px" height="60px" viewBox="0 0 60 60" enable-background="new 0 0 60 60" xml:space="preserve">
<g>
	<path fill="#5DAB34" d="M40.3,16.9c-0.1-0.3-0.3-0.7-0.6-0.9c-0.3-0.3-0.7-0.4-1-0.5l-6.1-1.2l1.8,1.2l-2.8,8.7L30,17.8l-1.6,6.5
		l-2.8-8.7l1.8-1.2l-6.1,1.2c-0.4,0.1-0.7,0.2-1,0.5c-0.3,0.3-0.5,0.6-0.6,0.9l-1.8,7.9l3.4,1.2c1.1,1.2,4.3,2,8.1,2.1H30h0.6
		c3.8-0.1,7-0.9,8.1-2.1l3.4-1.2L40.3,16.9z"/>
	<polygon fill="#3760AF" points="30,15.2 28.6,15.8 30,17.8 31.4,15.8 	"/>
	<path fill="#404040" d="M35.2,7.4C35.2,3.8,33.7,1,30,1c-3.7,0-5.2,2.8-5.2,6.4c-0.4,0.2-0.6,0.7-0.3,1.7c0.2,0.5,0.5,0.9,0.8,1.2
		C26.4,13,28.5,15,30,15c1.5,0,3.6-2,4.7-4.7c0.3-0.2,0.6-0.7,0.8-1.2C35.9,8.1,35.6,7.6,35.2,7.4z"/>
	<path fill="#404040" d="M50.9,36.2c-0.3-1.2-1.4-2-2.6-1.9l-1.3-2.9H30.5v-2.1h-1v2.1H13.1l-1.3,2.9c-1.2-0.1-2.3,0.7-2.6,1.9
		C8.8,37.6,9.6,39,11,39.4c1.4,0.4,2.8-0.5,3.1-1.9c0.3-1.2-0.3-2.4-1.4-3l1.1-2.2h15.6v2.1c-1.2,0.2-2.1,1.3-2.1,2.5
		c0,1.4,1.2,2.6,2.6,2.6l0,0l0,0c1.4,0,2.6-1.2,2.6-2.6c0-1.3-0.9-2.3-2.1-2.5v-2.1h15.6l1.1,2.2c-1.1,0.5-1.7,1.8-1.4,3
		c0.4,1.4,1.8,2.2,3.1,1.9C50.4,39,51.2,37.6,50.9,36.2z M13.2,37.3c-0.2,0.9-1.1,1.4-1.9,1.1c-0.9-0.2-1.4-1.1-1.1-1.9
		c0.2-0.9,1.1-1.4,1.9-1.1C12.9,35.6,13.4,36.4,13.2,37.3z M31.6,37c0,0.9-0.7,1.6-1.6,1.6l0,0l0,0c-0.9,0-1.6-0.7-1.6-1.6
		s0.7-1.6,1.6-1.6l0,0l0,0C30.9,35.4,31.6,36.1,31.6,37z M48.8,38.4c-0.9,0.2-1.7-0.3-1.9-1.1c-0.2-0.8,0.3-1.7,1.1-1.9
		c0.9-0.2,1.7,0.3,1.9,1.1C50.1,37.3,49.6,38.2,48.8,38.4z"/>
	<g>
		<path fill="#3760AF" d="M15.9,51.5c0-0.2-0.2-0.4-0.4-0.6c-0.2-0.2-0.4-0.3-0.7-0.3l-4.5-0.9c0.7-0.6,1.4-1.5,1.9-2.6
			c0.2-0.2,0.4-0.4,0.5-0.8c0.3-0.7,0.1-1-0.2-1.1c0-2.4-1-4.3-3.5-4.3c-2.5,0-3.5,1.9-3.5,4.3c-0.3,0.1-0.4,0.5-0.2,1.1
			c0.1,0.3,0.4,0.6,0.5,0.8c0.4,1.1,1.2,2,1.9,2.6l-4.5,0.9c-0.3,0-0.5,0.1-0.7,0.3c-0.2,0.2-0.3,0.4-0.4,0.6L1,56.8l2.3,0.8
			C4,58.3,6.1,58.9,8.7,59h0.4h0.4c2.5-0.1,4.6-0.6,5.4-1.4l2.3-0.8L15.9,51.5z"/>
		<path fill="#3760AF" d="M57.8,51.5c-0.1-0.2-0.2-0.4-0.4-0.6c-0.2-0.2-0.4-0.3-0.7-0.3l-4.5-0.9c0.7-0.6,1.4-1.5,1.9-2.6
			c0.2-0.2,0.4-0.4,0.5-0.8c0.3-0.7,0.1-1-0.2-1.1c0-2.4-1-4.3-3.5-4.3c-2.5,0-3.5,1.9-3.5,4.3c-0.3,0.1-0.4,0.5-0.2,1.1
			c0.1,0.3,0.4,0.6,0.5,0.8c0.4,1.1,1.2,2,1.9,2.6l-4.5,0.9c-0.3,0-0.5,0.1-0.7,0.3c-0.2,0.2-0.3,0.4-0.4,0.6l-1.2,5.3l2.3,0.8
			c0.8,0.8,2.9,1.4,5.4,1.4h0.4h0.4c2.5-0.1,4.6-0.6,5.4-1.4l2.3-0.8L57.8,51.5z"/>
		<path fill="#3760AF" d="M36.9,51.5c-0.1-0.2-0.2-0.4-0.4-0.6c-0.2-0.2-0.4-0.3-0.7-0.3l-4.5-0.9c0.7-0.6,1.4-1.5,1.9-2.6
			c0.2-0.2,0.4-0.4,0.5-0.8c0.3-0.7,0.1-1-0.2-1.1c0-2.4-1-4.3-3.5-4.3c-2.5,0-3.5,1.9-3.5,4.3c-0.3,0.1-0.4,0.5-0.2,1.1
			c0.1,0.3,0.4,0.6,0.5,0.8c0.4,1.1,1.2,2,1.9,2.6l-4.5,0.9c-0.3,0-0.5,0.1-0.7,0.3c-0.2,0.2-0.3,0.4-0.4,0.6l-1.2,5.3l2.3,0.8
			c0.8,0.8,2.9,1.4,5.4,1.4H30h0.4c2.5-0.1,4.6-0.6,5.4-1.4l2.3-0.8L36.9,51.5z"/>
	</g>
</g>
</svg>
