<?xml version="1.0" encoding="utf-8"?>
<!-- Generator: Adobe Illustrator 18.0.0, SVG Export Plug-In . SVG Version: 6.00 Build 0)  -->
<!DOCTYPE svg PUBLIC "-//W3C//DTD SVG 1.1//EN" "http://www.w3.org/Graphics/SVG/1.1/DTD/svg11.dtd">
<svg version="1.1" id="Layer_2" xmlns="http://www.w3.org/2000/svg" xmlns:xlink="http://www.w3.org/1999/xlink" x="0px" y="0px"
	 width="60px" height="60px" viewBox="0 0 60 60" enable-background="new 0 0 60 60" xml:space="preserve">
<g>
	<g id="Layer_1_153_">
		<g>
			<path fill="#3760AF" d="M30,14.9c1.5,0,2.6-1.2,2.6-2.6V5.6C32.6,4.2,31.5,3,30,3c-1.5,0-2.6,1.2-2.6,2.6V7h-6.3v5.3h6.3
				C27.4,13.7,28.5,14.9,30,14.9z"/>
			<path fill="#3760AF" d="M44.2,14.9c1.5,0,2.6-1.2,2.6-2.6V5.6c0-1.5-1.2-2.6-2.6-2.6c-1.5,0-2.6,1.2-2.6,2.6V7h-6.3v5.3h6.3
				C41.5,13.7,42.7,14.9,44.2,14.9z"/>
			<path fill="#3760AF" d="M56.4,7h-6.9v5.3h4.3v7.9H6.3v-7.9h6.9c0,1.5,1.2,2.6,2.6,2.6s2.6-1.2,2.6-2.6V5.6c0-1.5-1.2-2.6-2.6-2.6
				s-2.6,1.2-2.6,2.6V7H3.6C2.2,7,1,8.1,1,9.6v39.5c0,1.5,1.2,2.6,2.6,2.6h13.5c-1.1-1.6-2-3.4-2.5-5.3H6.3V22.8h47.5v23.7h-8.4
				c-0.5,1.9-1.3,3.7-2.5,5.3h13.5c1.5,0,2.6-1.2,2.6-2.6V9.6C59,8.1,57.8,7,56.4,7z"/>
			<path fill="#5DAB34" d="M36.2,44.8l-4.2-2.4c-0.1-0.6-0.4-1.2-0.9-1.5v-7.3c0-0.7-0.5-1.2-1.2-1.2s-1.2,0.5-1.2,1.2v7.3
				c-0.5,0.4-0.9,1-0.9,1.7c0,1.2,0.9,2.1,2.1,2.1c0.3,0,0.6-0.1,0.9-0.2l4.2,2.4c0.2,0.1,0.4,0.2,0.6,0.2c0.4,0,0.8-0.2,1-0.6
				C37,45.8,36.8,45.1,36.2,44.8z M30,43.4c-0.5,0-0.9-0.4-0.9-0.9c0-0.5,0.4-0.9,0.9-0.9s0.9,0.4,0.9,0.9
				C30.9,43,30.5,43.4,30,43.4z"/>
			<path fill="#5DAB34" d="M30,29.4c-7.3,0-13.2,5.9-13.2,13.2c0,7.3,5.9,13.2,13.2,13.2c7.3,0,13.2-5.9,13.2-13.2
				C43.2,35.3,37.3,29.4,30,29.4z M30,53.3c-5.9,0-10.8-4.8-10.8-10.8S24.1,31.8,30,31.8c5.9,0,10.8,4.8,10.8,10.8
				C40.8,48.5,35.9,53.3,30,53.3z"/>
		</g>
	</g>
</g>
</svg>
