<?xml version="1.0" encoding="utf-8"?>
<!-- Generator: Adobe Illustrator 18.0.0, SVG Export Plug-In . SVG Version: 6.00 Build 0)  -->
<!DOCTYPE svg PUBLIC "-//W3C//DTD SVG 1.1//EN" "http://www.w3.org/Graphics/SVG/1.1/DTD/svg11.dtd">
<svg version="1.1" id="Layer_5" xmlns="http://www.w3.org/2000/svg" xmlns:xlink="http://www.w3.org/1999/xlink" x="0px" y="0px"
	 width="60px" height="60px" viewBox="0 0 60 60" enable-background="new 0 0 60 60" xml:space="preserve">
<g>
	<rect x="1" y="33.9" fill="#3760AF" width="17.2" height="23"/>
	<rect x="41.8" y="28" fill="#3760AF" width="17.2" height="29"/>
	<rect x="21.4" y="19.4" fill="#5DAB34" width="17.2" height="37.5"/>
	<path fill="#5DAB34" d="M50.6,10.5l2.4,4.9l5.4,0.8l-3.9,3.8l0.9,5.4L50.6,23l-4.9,2.6l0.9-5.4l-3.9-3.8l5.4-0.8L50.6,10.5z"/>
	<path fill="#3760AF" d="M30.1,2l2.4,4.9L38,7.7L34,11.6L35,17l-4.9-2.6L25.2,17l0.9-5.4l-3.9-3.8l5.4-0.8L30.1,2z"/>
	<path fill="#5DAB34" d="M9.3,16.3l2.4,4.9l5.4,0.8l-3.9,3.8l0.9,5.4l-4.9-2.6l-4.9,2.6l0.9-5.4L1.4,22l5.4-0.8L9.3,16.3z"/>
</g>
</svg>
