<?xml version="1.0" encoding="utf-8"?>
<!-- Generator: Adobe Illustrator 18.0.0, SVG Export Plug-In . SVG Version: 6.00 Build 0)  -->
<!DOCTYPE svg PUBLIC "-//W3C//DTD SVG 1.1//EN" "http://www.w3.org/Graphics/SVG/1.1/DTD/svg11.dtd">
<svg version="1.1" xmlns="http://www.w3.org/2000/svg" xmlns:xlink="http://www.w3.org/1999/xlink" x="0px" y="0px" width="80px"
	 height="80px" viewBox="0 0 80 80" enable-background="new 0 0 80 80" xml:space="preserve">
<g id="Layer_2">
	<ellipse fill="none" stroke="#3760AF" stroke-width="2" stroke-miterlimit="10" cx="39.6" cy="41.2" rx="32.4" ry="32.1"/>
	<g>
		<g>
			<path fill="#3760AF" d="M55.9,40.8l-8.2-8.2c-0.3-0.3-0.7-0.3-1,0L45,34.4c-0.3,0.3-0.3,0.7,0,1l5.9,5.9L45,47.2
				c-0.3,0.3-0.3,0.7,0,1l1.8,1.8c0.1,0.1,0.3,0.2,0.5,0.2c0.2,0,0.4-0.1,0.5-0.2l8.2-8.2C56.2,41.5,56.2,41,55.9,40.8z"/>
			<path fill="#3760AF" d="M35.2,47.2l-5.9-5.9l5.9-5.9c0.1-0.1,0.2-0.3,0.2-0.5c0-0.2-0.1-0.4-0.2-0.5l-1.8-1.8
				c-0.1-0.1-0.3-0.2-0.5-0.2c-0.2,0-0.4,0.1-0.5,0.2l-8.2,8.2c-0.3,0.3-0.3,0.7,0,1l8.2,8.2c0.1,0.1,0.3,0.2,0.5,0.2
				s0.4-0.1,0.5-0.2l1.8-1.8C35.5,47.9,35.5,47.4,35.2,47.2z"/>
			<path fill="#3760AF" d="M44.8,29.9c-0.1-0.2-0.2-0.3-0.4-0.3l-1.4-0.4c-0.4-0.1-0.7,0.1-0.8,0.5l-6.7,22.6
				c-0.1,0.2,0,0.4,0.1,0.5c0.1,0.2,0.2,0.3,0.4,0.3l1.4,0.4c0.1,0,0.1,0,0.2,0c0.3,0,0.6-0.2,0.6-0.5l6.7-22.6
				C44.9,30.2,44.9,30,44.8,29.9z"/>
		</g>
	</g>
</g>
<g id="Layer_3">
</g>
</svg>
