<?xml version="1.0" encoding="utf-8"?>
<!-- Generator: Adobe Illustrator 18.0.0, SVG Export Plug-In . SVG Version: 6.00 Build 0)  -->
<!DOCTYPE svg PUBLIC "-//W3C//DTD SVG 1.1//EN" "http://www.w3.org/Graphics/SVG/1.1/DTD/svg11.dtd">
<svg version="1.1" id="Layer_2" xmlns="http://www.w3.org/2000/svg" xmlns:xlink="http://www.w3.org/1999/xlink" x="0px" y="0px"
	 width="80px" height="80px" viewBox="0 0 80 80" enable-background="new 0 0 80 80" xml:space="preserve">
<ellipse fill="none" stroke="#3760AF" stroke-width="2" stroke-miterlimit="10" cx="39.6" cy="41.2" rx="32.4" ry="32.1"/>
<g id="Layer_3">
	<g>
		<polygon fill="#3760AF" points="27.4,31.9 25.6,55.7 23.4,55.7 25.1,35.6 		"/>
		<polygon fill="#3760AF" points="52.6,35.8 53.9,55.7 55.4,55.7 54,38.4 		"/>
		<path fill="#3760AF" d="M34.2,29.6l-4.3,26.1h9.3V25.1L34.2,29.6z M38.2,50.8l-7,2.6l0.4-2.7l6.6-2.7L38.2,50.8L38.2,50.8z
			 M38.2,46.7l-6.5,2.7l0.4-2.7l6.1-2.7V46.7z M38.2,42.6l-5.9,2.6l0.4-2.7l5.5-2.6V42.6z M38.2,38.6L33,41.3l0.4-2.7l4.8-2.7
			L38.2,38.6L38.2,38.6z M38.2,34.4l-4.6,2.7l0.4-2.7l4.2-2.8V34.4z M38.2,30.4l-4,2.7l0.6-2.7l3.4-2.8V30.4z"/>
		<path fill="#3760AF" d="M43.6,28.5l-4-3.4v30.6h9L43.6,28.5z M40.2,27.6l3,2.1l0.5,2.4l-3.5-2.1C40.2,30.1,40.2,27.6,40.2,27.6z
			 M40.2,31.6l3.5,1.7l0.4,2.3l-3.9-1.5C40.2,34.1,40.2,31.6,40.2,31.6z M40.2,35.7l3.9,1.5l0.5,2.6l-4.5-1.5
			C40.2,38.2,40.2,35.7,40.2,35.7z M40.2,39.7l4.5,1.5l0.6,3l-5-1.8L40.2,39.7L40.2,39.7z M40.2,43.8l5.2,1.9l0.6,2.8l-5.7-1.9
			L40.2,43.8L40.2,43.8z M40.2,47.8l5.7,2.1l0.6,2.6l-6.4-1.9L40.2,47.8L40.2,47.8z"/>
		<path fill="#3760AF" d="M27.9,32.2L26,55.7h3.4l0.5-2.9L26.8,52l0.1-1.3l3.2,1l0.2-0.9l-3.3-1l0.1-1.3l3.4,1.1l0.2-0.9l-3.5-1
			l0.1-1.3l3.6,1.2l0.2-0.9l-3.7-1.1l0.1-1.3l3.7,1.3l0.2-1l-3.9-1.2l0.1-1.3l3.9,1.4v0.6l0.7-4.6V34L27.9,32.2z M31.5,42.3
			l-3.8-1.4l0.1-1.3l3.7,1.5V42.3z M31.6,40.1l-3.7-1.3l0.1-1.3l3.6,1.5V40.1z M31.6,37.9l-3.6-1.3l0.1-1.3l3.5,1.4L31.6,37.9
			L31.6,37.9z M31.7,35.7l-3.6-1.3l0.1-1.3l3.5,1.4L31.7,35.7L31.7,35.7z"/>
		<path fill="#3760AF" d="M52.3,35.5l-4.3,1.7l-0.7,9.2l0.4,2l4.8-1.2l0.1,1.6l-4.6,1l0.2,1l4.4-0.9l0.1,1.7l-4.3,0.6l0.7,3.6h4.2
			L52.3,35.5z M48.4,38.1l3.5-1.3l0.1,1.5l-3.7,1.1L48.4,38.1z M48.3,40.2l3.9-1.2l0.1,1.3l-4,1.2L48.3,40.2z M48.1,42.3l4.1-1.3
			l0.1,1.4L48,43.5L48.1,42.3z M47.9,44.3l4.5-1.3l0.1,1.4l-4.6,1.2L47.9,44.3z M47.6,47.6l0.1-1.3l4.7-1.3l0.1,1.4L47.6,47.6z"/>
	</g>
</g>
<g>
	<g>
		<path fill="#3760AF" d="M51,28.2h-0.3c-0.1,0-0.2-0.1-0.2-0.2c0-0.1-0.1-0.2-0.1-0.2c0-0.1,0-0.2,0-0.3l0.2-0.2
			c0.1-0.1,0.1-0.4,0-0.5l-0.3-0.3c-0.1-0.1-0.2-0.1-0.3-0.1c-0.1,0-0.2,0-0.3,0.1l-0.2,0.2c0,0-0.1,0.1-0.1,0.1c0,0-0.1,0-0.1,0
			c-0.1,0-0.2-0.1-0.2-0.1c-0.1,0-0.2-0.1-0.2-0.2v-0.3c0-0.2-0.2-0.4-0.4-0.4h-0.5c-0.2,0-0.4,0.2-0.4,0.4v0.3
			c0,0.1-0.1,0.2-0.2,0.2c-0.1,0-0.2,0.1-0.2,0.1c0,0-0.1,0-0.1,0c-0.1,0-0.1,0-0.1-0.1l-0.2-0.2c-0.1-0.1-0.2-0.1-0.3-0.1
			c-0.1,0-0.2,0-0.3,0.1L46,26.8c-0.1,0.1-0.1,0.2-0.1,0.3c0,0.1,0,0.2,0.1,0.3l0.2,0.2c0.1,0.1,0.1,0.2,0,0.3
			c0,0.1-0.1,0.2-0.1,0.2c0,0.1-0.1,0.2-0.2,0.2h-0.3c-0.2,0-0.4,0.2-0.4,0.4v0.5c0,0.2,0.2,0.4,0.4,0.4h0.3c0.1,0,0.2,0.1,0.2,0.2
			c0,0.1,0.1,0.2,0.1,0.2c0,0.1,0,0.2,0,0.3L46,30.3c-0.1,0.1-0.1,0.4,0,0.5l0.3,0.3c0.1,0.1,0.2,0.1,0.3,0.1c0.1,0,0.2,0,0.3-0.1
			L47,31c0,0,0.1-0.1,0.1-0.1c0,0,0.1,0,0.1,0c0.1,0,0.2,0.1,0.2,0.1c0.1,0,0.2,0.1,0.2,0.2v0.3c0,0.2,0.2,0.4,0.4,0.4h0.5
			c0.2,0,0.4-0.2,0.4-0.4v-0.3c0-0.1,0.1-0.2,0.2-0.2c0.1,0,0.2-0.1,0.2-0.1c0,0,0.1,0,0.1,0c0.1,0,0.1,0,0.1,0.1l0.2,0.2
			c0.1,0.1,0.2,0.1,0.3,0.1c0.1,0,0.2,0,0.3-0.1l0.3-0.3c0.1-0.1,0.1-0.4,0-0.5l-0.2-0.2c-0.1-0.1-0.1-0.2,0-0.3
			c0-0.1,0.1-0.2,0.1-0.2c0-0.1,0.1-0.2,0.2-0.2H51c0.2,0,0.4-0.2,0.4-0.4v-0.5C51.4,28.4,51.2,28.2,51,28.2z M49.4,28.8
			c0,0.6-0.5,1.1-1.1,1.1c-0.6,0-1.1-0.5-1.1-1.1c0-0.6,0.5-1.1,1.1-1.1C48.9,27.7,49.4,28.2,49.4,28.8z"/>
		<path fill="#3760AF" d="M46,25.8C46,25.8,46.1,25.8,46,25.8l0.2,0c0.1,0,0.2-0.1,0.2-0.2v-0.2c0-0.1-0.1-0.2-0.2-0.2h-0.1
			c0,0,0,0,0,0c0,0,0-0.1-0.1-0.1c0,0,0,0,0-0.1l0.1-0.1c0.1-0.1,0.1-0.3,0-0.4l-0.2-0.2c0,0-0.1-0.1-0.2-0.1c-0.1,0-0.1,0-0.2,0.1
			l-0.1,0.1c0,0,0,0,0,0c0,0,0,0,0,0c0,0-0.1,0-0.1-0.1c0,0,0,0,0,0v-0.1c0-0.1-0.1-0.2-0.2-0.2h-0.2c-0.1,0-0.2,0.1-0.2,0.2v0.1
			c0,0,0,0,0,0c0,0-0.1,0-0.1,0.1c0,0,0,0,0,0c0,0,0,0,0,0l-0.1-0.1c0,0-0.1-0.1-0.2-0.1c-0.1,0-0.1,0-0.2,0.1l-0.2,0.2
			c-0.1,0.1-0.1,0.3,0,0.4l0.1,0.1c0,0,0,0,0,0.1c0,0,0,0.1-0.1,0.1c0,0,0,0,0,0h-0.1c-0.1,0-0.2,0.1-0.2,0.2v0.2
			c0,0.1,0.1,0.2,0.2,0.2h0.1c0,0,0,0,0,0c0,0,0,0.1,0.1,0.1c0,0,0,0,0,0.1l-0.1,0.1c0,0-0.1,0.1-0.1,0.2c0,0.1,0,0.1,0.1,0.2
			l0.2,0.2c0,0,0.1,0.1,0.2,0.1c0.1,0,0.1,0,0.2-0.1l0.1-0.1c0,0,0,0,0,0c0,0,0,0,0,0c0,0,0.1,0,0.1,0.1c0,0,0,0,0,0v0.1
			c0,0.1,0.1,0.2,0.2,0.2H45c0.1,0,0.2-0.1,0.2-0.2v-0.1c0,0,0,0,0,0c0,0,0.1,0,0.1-0.1c0,0,0,0,0,0c0,0,0,0,0,0l0.1,0.1
			c0,0,0.1,0.1,0.2,0.1c0.1,0,0.1,0,0.2-0.1l0.2-0.2c0.1-0.1,0.1-0.3,0-0.4L46,26c0,0,0,0,0-0.1C46,25.9,46,25.9,46,25.8z
			 M45.4,25.4c0,0.3-0.2,0.5-0.5,0.5c-0.3,0-0.5-0.2-0.5-0.5s0.2-0.5,0.5-0.5C45.1,24.9,45.4,25.1,45.4,25.4z"/>
	</g>
</g>
</svg>
