<?xml version="1.0" encoding="utf-8"?>
<!-- Generator: Adobe Illustrator 18.0.0, SVG Export Plug-In . SVG Version: 6.00 Build 0)  -->
<!DOCTYPE svg PUBLIC "-//W3C//DTD SVG 1.1//EN" "http://www.w3.org/Graphics/SVG/1.1/DTD/svg11.dtd">
<svg version="1.1" id="Layer_2" xmlns="http://www.w3.org/2000/svg" xmlns:xlink="http://www.w3.org/1999/xlink" x="0px" y="0px"
	 width="80px" height="80px" viewBox="0 0 80 80" enable-background="new 0 0 80 80" xml:space="preserve">
<ellipse fill="none" stroke="#FFFFFF" stroke-width="2" stroke-miterlimit="10" cx="39.6" cy="41.2" rx="32.4" ry="32.1"/>
<g id="Layer_4">
	<path id="rocket-7-icon" fill="#FFFFFF" d="M55.5,25.1c-13-1-20.4,8.6-22.9,16.3l6.6,6.6C47.2,45.2,56.6,38.1,55.5,25.1z
		 M43.9,39.2c-0.7,0.7-1.8,0.7-2.5,0c-0.7-0.7-0.7-1.8,0-2.5c0.7-0.7,1.8-0.7,2.5,0C44.6,37.4,44.6,38.5,43.9,39.2z M49.6,35.1
		c-1.1,1.1-3,1.1-4.2,0c-1.1-1.1-1.1-3,0-4.2c1.1-1.1,3-1.1,4.2,0C50.8,32.1,50.8,34,49.6,35.1z M34.6,46.8l1.2,1.2
		c-1.2,1.2-2.4,2.6-2.8,4.5l-1.7-0.4C31.9,49.8,33.3,48.1,34.6,46.8z M32.6,44.8l1.2,1.2c-1.4,1.4-3,2.7-5.3,3.3l-0.4-1.7
		C30,47.1,31.4,45.9,32.6,44.8z M23.6,40c2.2-4.3,6.9-6.8,10.2-6.5c-1.2,1.7-2.6,4.6-3.1,6.1C28,37.9,25.7,38.4,23.6,40z M36,52.7
		c0.3,2.5-1.2,4-3.1,4.2c-1.1,0.1-2.1-0.3-2.9-1.1c-1.9,0.7-3.8-0.1-4.8-1.4c-0.8-1.1-0.9-2.5-0.5-3.8c-0.8-0.8-1.2-1.8-1.1-2.9
		c0.2-1.9,1.7-3.3,4.3-3.1l0.3,1.5c-0.9,0.1-1.7,0.1-2.2,0.7c-0.9,0.9-0.6,2.8,1,3.2c-1.1,1.1-1,2.7-0.2,3.6
		c0.9,0.9,2.5,1.1,3.7-0.1c0.5,1.7,2.4,1.9,3.2,1c0.5-0.5,0.6-1.3,0.7-2.2L36,52.7z M47.1,46.8c0.3,3.3-2.2,8-6.5,10.2
		c1.6-2.1,2.1-4.4,0.4-7.2C42.5,49.3,45.4,47.9,47.1,46.8z"/>
</g>
</svg>
