<?xml version="1.0" encoding="utf-8"?>
<!-- Generator: Adobe Illustrator 18.0.0, SVG Export Plug-In . SVG Version: 6.00 Build 0)  -->
<!DOCTYPE svg PUBLIC "-//W3C//DTD SVG 1.1//EN" "http://www.w3.org/Graphics/SVG/1.1/DTD/svg11.dtd">
<svg version="1.1" id="Layer_2" xmlns="http://www.w3.org/2000/svg" xmlns:xlink="http://www.w3.org/1999/xlink" x="0px" y="0px"
	 width="80px" height="80px" viewBox="0 0 80 80" enable-background="new 0 0 80 80" xml:space="preserve">
<ellipse fill="none" stroke="#FFFFFF" stroke-width="2" stroke-miterlimit="10" cx="39.6" cy="41.2" rx="32.4" ry="32.1"/>
<g>
	<g>
		<path fill="#FFFFFF" d="M42.2,27.8l-2.8,11c-3.4-1.4-7.8-2-11.8-0.8c0.8-3.5,2.8-10.2,2.8-10.2C33.4,25.4,39,26.3,42.2,27.8z"/>
		<path fill="#FFFFFF" d="M43.8,29.4c3,1.8,8.3,2.3,12.2,1.1l-3.1,10.6c-3.2,1.7-9.4,1.6-11.8-0.8L43.8,29.4z"/>
		<path fill="#FFFFFF" d="M38.5,41.1l-2.8,11c-3.5-1.6-7.9-2.7-11.8-0.8c0,0,1.8-7.1,2.7-10.6C29.8,38.8,35.8,39.4,38.5,41.1z"/>
		<path fill="#FFFFFF" d="M40.4,42.7c3,2.1,8.1,2.5,11.9,1l-3.1,10.6c-3,2.1-9,1.8-11.8-0.4L40.4,42.7z"/>
	</g>
</g>
</svg>
