<?xml version="1.0" encoding="utf-8"?>
<!-- Generator: Adobe Illustrator 16.0.0, SVG Export Plug-In . SVG Version: 6.00 Build 0)  -->
<!DOCTYPE svg PUBLIC "-//W3C//DTD SVG 1.1//EN" "http://www.w3.org/Graphics/SVG/1.1/DTD/svg11.dtd">
<svg version="1.1" id="Layer_1" xmlns="http://www.w3.org/2000/svg" xmlns:xlink="http://www.w3.org/1999/xlink" x="0px" y="0px"
	 width="78.333px" height="77.5px" viewBox="0 0 78.333 77.5" enable-background="new 0 0 78.333 77.5" xml:space="preserve">
<ellipse fill="none" stroke="#3760AF" stroke-width="2" stroke-miterlimit="10" cx="39.066" cy="39.6" rx="32.399" ry="32.1"/>
<g>
	<path fill="#3760AF" d="M44.125,56.453c-0.633-0.466-0.701-1.165-0.701-1.165l-0.236-1.521h-7.574l-0.238,1.519
		c0,0-0.066,0.7-0.7,1.167c-0.634,0.466-1.134,0.865-0.634,0.934c0.482,0.064,5.023,0.005,5.359,0c0.336,0.005,4.877,0.064,5.357,0
		C45.256,57.318,44.758,56.919,44.125,56.453z"/>
	<g>
		<path fill="#3760AF" d="M30.869,44.316c2.023-0.015,2.275-0.502,2.936-2.533c1.216-3.206,6.692,0.839,3.299,2.242
			C33.708,45.431,28.846,44.334,30.869,44.316z"/>
		<path fill="#3760AF" d="M51.616,23.191c-0.982-0.792-2.609-0.4-3.633,0.87L37.603,38.81c-1.024,1.271-1.02,1.029-0.037,1.819
			c0.98,0.792,0.744,0.848,1.769-0.423l12.203-13.278C52.561,25.654,52.598,23.982,51.616,23.191z M48.946,24.957
			c0,0-0.152-0.178-0.658-0.581c0.758-1.239,2.25-1.012,2.25-1.012C49.124,24.2,48.946,24.957,48.946,24.957z"/>
	</g>
	<path fill="#3760AF" d="M56.219,28.175h-4.564l-2.016,2.194h5.85v17.549H23.314V30.369H42.03l1.545-2.194H22.583
		c-0.808,0-1.463,0.655-1.463,1.463v21.205c0,0.808,0.655,1.463,1.463,1.463h33.636c0.809,0,1.461-0.655,1.461-1.463V29.638
		C57.68,28.83,57.026,28.175,56.219,28.175z"/>
</g>
</svg>
