<?xml version="1.0" encoding="utf-8"?>
<!-- Generator: Adobe Illustrator 16.0.0, SVG Export Plug-In . SVG Version: 6.00 Build 0)  -->
<!DOCTYPE svg PUBLIC "-//W3C//DTD SVG 1.1//EN" "http://www.w3.org/Graphics/SVG/1.1/DTD/svg11.dtd">
<svg version="1.1" id="Layer_1" xmlns="http://www.w3.org/2000/svg" xmlns:xlink="http://www.w3.org/1999/xlink" x="0px" y="0px"
	 width="60px" height="60px" viewBox="0 0 60 60" enable-background="new 0 0 60 60" xml:space="preserve">
<g id="Layer_2">
	<g id="Layer_3">
		<g id="sun_glasses">
			<path fill="#5DAB46" d="M38.163,34.774c-2.908,0.209-5.918,1.345-9.201,1.126c-2.449-0.166-4.974-0.95-7.256-1.126
				c-1.551-0.118-3.916,0-5.111,0.103c-2.259,0.194-5.689,0.566-6.234,2.148c-0.64,1.857,0.888,2.488,1.228,3.269
				c0.49,1.137,0.434,2.311,0.816,3.271c0.356,0.888,0.819,1.863,1.432,2.659c2.203,2.866,8.496,3.148,11.345,0.817
				c0.901-0.737,1.839-2.291,2.452-3.679c0.432-0.977,0.916-3.884,2.248-3.884c1.022,0,1.162,0.913,1.432,1.839
				c0.753,2.579,2.007,4.978,3.781,6.132c2.78,1.813,7.705,1.68,9.915-0.205c1.332-1.132,2.242-3.127,2.761-4.804
				c0.204-0.665,0.132-1.511,0.41-2.146c0.416-0.955,1.425-1.129,1.329-2.659C49.325,34.748,41.773,34.517,38.163,34.774z
				 M24.365,45.813c-1.996,1.667-6.212,1.929-8.381,0.411c-1.3-0.912-3.677-5.534-2.147-8.382c0.544-1.013,1.522-1.269,2.965-1.432
				c3.731-0.42,9.397,0.141,10.221,2.76C27.802,41.653,25.588,44.791,24.365,45.813z M46.237,41.01
				c-0.174,1.989-1.244,4.588-2.659,5.314c-3.097,1.594-7.333,0.813-9.199-1.635c-0.957-1.257-2.203-3.692-1.636-5.52
				c0.594-1.914,3.403-2.536,6.132-2.761C43.688,36.017,46.661,36.148,46.237,41.01z"/>
		</g>
	</g>
	<path fill="#3961AD" d="M13.125,24.563c0,0,22.063,4.188,31.688-0.438c0,0,1.938,11.813,2.875,13.438c0,0-2.438,2.938,0.688,5.438
		c0,0,3.813,2.375,6-1.938c0,0,0.5-0.875,0-2.688l0.223-1.75c0,0-3.473-0.813-4.223-1.563c0,0,2.313-8.313,2.875-11.5
		c0,0,1.625-5.313-3.938-11.813c0,0-1.5-1.5-2.313-2.313c0,0-0.625-1.75,1.938-2.625c0,0-2.313-1-4.063,1.813
		c0,0-5.938-7.25-16.563-5.563c0,0-12.563,2.875-16.625,1.313c0,0,1.688,2.5,5.125,4.563c0,0-5.25,1.375-7.875,0.875
		c0,0,0.813,1.125,4.563,2.875c0,0-4,1.875-8.375,10.063c0,0,4.125-3.625,4.625-1.625c0,0-3.688,1.875-2.438,7
		c0,0,1.813,4.688,2.313,7.563L6.438,36.5c0,0-0.375,0.625-0.375,1.625c0,0-1.313,2.875,1.375,5.063c0,0,3.5,1.75,5.875-2.063
		c0,0,0.75-2.438-1.188-4.063C12.125,37.063,13.313,32.813,13.125,24.563z"/>
	<path fill="none" stroke="#3961AD" stroke-width="1.5" stroke-miterlimit="10" d="M21.813,52.849c0,0,6.958,5.417,16.375,0"/>
	<path fill="none" stroke="#3961AD" stroke-width="1.5" stroke-miterlimit="10" d="M17.786,42.604c0,0,2.208-6.083,4.479,0"/>
	<path fill="none" stroke="#3961AD" stroke-width="1.5" stroke-miterlimit="10" d="M37.786,42.253c0,0,2.208-6.083,4.479,0"/>
</g>
</svg>
