<?xml version="1.0" encoding="utf-8"?>
<!-- Generator: Adobe Illustrator 16.0.0, SVG Export Plug-In . SVG Version: 6.00 Build 0)  -->
<!DOCTYPE svg PUBLIC "-//W3C//DTD SVG 1.1//EN" "http://www.w3.org/Graphics/SVG/1.1/DTD/svg11.dtd">
<svg version="1.1" id="Layer_1" xmlns="http://www.w3.org/2000/svg" xmlns:xlink="http://www.w3.org/1999/xlink" x="0px" y="0px"
	 width="60px" height="60px" viewBox="0 0 60 60" enable-background="new 0 0 60 60" xml:space="preserve">
<path fill="#3961AD" d="M10.313,21c0,0-0.25-5.75,5.5-3.688l6.313,7.188l4.938-0.875c0,0,2.75-0.938,3.625,1.563
	c0,0,0.625,2.563-1.563,3.25L22.563,30c0,0-2.813,0.375-3.938-1.313L17.25,27.25l-0.063,8.625H27.25c0,0,4.063-0.25,4.375,4.438
	v12.375c0,0-0.125,3.625-2.625,4.25c0,0-3.125,0.75-4.313-3l-0.063-11.375L14,42.5c0,0-3.253-0.188-3.689-3.875V21.25"/>
<polyline fill="#5DAB46" points="49.844,16.866 49.844,28.625 48.563,28.625 48.563,24 "/>
<path fill="#3961AD" d="M53.281,30.297c0,0.371-0.301,0.672-0.672,0.672h-6.563c-0.371,0-0.672-0.301-0.672-0.672l0,0
	c0-0.371,0.301-0.672,0.672-0.672h6.563C52.98,29.625,53.281,29.926,53.281,30.297L53.281,30.297z"/>
<path fill="#3961AD" d="M58,33.391c0,0.768-0.623,1.391-1.391,1.391h-29.5c-0.768,0-1.391-0.623-1.391-1.391l0,0
	c0-0.768,0.623-1.391,1.391-1.391h29.5C57.377,32,58,32.623,58,33.391L58,33.391z"/>
<path fill="#5DAB46" d="M39.209,55.707c0,0.713-0.578,1.292-1.292,1.292l0,0c-0.714,0-1.292-0.579-1.292-1.292V37.001
	c0-0.714,0.578-1.292,1.292-1.292l0,0c0.714,0,1.292,0.578,1.292,1.292V55.707z"/>
<path fill="#5DAB46" d="M55.667,55.707c0,0.713-0.578,1.292-1.292,1.292l0,0c-0.714,0-1.292-0.579-1.292-1.292V37.001
	c0-0.714,0.578-1.292,1.292-1.292l0,0c0.714,0,1.292,0.578,1.292,1.292V55.707z"/>
<path fill="#5DAB46" d="M7.292,55.77c0,0.679-0.55,1.229-1.229,1.229H5.146c-0.679,0-1.229-0.551-1.229-1.229l0,0
	c0-0.679,0.55-1.229,1.229-1.229h0.917C6.742,54.541,7.292,55.091,7.292,55.77L7.292,55.77z"/>
<path fill="#5DAB46" d="M22.655,55.77c0,0.679-0.55,1.229-1.229,1.229h-0.917c-0.679,0-1.229-0.551-1.229-1.229l0,0
	c0-0.679,0.55-1.229,1.229-1.229h0.917C22.105,54.541,22.655,55.091,22.655,55.77L22.655,55.77z"/>
<path fill="#3961AD" d="M22.875,51.979c0,0.748-0.606,1.354-1.354,1.354H5.271c-0.748,0-1.354-0.606-1.354-1.354l0,0
	c0-0.747,0.606-1.354,1.354-1.354h16.25C22.269,50.625,22.875,51.231,22.875,51.979L22.875,51.979z"/>
<rect x="12.292" y="48.5" fill="#3961AD" width="2.542" height="3.479"/>
<path fill="#5DAB46" d="M9.125,36.021c0,0.701-0.569,1.271-1.271,1.271l0,0c-0.702,0-1.271-0.569-1.271-1.271V24.896
	c0-0.702,0.569-1.271,1.271-1.271l0,0c0.702,0,1.271,0.569,1.271,1.271V36.021z"/>
<path fill="#3961AD" d="M5.604,45.613c0,0.996-0.807,1.803-1.802,1.803l0,0C2.807,47.416,2,46.609,2,45.613v-14.52
	c0-0.995,0.807-1.802,1.802-1.802l0,0c0.995,0,1.802,0.807,1.802,1.802V45.613z"/>
<path fill="#3961AD" d="M2.25,45.694c0,0.951,0.771,1.722,1.722,1.722h17.262c0.951,0,1.722-0.771,1.722-1.722l0,0
	c0-0.951-0.771-1.722-1.722-1.722H3.972C3.021,43.973,2.25,44.743,2.25,45.694L2.25,45.694z"/>
<circle fill="#3961AD" cx="13.792" cy="8.687" r="5.688"/>
<path fill="#3961AD" d="M47.408,25.551c-0.114,0.728-0.796,1.226-1.522,1.111l0,0c-0.729-0.114-1.226-0.794-1.113-1.522
	l2.905-18.608c0.114-0.728,0.796-1.226,1.522-1.111l0,0c0.729,0.114,1.226,0.794,1.113,1.522L47.408,25.551z"/>
<path fill="#3961AD" d="M30.292,29.625l6.333-1c0,0,1.625-0.166,1.292,1.375c0,0-0.959,1.758-1.792,0.297l-5.292,0.672
	c0,0-1.333-0.296-0.542-1.174"/>
</svg>
